<svg width="229" height="232" viewBox="0 0 229 232" fill="none" xmlns="http://www.w3.org/2000/svg">
<path d="M100.046 67.916C99.0806 66.571 99.3806 64.701 100.711 63.721C102.056 62.756 103.926 63.056 104.891 64.401C109.725 71.061 119.715 71.061 124.535 64.401C125.515 63.056 127.385 62.756 128.73 63.721C130.06 64.701 130.36 66.571 129.395 67.916C122.17 77.881 107.275 77.881 100.046 67.916ZM113 30.756C111.155 31.481 111.2 34.131 113.055 34.781C114.615 35.336 115.435 37.051 114.885 38.606C114.345 40.166 112.63 40.971 111.07 40.436C107.64 39.216 105.456 35.871 105.656 32.316C87.8807 38.876 82.6957 61.796 96.2306 75.331C106.435 85.536 122.99 85.536 133.21 75.331C143.415 65.126 143.415 48.571 133.21 38.351C128.04 33.176 120.785 30.246 113 30.756ZM112.05 24.801C112.97 24.601 113.935 24.561 114.9 24.701C123.7 24.741 131.665 28.331 137.45 34.111C146.86 43.521 149.57 57.881 144 70.126C148.055 70.581 154.26 71.446 156.415 74.096L180.525 103.746C185.885 110.321 184.875 120.061 178.3 125.416C164.58 136.571 154.575 120.656 147.09 111.441V130.361C147.09 132.316 146.89 134.271 146.535 136.216C146.32 138.116 146.04 139.931 145.67 141.646C151.55 148.631 157.945 156.346 163.47 162.256C168.56 167.711 168.785 176.016 164.025 181.756L147.965 201.086C142.55 207.606 132.8 208.511 126.28 203.086C119.76 197.671 118.855 187.921 124.28 181.401L132.19 171.876L123.305 162.151C118.105 162.901 111.355 162.916 106.156 162.136L97.2406 171.871L105.166 181.396C110.595 187.916 109.685 197.666 103.166 203.081C96.6456 208.511 86.8957 207.601 81.4807 201.081L65.4209 181.751C60.6609 176.011 60.8859 167.706 65.9758 162.251C71.5158 156.311 77.9257 148.586 83.8207 141.586C83.4807 140.011 83.2107 138.371 83.0007 136.656C82.5907 134.571 82.3607 132.476 82.3607 130.361V111.441L72.9658 122.991C70.4708 126.336 66.3308 128.376 62.4509 128.776C53.9609 129.641 46.436 123.531 45.556 115.041C45.161 111.116 46.251 107.031 48.916 103.746L73.0408 74.096C74.7858 71.941 82.0257 71.221 85.7807 70.821C75.9958 50.596 89.6006 26.656 112.05 24.801ZM103.891 54.736C103.196 56.236 101.411 56.891 99.9056 56.196C98.4156 55.516 97.7506 53.731 98.4456 52.226C100.996 46.696 108.86 46.696 111.415 52.226C112.11 53.726 111.445 55.516 109.94 56.196C108.44 56.891 106.665 56.236 105.97 54.736C105.561 53.841 104.301 53.856 103.891 54.736ZM131 52.226C131.695 53.726 131.03 55.516 129.525 56.196C128.035 56.891 126.25 56.236 125.555 54.736C125.145 53.856 123.885 53.856 123.47 54.736C122.775 56.236 121.005 56.891 119.5 56.196C118 55.516 117.33 53.731 118.025 52.226C120.585 46.701 128.465 46.711 131 52.226ZM99.5256 160.541C92.9756 158.261 88.6407 154.106 86.0057 148.311C80.7457 154.561 75.2758 161.081 70.3608 166.341C67.3158 169.616 67.1858 174.531 70.0208 177.951L86.0807 197.271C91.3656 203.636 101.926 200.546 102.691 192.126C102.916 189.716 102.236 187.221 100.581 185.236L91.0006 173.701C90.0106 172.511 90.0956 170.781 91.1556 169.706L99.5256 160.541ZM88.3707 121.206H141.08V103.006C141.08 100.241 144.665 98.781 146.55 101.306L161.12 119.221C161.235 119.336 161.32 119.446 161.405 119.561C163.02 121.476 165.275 122.581 167.615 122.821C176.02 123.686 181.11 113.936 175.89 107.516L151.78 77.866C151.565 77.626 150.49 77.301 148.745 76.901C146.66 76.446 143.9 76.081 140.665 75.811C128.035 93.061 102.396 93.426 89.2856 76.506C85.6857 76.816 82.6407 77.186 80.3857 77.571C78.5557 77.881 77.7757 77.741 77.6657 77.871L53.7009 107.351C53.6159 107.466 53.5309 107.576 53.4309 107.691C51.886 109.661 51.261 112.101 51.501 114.436C52.366 122.826 62.9509 125.831 68.1708 119.411L83.0407 101.126C84.8257 98.941 88.3557 100.221 88.3557 103.011H88.3707V121.206ZM143.515 148.391C140.905 154.216 136.555 158.326 129.965 160.596L138.355 169.766C139.375 170.871 139.39 172.556 138.455 173.691L128.875 185.226C123.605 191.561 128.535 201.396 136.995 200.616C139.405 200.391 141.715 199.256 143.375 197.256L159.435 177.936C162.27 174.521 162.14 169.601 159.08 166.326C154.205 161.106 148.745 154.626 143.515 148.391ZM125.305 155.676C130.65 154.441 134.19 152.106 136.49 148.761C137.625 147.116 138.475 145.216 139.14 143.061C138.7 142.211 138.7 141.206 139.11 140.366C139.59 139.291 140.415 136.666 140.585 135.506C140.87 132.956 141.01 130.176 141.055 127.216H88.3957C88.4507 130.306 88.6107 133.181 88.9356 135.831C89.2756 137.446 89.7706 139.021 90.4106 140.521C90.7506 141.331 90.7106 142.206 90.3706 142.946C91.0356 145.101 91.9156 147.016 93.0356 148.656C95.3606 152.031 98.9056 154.396 104.206 155.656C104.931 155.246 105.79 155.176 106.57 155.431V155.416C111.87 157.146 117.585 157.146 122.87 155.416C123.715 155.151 124.595 155.266 125.305 155.676ZM187.78 33.236L179.02 38.296L194.185 47.056V29.536L187.78 33.236ZM180.79 30.356C144.34 2.01096 101.636 -2.25404 59.6709 21.981C35.8861 35.716 18.0863 60.931 10.4763 89.291C3.32138 116.021 5.24636 145.486 19.8162 170.731C49.876 222.791 116.49 240.631 168.55 210.586V210.571C188.55 199.036 203.485 182.111 212.615 162.706C221.999 142.736 225.244 120.116 221.474 97.991C221.204 96.361 222.31 94.816 223.939 94.546C225.569 94.276 227.114 95.381 227.384 97.011C231.354 120.326 227.939 144.166 218.03 165.241C208.39 185.721 192.63 203.581 171.555 215.756V215.741L171.54 215.756C144.07 231.616 112.78 234.831 84.3907 227.236C56.0009 219.626 30.5061 201.186 14.6463 173.706C-0.773584 146.991 -2.84357 115.891 4.69637 87.746C12.6913 57.911 31.4961 31.351 56.6959 16.811C101.681 -9.16904 147.815 -3.90904 186.38 27.141L195.705 21.756C197.705 20.606 200.185 22.081 200.185 24.351V52.231C200.185 54.426 197.775 56.171 195.45 54.681L171.555 40.876C169.54 39.726 169.585 36.836 171.555 35.701H171.54L180.79 30.356Z" fill="black"/>
</svg>
