<svg width="360" height="294" viewBox="0 0 360 294" fill="none" xmlns="http://www.w3.org/2000/svg">
<path fill-rule="evenodd" clip-rule="evenodd" d="M197.052 152.755C197.052 152.755 187.126 162.758 178.459 186.006C175.86 192.982 175.376 192.593 183.506 195.684C199.77 201.863 226.287 202.505 244.419 197.424C257.733 193.694 257.661 193.559 253.395 182.834C245.045 161.846 236.026 152.755 236.026 152.755C227.179 150.366 216.537 151.667 216.537 151.667C216.537 151.667 205.899 150.366 197.052 152.755Z" fill="#F2971D"/>
<path fill-rule="evenodd" clip-rule="evenodd" d="M244.419 188.62C226.287 193.7 199.77 193.057 183.506 186.878C181.42 186.085 179.898 185.52 178.836 185.004C178.71 185.335 178.584 185.669 178.459 186.006C175.86 192.982 175.376 192.593 183.506 195.684C188.408 197.547 194.238 198.904 200.489 199.756C204.435 200.292 208.548 200.627 212.701 200.759C215.133 200.837 217.578 200.844 220.01 200.782C224.155 200.675 228.265 200.365 232.213 199.85C236.533 199.286 240.656 198.479 244.419 197.424C256.701 193.982 257.592 193.602 254.306 185.144C252.612 186.301 249.482 187.199 244.419 188.62Z" fill="white"/>
<path fill-rule="evenodd" clip-rule="evenodd" d="M33.0969 293.204C51.3229 293.204 66.191 291.274 66.191 288.906C66.191 286.538 51.3229 284.609 33.0969 284.609C14.8681 284.609 9.09232e-08 286.538 9.09232e-08 288.906C-0.00134253 291.274 14.8668 293.204 33.0969 293.204Z" fill="#E5E1CF"/>
<path fill-rule="evenodd" clip-rule="evenodd" d="M19.0971 276.53C19.0971 276.53 13.0661 281.585 11.1757 282.422C11.1757 282.422 7.67817 280.212 6.25097 281.25C4.82242 282.288 6.57051 288.75 10.2828 289.487C13.9952 290.221 23.952 286.941 34.8742 287.343C45.7937 287.745 51.4314 289.621 54.5019 289.419C57.5712 289.218 60.639 285.067 59.7838 282.723C58.9272 280.381 55.717 282.858 55.717 282.858C55.717 282.858 47.6506 278.104 46.794 277.1C45.936 276.094 19.0971 276.53 19.0971 276.53Z" fill="#F2A383"/>
<path fill-rule="evenodd" clip-rule="evenodd" d="M17.9345 277.489C17.5532 277.802 17.0994 278.168 16.6066 278.561C20.7741 281.917 20.135 287.027 18.9616 287.332C17.6767 287.667 14.108 288.47 11.8242 288.27C9.54178 288.068 6.96396 283.099 6.52761 282.427C6.08992 281.759 5.77709 282.308 5.77709 282.308C5.53407 284.478 7.25665 288.887 10.2829 289.487C13.2112 290.067 20.0209 288.15 28.1263 287.511L28.1236 287.509C24.6865 287.119 21.9247 285.892 21.3528 283.147C20.7822 280.401 21.9247 278.862 21.9247 278.862L18.391 277.657L17.9345 277.489ZM33.0967 287.312C33.6847 287.313 34.2768 287.323 34.8729 287.343C45.7924 287.745 51.4301 289.621 54.5007 289.419C57.2356 289.238 59.9678 285.925 59.9262 283.547C59.5583 283.341 58.8669 283.716 57.6129 285.055C55.0082 287.833 45.2285 287.765 44.3357 284.251C43.5422 281.13 48.0105 279.143 49.0228 278.737C48.4038 278.333 47.8614 277.96 47.4559 277.661L46.3443 277.623L41.0248 279.551C42.3178 283.589 33.0967 287.312 33.0967 287.312Z" fill="#E37E55"/>
<path fill-rule="evenodd" clip-rule="evenodd" d="M10.2453 260.362C10.2453 260.362 5.46154 259.791 3.42882 258.084C1.39341 256.378 3.25025 251.924 5.42663 252.159C7.60301 252.393 10.8857 256.847 11.1368 257.716C11.3879 258.585 10.2453 260.362 10.2453 260.362Z" fill="#F2A383"/>
<path fill-rule="evenodd" clip-rule="evenodd" d="M53.1069 258.889C53.0344 258.488 57.3885 254.002 58.9244 253.165C60.4604 252.327 62.3521 255.54 61.8137 258.521C61.2794 261.501 54.3904 262.405 54.3904 262.405L53.1069 258.889Z" fill="#F2A383"/>
<path fill-rule="evenodd" clip-rule="evenodd" d="M18.0046 259.394C17.3615 258.994 11.5909 256.861 10.8055 257.062C10.02 257.262 8.53779 259.312 8.75127 260.116C8.96474 260.92 15.1636 266.812 18.9484 266.745C22.7306 266.678 24.4988 262.005 18.0046 259.394Z" fill="#F2A383"/>
<path fill-rule="evenodd" clip-rule="evenodd" d="M42.9025 259.356L42.8662 261.399C42.8662 261.399 52.4794 258.759 54.0583 257.616C55.6386 256.468 59.1092 260.604 55.8212 262.143C52.5344 263.684 50.1835 268.929 46.6135 270.404C43.0448 271.877 41.2618 261.03 42.9025 259.356Z" fill="#F2A383"/>
<path fill-rule="evenodd" clip-rule="evenodd" d="M46.6133 266.605L47.878 269.837C47.878 269.837 48.8259 275.818 47.2564 277.85C45.6842 279.881 28.4114 280.823 22.9147 279.954C17.4194 279.084 17.2059 276.543 17.1334 274.295C17.0609 272.047 17.3482 266.458 18.6331 263.195C19.918 259.931 26.6969 257.536 27.7696 257.755C28.8424 257.973 44.1872 255.433 46.6133 266.605Z" fill="#F2A383"/>
<path fill-rule="evenodd" clip-rule="evenodd" d="M46.6132 266.605L47.8779 269.837C47.8779 269.837 48.7104 275.09 47.5222 277.421C46.3031 277.638 45.1645 277.805 45.1645 277.805C49.7979 272.457 42.7867 260.556 42.7666 260.516C44.5764 261.855 46.0037 263.798 46.6132 266.605Z" fill="#E37E55"/>
<path fill-rule="evenodd" clip-rule="evenodd" d="M56.5695 240.31C56.5695 240.31 60.6363 239.037 62.136 241.581C63.6357 244.126 60.2094 252.16 56.0687 248.544C51.9308 244.93 56.5695 240.31 56.5695 240.31Z" fill="#F2A383"/>
<path fill-rule="evenodd" clip-rule="evenodd" d="M9.68267 239.983C8.83548 239.534 3.87719 238.395 3.51066 241.199C3.14278 244.004 3.85437 247.971 5.8213 248.766C7.78958 249.56 13.5991 247.168 9.68267 239.983Z" fill="#F2A383"/>
<path fill-rule="evenodd" clip-rule="evenodd" d="M32.8003 219.153C46.7044 219.153 57.5501 228.749 57.977 241.784C58.4053 254.819 45.9888 264.404 32.086 264.404C18.1832 264.404 7.63428 254.956 7.63428 242.459C7.63428 229.959 18.8961 219.153 32.8003 219.153Z" fill="#F2A383"/>
<path fill-rule="evenodd" clip-rule="evenodd" d="M25.6374 223.94C25.6374 223.94 20.4267 217.044 26.2805 211.287C26.2805 211.287 26.8149 210.885 27.2257 211.186C27.6366 211.487 27.2056 215.673 29.1336 217.044C29.1336 217.044 29.6519 217.345 29.919 216.894C30.1876 216.442 30.6159 214.953 32.47 216.091C34.3269 217.227 35.8615 221.279 39.0381 222.25C42.2134 223.222 30.9193 227.275 25.6374 223.94Z" fill="#522313"/>
<path fill-rule="evenodd" clip-rule="evenodd" d="M22.1468 251.252C24.2104 251.252 25.8967 250.553 25.8967 249.698C25.8967 248.841 24.2104 248.144 22.1468 248.144C20.0791 248.144 18.3955 248.843 18.3955 249.698C18.3955 250.553 20.0791 251.252 22.1468 251.252Z" fill="#E66655"/>
<path fill-rule="evenodd" clip-rule="evenodd" d="M43.278 251.252C45.3443 251.252 47.0293 250.553 47.0293 249.698C47.0293 248.841 45.3443 248.144 43.278 248.144C41.2117 248.144 39.5254 248.843 39.5254 249.698C39.5254 250.553 41.2104 251.252 43.278 251.252Z" fill="#E66655"/>
<path fill-rule="evenodd" clip-rule="evenodd" d="M34.1251 223.604C34.1251 223.604 39.8017 221.195 40.657 221.897C41.5149 222.6 40.0152 224.912 40.1213 225.848C40.2287 226.785 41.5135 228.929 39.9789 229.364C38.4443 229.799 34.4124 227.789 33.6619 227.488C32.9141 227.186 32.5207 224.375 34.1251 223.604Z" fill="#D13831"/>
<path fill-rule="evenodd" clip-rule="evenodd" d="M31.1297 223.905C31.1297 223.905 26.0251 221.73 24.6342 222.465C23.2419 223.201 25.3847 225.11 24.9188 226.517C24.4542 227.922 24.0273 229.63 26.6696 228.893C29.3091 228.157 31.3808 227.252 31.452 226.751C31.5218 226.249 32.1622 224.341 31.1297 223.905Z" fill="#D13831"/>
<path fill-rule="evenodd" clip-rule="evenodd" d="M31.3433 223.069C31.3433 223.069 29.8785 223.302 29.8449 224.407C29.81 225.513 30.0584 227.856 31.1298 228.024C32.1999 228.191 33.7707 228.057 34.0916 227.019C34.4125 225.98 35.2691 222.298 31.3433 223.069Z" fill="#D13831"/>
<path fill-rule="evenodd" clip-rule="evenodd" d="M17.3887 277.931C18.6467 279.3 21.869 283.289 21.8703 288.236C25.7599 287.668 30.2295 287.173 34.8736 287.343C36.5465 287.405 38.0959 287.503 39.5338 287.62C40.142 285.804 42.5869 279.44 47.4579 277.662C47.4579 277.662 30.4617 281.465 18.6212 276.925C18.3191 277.174 17.8922 277.525 17.3887 277.931Z" fill="white"/>
<path fill-rule="evenodd" clip-rule="evenodd" d="M17.0673 278.268C16.5047 278.089 16.2026 277.515 16.3919 276.986C16.5826 276.458 17.0525 275.873 18.1857 276.153C18.2273 276.166 32.2455 281.193 47.4816 276.352C48.0441 276.173 48.6577 276.458 48.847 276.986C49.0377 277.515 48.7342 278.089 48.173 278.268C32.2267 283.333 17.1116 278.281 17.0673 278.268Z" fill="white"/>
<path fill-rule="evenodd" clip-rule="evenodd" d="M30.0759 252.85C30.0759 252.85 33.3586 252.97 36.1324 251.929C38.9049 250.889 40.8678 254.17 40.5698 257.093C40.2704 260.014 38.1813 260.894 35.1107 260.454C32.0388 260.014 30.2464 260.014 28.5386 260.374C26.8321 260.734 24.2301 258.972 24.743 255.41C25.2532 251.849 27.0872 252.37 30.0759 252.85Z" fill="#D13831"/>
<path fill-rule="evenodd" clip-rule="evenodd" d="M33.7428 254.412C33.7428 254.412 31.9303 254.892 30.8844 254.711C29.8398 254.531 28.2609 253.991 27.8971 255.631C27.5346 257.272 28.8584 258.573 31.2899 258.652C33.7213 258.732 35.7675 257.572 35.6829 255.99C35.5997 254.412 34.4047 254.21 33.7428 254.412Z" fill="white"/>
<path fill-rule="evenodd" clip-rule="evenodd" d="M20.762 237.945C20.9486 238.073 21.2681 238.059 21.5085 238.002C22.0858 237.858 22.4752 237.746 23.0672 237.79C23.3223 237.81 23.5331 237.858 23.7869 237.932C23.9869 237.991 24.3468 238.078 24.4757 238.201C24.6663 238.383 25.1846 238.253 25.1215 238.007C25.0906 237.884 25.1188 237.765 25.0651 237.641C25.0033 237.498 24.8986 237.377 24.7589 237.265C24.4367 237 24.003 236.861 23.517 236.776C22.7021 236.639 21.5165 236.685 20.8157 237.115C20.5458 237.282 20.429 237.507 20.5418 237.736C20.5874 237.83 20.6666 237.878 20.762 237.945Z" fill="#522313"/>
<path fill-rule="evenodd" clip-rule="evenodd" d="M39.5762 238.247C39.9427 238.075 40.273 237.883 40.6892 237.766C41.0531 237.665 41.4089 237.573 41.7714 237.537C42.1164 237.503 42.4628 237.484 42.8012 237.52C42.9703 237.539 43.1234 237.572 43.2254 237.602C43.4497 237.674 43.3798 237.693 43.6202 237.818C44.2015 238.119 45.1279 237.786 44.7533 237.252C44.1935 236.451 42.6521 236.378 41.6438 236.51C41.1081 236.58 40.5939 236.726 40.1696 236.957C39.6876 237.223 39.1613 237.553 39.066 238.012C39.0244 238.209 39.3627 238.35 39.5762 238.247Z" fill="#522313"/>
<path fill-rule="evenodd" clip-rule="evenodd" d="M19.7837 242.761C19.8696 242.728 19.8884 242.747 19.973 242.745C20.0132 242.745 20.165 242.755 20.271 242.772C20.4214 242.799 20.557 242.815 20.7087 242.824C20.7571 242.658 20.8188 242.495 20.9047 242.348C20.8671 242.336 20.8269 242.323 20.7893 242.309C20.608 242.24 20.4482 242.144 20.3059 242.019C20.1972 241.925 20.0186 241.724 20.0723 241.573C20.2039 241.211 20.5624 241.582 20.7289 241.712C20.8953 241.847 21.0793 241.908 21.2699 241.935C21.274 241.932 21.2766 241.93 21.2807 241.926C22.2527 241.219 24.8628 241.548 26.3074 242.745C26.7048 243.073 26.9599 243.375 26.9224 243.65C26.9036 243.781 26.5316 243.829 26.2349 243.775C25.2293 243.591 21.9869 241.882 21.2417 243.811C21.1491 244.056 20.6121 243.685 20.6013 243.391C20.4442 243.403 20.2818 243.394 20.1314 243.369C20.0226 243.353 19.9166 243.329 19.8347 243.258C19.8374 243.262 19.6924 243.136 19.6897 243.134C19.5648 242.996 19.6011 242.828 19.7837 242.761Z" fill="#522313"/>
<path fill-rule="evenodd" clip-rule="evenodd" d="M45.2715 242.761C45.1856 242.728 45.1681 242.747 45.0822 242.745C45.0406 242.745 44.8902 242.755 44.7841 242.772C44.6338 242.799 44.4968 242.815 44.3451 242.824C44.2995 242.658 44.2364 242.495 44.1491 242.348C44.188 242.336 44.227 242.323 44.2659 242.309C44.4471 242.24 44.6069 242.144 44.7492 242.019C44.858 241.925 45.0379 241.724 44.9829 241.573C44.8513 241.211 44.4915 241.582 44.3263 241.712C44.1598 241.847 43.9759 241.908 43.7852 241.935C43.7812 241.932 43.7785 241.93 43.7745 241.926C42.8024 241.219 40.1937 241.548 38.7464 242.745C38.349 243.073 38.0939 243.375 38.1328 243.65C38.1516 243.781 38.5222 243.829 38.8202 243.775C39.8272 243.591 43.0683 241.882 43.8121 243.811C43.9047 244.056 44.4418 243.685 44.4539 243.391C44.6109 243.403 44.7734 243.394 44.9265 243.369C45.0325 243.353 45.1386 243.329 45.2218 243.258C45.2192 243.262 45.3642 243.136 45.3655 243.134C45.4904 242.996 45.4541 242.828 45.2715 242.761Z" fill="#522313"/>
<path fill-rule="evenodd" clip-rule="evenodd" d="M119.451 293.204C137.68 293.204 152.547 291.274 152.547 288.906C152.547 286.538 137.68 284.609 119.451 284.609C101.222 284.609 86.3555 286.538 86.3555 288.906C86.3555 291.274 101.222 293.204 119.451 293.204Z" fill="#E5E1CF"/>
<path fill-rule="evenodd" clip-rule="evenodd" d="M108.404 188.562L105.059 184.928C96.8386 193.781 86.6374 211.623 91.9985 233.042C92.1905 233.806 92.514 234.286 92.7262 234.485C93.8969 235.586 95.496 234.672 95.2838 233.184C93.6848 221.916 92.7302 209.736 107.55 197.866L108.404 188.562Z" fill="white"/>
<path fill-rule="evenodd" clip-rule="evenodd" d="M95.8184 234.126C95.8184 234.126 96.8079 235.546 97.1651 236.1C97.157 236.764 97.4739 238.089 97.1919 237.932C97.0577 237.858 96.4736 237.815 96.2373 236.541C96.2373 236.541 95.9513 237.524 95.6412 237.838C95.6412 237.838 97.5101 240.02 97.5316 240.421C97.5558 240.821 97.2107 240.941 96.7583 240.688C96.3058 240.435 95.9527 240.218 95.9527 240.218C95.9527 240.218 95.2948 240.471 94.7148 240.032C93.6044 239.19 91.616 239.243 91.8322 236.866C91.8953 236.168 92.5304 235.245 92.5142 234.897L95.8184 234.126Z" fill="#F6C0A6"/>
<path fill-rule="evenodd" clip-rule="evenodd" d="M95.8183 234.126C95.8183 234.126 96.8534 234.687 97.2938 235.885C97.2938 235.885 97.3824 236.887 97.5731 237.553C97.7006 238 97.663 238.757 96.9783 238.198C96.6561 237.934 96.3862 237.339 96.2372 236.541C96.2372 236.541 95.9512 237.524 95.641 237.838C95.641 237.838 97.51 240.02 97.5314 240.421C97.5556 240.821 97.2106 240.941 96.7581 240.688C96.3056 240.435 95.9525 240.218 95.9525 240.218C95.9525 240.218 95.3336 240.42 94.7146 240.032C93.1881 239.072 92.6349 239.696 91.9072 238.004C92.1462 238.095 92.647 238.605 93.3599 238.065C93.4002 238.033 94.0702 238.08 94.4233 237.974C95.3148 237.711 95.6504 236.16 95.6679 235.488C95.6786 235.055 95.3296 234.61 95.0315 234.312L95.8183 234.126Z" fill="#F0A88B"/>
<path fill-rule="evenodd" clip-rule="evenodd" d="M96.2388 234.241C96.2388 234.241 93.0433 234.853 92.2445 235.212C92.2445 235.212 91.8632 235.383 91.6081 234.921C91.3543 234.463 90.8629 233.49 91.1905 233.202C91.5154 232.912 95.4386 231.873 95.8387 231.96C96.2374 232.045 96.5811 233.406 96.5999 233.679C96.6201 233.953 96.4925 234.155 96.2388 234.241Z" fill="#D13831"/>
<path fill-rule="evenodd" clip-rule="evenodd" d="M130.526 188.562L133.872 184.928C142.092 193.781 152.293 211.623 146.932 233.042C146.74 233.806 146.418 234.286 146.205 234.485C145.033 235.586 143.436 234.672 143.646 233.184C145.245 221.916 146.201 209.736 131.38 197.866L130.526 188.562Z" fill="white"/>
<path fill-rule="evenodd" clip-rule="evenodd" d="M126.438 283.256L124.96 280.331C124.96 280.331 125.051 274.903 124.678 271.401C124.305 267.9 123.131 255.094 123.131 252.793C123.131 250.491 130.599 251.593 130.599 251.593L131.858 254.613C131.858 254.613 128.1 276.875 128.443 280.342C128.785 283.809 126.438 283.256 126.438 283.256Z" fill="#F2A383"/>
<path fill-rule="evenodd" clip-rule="evenodd" d="M128.441 280.339C128.441 280.339 128.599 281.293 129.839 282.156C131.078 283.019 135.077 284.152 136.761 284.897C138.445 285.642 139.999 287.756 138.317 288.858C136.634 289.961 129.044 289.932 125.899 288.026C122.756 286.118 124.503 282.663 124.852 280.697C125.203 278.731 128.378 279.178 128.441 280.339Z" fill="#F2A383"/>
<path fill-rule="evenodd" clip-rule="evenodd" d="M135.693 284.474C136.102 284.625 136.469 284.768 136.763 284.899C138.446 285.643 140.001 287.757 138.319 288.859C136.635 289.963 129.045 289.934 125.901 288.027C123.773 286.736 123.887 284.734 124.29 282.964C124.49 284.723 129.84 286.834 133.588 286.448C137.327 286.06 135.697 284.48 135.693 284.474Z" fill="#D13831"/>
<path fill-rule="evenodd" clip-rule="evenodd" d="M113.21 283.256L114.687 280.331C114.687 280.331 114.599 274.903 114.97 271.401C115.342 267.9 116.517 255.094 116.517 252.793C116.517 250.491 109.052 251.593 109.052 251.593L107.792 254.613C107.792 254.613 111.551 276.875 111.208 280.342C110.863 283.807 113.21 283.256 113.21 283.256Z" fill="#F2A383"/>
<path fill-rule="evenodd" clip-rule="evenodd" d="M127.221 184.206L129.186 182.853C129.186 182.853 133.034 183.507 134.208 185.355C135.38 187.208 136.925 210.418 137.992 217.221C139.058 224.026 141.623 247.237 139.916 250.637C136.722 257.006 103.29 258.033 98.6631 249.899C96.104 245.398 99.8419 224.026 100.908 217.221C101.974 210.419 103.429 188.096 104.879 185.808C106.332 183.518 110.842 183.206 110.842 183.206L111.68 184.207L119.449 188.355L127.221 184.206Z" fill="#F2971D"/>
<path fill-rule="evenodd" clip-rule="evenodd" d="M133.872 184.931C133.998 185.064 134.112 185.207 134.208 185.357C134.598 185.975 136.741 190.159 137.184 194.14C137.502 197.008 136.121 199.206 136.439 202.559C136.434 202.549 132.1 194.596 133.872 184.931Z" fill="white"/>
<path fill-rule="evenodd" clip-rule="evenodd" d="M150.586 146.694V149.611V165.978C150.586 174.002 143.591 180.565 135.039 180.565H103.862C91.7072 180.565 88.3145 171.524 88.3145 162.049V155.696C88.3145 137.165 88.5977 119.018 113.607 115.076C130.857 112.358 150.586 121.803 150.586 143.408V146.694Z" fill="#682E1A"/>
<path fill-rule="evenodd" clip-rule="evenodd" d="M113.403 176.002L113.447 177.482C113.447 177.482 113.51 181.502 112.71 184.354C111.908 187.208 116.069 188.358 119.216 188.358C122.362 188.358 126.094 187.208 126.308 186.557C126.521 185.907 127.216 183.154 127.216 183.154C127.216 183.154 125.615 177.602 125.775 175C125.935 172.399 113.403 176.002 113.403 176.002Z" fill="#E37E55"/>
<path fill-rule="evenodd" clip-rule="evenodd" d="M119.451 121.636C132.71 121.636 143.56 131.811 143.56 144.249V155.58C143.56 168.018 132.71 178.194 119.451 178.194C106.19 178.194 95.3413 168.018 95.3413 155.58V144.249C95.3413 131.811 106.19 121.636 119.451 121.636Z" fill="#F2A383"/>
<path fill-rule="evenodd" clip-rule="evenodd" d="M117.818 159.924C117.911 160.05 118.134 160.022 118.14 159.85C118.146 159.686 118.204 159.503 118.218 159.335C118.237 159.114 118.245 158.916 118.451 158.78C118.927 158.463 119.57 158.427 120.019 158.083C120.451 157.752 119.995 157.207 119.541 157.268C119.205 157.314 118.845 157.519 118.549 157.666C118.221 157.832 117.966 158.058 117.755 158.343C117.581 158.581 117.509 158.871 117.504 159.156C117.501 159.319 117.535 159.468 117.598 159.619C117.65 159.753 117.738 159.817 117.818 159.924Z" fill="#522313"/>
<path fill-rule="evenodd" clip-rule="evenodd" d="M106.656 162.777C109.158 162.777 111.199 162.094 111.199 161.256C111.199 160.419 109.158 159.736 106.656 159.736C104.155 159.736 102.114 160.419 102.114 161.256C102.114 162.094 104.153 162.777 106.656 162.777Z" fill="#E66655"/>
<path fill-rule="evenodd" clip-rule="evenodd" d="M132.246 162.777C134.747 162.777 136.788 162.094 136.788 161.256C136.788 160.419 134.747 159.736 132.246 159.736C129.743 159.736 127.703 160.419 127.703 161.256C127.703 162.094 129.743 162.777 132.246 162.777Z" fill="#E66655"/>
<path fill-rule="evenodd" clip-rule="evenodd" d="M104.066 143.038L94.01 138.418L92.4565 151.223H95.3418C95.3418 146.72 99.2676 143.038 104.066 143.038Z" fill="#682E1A"/>
<path fill-rule="evenodd" clip-rule="evenodd" d="M135.731 143.038L144.892 138.418L146.447 151.223H143.56C143.56 146.72 140.53 143.038 135.731 143.038Z" fill="#682E1A"/>
<path fill-rule="evenodd" clip-rule="evenodd" d="M112.507 164.55C112.507 164.55 125.593 163.972 127.965 164.829C130.336 165.688 126.702 172.807 118.716 172.276C110.731 171.746 108.219 164.744 112.507 164.55Z" fill="white"/>
<path fill-rule="evenodd" clip-rule="evenodd" d="M93.2432 143.038H116.417C126.997 143.038 129.131 133.312 129.131 133.312C129.211 139.935 134.821 142.684 135.607 143.038H145.659L142.721 127.49L119.451 118.749L99.2903 125.707L93.2432 143.038Z" fill="#682E1A"/>
<path fill-rule="evenodd" clip-rule="evenodd" d="M113.073 183.053C113.073 183.053 115.343 186.556 119.478 186.255C123.613 185.955 126.248 182.654 126.857 181.853C127.465 181.052 129.086 181.753 129.187 182.853C129.289 183.954 126.35 192.159 124.121 192.108C121.89 192.058 120.877 190.257 119.864 189.908C118.85 189.558 117.635 191.408 115.861 192.208C114.089 193.009 110.44 184.105 110.845 183.206C111.249 182.305 112.212 181.304 113.073 183.053Z" fill="white"/>
<path fill-rule="evenodd" clip-rule="evenodd" d="M111.207 280.339C111.207 280.339 111.05 281.293 109.81 282.156C108.572 283.019 104.571 284.152 102.887 284.897C101.204 285.642 99.6487 287.756 101.331 288.858C103.015 289.961 110.603 289.932 113.749 288.026C116.892 286.118 115.145 282.663 114.795 280.697C114.446 278.731 111.272 279.178 111.207 280.339Z" fill="#F2A383"/>
<path fill-rule="evenodd" clip-rule="evenodd" d="M103.957 284.474C103.548 284.625 103.183 284.768 102.887 284.899C101.204 285.643 99.6487 287.757 101.331 288.859C103.015 289.963 110.603 289.934 113.749 288.027C115.878 286.736 115.764 284.734 115.359 282.964C115.16 284.723 109.81 286.834 106.062 286.448C102.322 286.06 103.952 284.48 103.957 284.474Z" fill="#D13831"/>
<path fill-rule="evenodd" clip-rule="evenodd" d="M143.112 234.126C143.112 234.126 142.121 235.546 141.765 236.1C141.774 236.764 141.456 238.089 141.738 237.932C141.872 237.858 142.457 237.815 142.693 236.541C142.693 236.541 142.979 237.524 143.29 237.838C143.29 237.838 141.421 240.02 141.399 240.421C141.376 240.821 141.719 240.941 142.172 240.688C142.624 240.435 142.979 240.218 142.979 240.218C142.979 240.218 143.637 240.471 144.217 240.032C145.326 239.19 147.315 239.243 147.099 236.866C147.036 236.168 146.401 235.245 146.417 234.897L143.112 234.126Z" fill="#F6C0A6"/>
<path fill-rule="evenodd" clip-rule="evenodd" d="M143.112 234.126C143.112 234.126 142.077 234.687 141.636 235.885C141.636 235.885 141.547 236.887 141.359 237.553C141.23 238 141.266 238.757 141.953 238.198C142.274 237.934 142.544 237.339 142.693 236.541C142.693 236.541 142.979 237.524 143.291 237.838C143.291 237.838 141.422 240.02 141.399 240.421C141.376 240.821 141.72 240.941 142.172 240.688C142.625 240.435 142.979 240.218 142.979 240.218C142.979 240.218 143.598 240.42 144.217 240.032C145.742 239.072 146.297 239.696 147.026 238.004C146.784 238.095 146.285 238.605 145.572 238.065C145.531 238.033 144.863 238.08 144.508 237.974C143.616 237.711 143.283 236.16 143.264 235.488C143.253 235.055 143.602 234.61 143.9 234.312L143.112 234.126Z" fill="#F0A88B"/>
<path fill-rule="evenodd" clip-rule="evenodd" d="M142.692 234.241C142.692 234.241 145.887 234.853 146.686 235.212C146.686 235.212 147.067 235.383 147.323 234.921C147.576 234.463 148.066 233.49 147.74 233.202C147.415 232.912 143.492 231.873 143.093 231.96C142.693 232.045 142.349 233.406 142.331 233.679C142.311 233.953 142.439 234.155 142.692 234.241Z" fill="#D13831"/>
<path fill-rule="evenodd" clip-rule="evenodd" d="M105.06 184.931C104.931 185.064 104.818 185.207 104.723 185.357C104.331 185.975 102.192 190.159 101.746 194.14C101.428 197.008 102.81 199.206 102.491 202.559C102.498 202.549 106.832 194.596 105.06 184.931Z" fill="white"/>
<path fill-rule="evenodd" clip-rule="evenodd" d="M90.1377 129.891C90.1377 129.891 93.1828 122.266 95.2839 115.616C97.3825 108.967 103.413 108.105 112.448 111.1C121.484 114.093 136.079 111.22 139.755 110.133C143.43 109.046 150.988 116.401 149.189 131.519C149.189 131.519 145.502 136.183 144.151 135.826C142.799 135.47 90.1377 129.891 90.1377 129.891Z" fill="#F2971D"/>
<path fill-rule="evenodd" clip-rule="evenodd" d="M90.1377 129.891C90.1377 129.891 90.9755 127.791 92.0751 124.835C98.2015 125.425 117.279 127.15 128.404 126.98C137.354 126.843 144.535 126.383 149.457 126.552C149.48 128.101 149.399 129.756 149.19 131.518C149.19 131.518 145.503 136.181 144.153 135.825C142.799 135.47 90.1377 129.891 90.1377 129.891Z" fill="#D13831"/>
<path fill-rule="evenodd" clip-rule="evenodd" d="M97.9893 129.067C97.9893 129.067 91.7756 128.474 88.0714 127.892C84.3671 127.308 83.6474 132.073 86.4602 133.809C89.2717 135.543 100.895 135.063 111.798 135.105C122.7 135.147 140.349 136.306 146.74 138.015C153.131 139.724 155.793 136.684 155.048 133.037C154.304 129.389 141.071 130.457 133.21 130.95C125.352 131.441 111.117 129.808 97.9893 129.067Z" fill="#F2971D"/>
<path fill-rule="evenodd" clip-rule="evenodd" d="M105.091 147.83C105.323 147.992 105.724 147.972 106.019 147.9C106.737 147.723 107.223 147.582 107.96 147.64C108.276 147.665 108.539 147.723 108.856 147.819C109.104 147.893 109.551 148 109.711 148.15C109.95 148.378 110.596 148.218 110.518 147.91C110.478 147.757 110.511 147.607 110.446 147.456C110.369 147.277 110.237 147.126 110.066 146.986C109.663 146.657 109.126 146.482 108.522 146.38C107.505 146.206 106.031 146.266 105.16 146.801C104.821 147.009 104.678 147.287 104.816 147.574C104.874 147.686 104.972 147.747 105.091 147.83Z" fill="#522313"/>
<path fill-rule="evenodd" clip-rule="evenodd" d="M128.51 148.208C128.966 147.992 129.373 147.753 129.894 147.608C130.347 147.482 130.79 147.368 131.241 147.322C131.67 147.279 132.1 147.256 132.52 147.302C132.732 147.325 132.922 147.365 133.051 147.404C133.329 147.49 133.243 147.517 133.542 147.671C134.263 148.048 135.418 147.632 134.953 146.967C134.255 145.971 132.338 145.879 131.082 146.044C130.412 146.131 129.772 146.312 129.247 146.602C128.647 146.932 127.992 147.341 127.872 147.913C127.82 148.16 128.244 148.332 128.51 148.208Z" fill="#522313"/>
<path fill-rule="evenodd" clip-rule="evenodd" d="M103.872 153.823C103.98 153.783 104.002 153.806 104.106 153.803C104.159 153.802 104.347 153.817 104.478 153.837C104.665 153.869 104.834 153.891 105.023 153.903C105.081 153.696 105.159 153.495 105.268 153.308C105.22 153.294 105.171 153.281 105.126 153.26C104.897 153.175 104.701 153.055 104.521 152.899C104.386 152.781 104.164 152.531 104.233 152.345C104.396 151.896 104.845 152.356 105.049 152.521C105.257 152.689 105.484 152.764 105.724 152.796C105.727 152.793 105.732 152.789 105.735 152.787C106.945 151.905 110.193 152.316 111.994 153.807C112.487 154.215 112.807 154.592 112.758 154.932C112.734 155.095 112.274 155.153 111.902 155.087C110.649 154.857 106.614 152.73 105.689 155.133C105.571 155.437 104.905 154.974 104.891 154.609C104.695 154.624 104.492 154.613 104.302 154.583C104.171 154.561 104.038 154.535 103.936 154.447C103.94 154.449 103.756 154.293 103.756 154.293C103.6 154.118 103.645 153.909 103.872 153.823Z" fill="#522313"/>
<path fill-rule="evenodd" clip-rule="evenodd" d="M135.599 153.823C135.492 153.783 135.468 153.806 135.363 153.803C135.312 153.802 135.124 153.817 134.992 153.837C134.806 153.869 134.637 153.891 134.447 153.903C134.389 153.696 134.312 153.495 134.201 153.308C134.248 153.294 134.297 153.281 134.344 153.26C134.572 153.175 134.769 153.055 134.948 152.899C135.084 152.781 135.305 152.531 135.238 152.345C135.076 151.896 134.626 152.356 134.423 152.521C134.214 152.689 133.985 152.764 133.746 152.796C133.742 152.793 133.738 152.789 133.736 152.787C132.526 151.905 129.278 152.316 127.475 153.807C126.981 154.215 126.664 154.592 126.712 154.932C126.735 155.095 127.196 155.153 127.568 155.087C128.82 154.857 132.856 152.73 133.781 155.133C133.898 155.437 134.565 154.974 134.581 154.609C134.776 154.624 134.978 154.613 135.168 154.583C135.301 154.561 135.433 154.535 135.535 154.447C135.532 154.449 135.715 154.293 135.715 154.293C135.87 154.118 135.826 153.909 135.599 153.823Z" fill="#522313"/>
<path fill-rule="evenodd" clip-rule="evenodd" d="M246.022 104.374C246.022 104.374 249.158 111.293 246.829 116.966C244.502 122.639 234.533 117.937 231.016 110.032C227.495 102.127 246.022 104.374 246.022 104.374Z" fill="#682E1A"/>
<path fill-rule="evenodd" clip-rule="evenodd" d="M242.259 82.6852C242.259 82.6852 248.914 93.2504 247.378 103.094C245.844 112.939 230.143 107.657 222.634 95.5715C215.125 83.4849 242.259 82.6852 242.259 82.6852Z" fill="#682E1A"/>
<path fill-rule="evenodd" clip-rule="evenodd" d="M249.615 59.7134V58.3142C249.615 35.3625 228.654 25.3313 210.329 28.2179C189.079 31.5666 184.634 44.5701 183.707 59.7146C183.676 59.7146 179.042 93.8058 210.329 98.7352C241.487 103.644 249.615 82.1159 249.615 59.7134Z" fill="#682E1A"/>
<path fill-rule="evenodd" clip-rule="evenodd" d="M216.355 293.204C234.584 293.204 249.451 291.274 249.451 288.906C249.451 286.538 234.584 284.609 216.355 284.609C198.128 284.609 183.261 286.538 183.261 288.906C183.26 291.274 198.127 293.204 216.355 293.204Z" fill="#E5E1CF"/>
<path fill-rule="evenodd" clip-rule="evenodd" d="M198.722 100.554C197.387 100.78 190.676 103.279 189.819 111.63C188.962 119.984 187.849 139.659 188.878 141.827C189.906 143.996 193.843 143.433 194.185 140.383C194.529 137.33 198.887 115.78 201.454 110.962C204.024 106.141 198.722 100.554 198.722 100.554Z" fill="#F2A383"/>
<path fill-rule="evenodd" clip-rule="evenodd" d="M234.357 100.554C235.691 100.78 242.402 103.279 243.259 111.63C244.117 119.984 245.227 139.659 244.2 141.827C243.172 143.996 239.235 143.433 238.893 140.383C238.549 137.33 234.191 115.78 231.624 110.962C229.055 106.141 234.357 100.554 234.357 100.554Z" fill="#F2A383"/>
<path fill-rule="evenodd" clip-rule="evenodd" d="M234.356 100.554L226.688 99.2263C221.781 108.2 216.537 107.144 216.537 107.144C216.537 107.144 211.295 108.2 206.388 99.2263L198.72 100.554C198.72 100.554 203.151 108.248 198.614 120.623C198.614 120.623 200.179 143.602 197.05 152.757H216.537H236.026C232.895 143.603 235.693 118.461 235.693 118.461C231.156 106.085 234.356 100.554 234.356 100.554Z" fill="#F2971D"/>
<path fill-rule="evenodd" clip-rule="evenodd" d="M223.964 280.009L221.899 275.653C221.899 275.653 222.24 267.665 221.823 262.496C221.408 257.33 219.877 200.198 219.965 196.811C220.05 193.423 234.279 192.368 234.279 192.368L232.57 195.254C232.57 195.254 226.649 270.667 227.021 275.783C227.396 280.899 223.964 280.009 223.964 280.009Z" fill="#F2A383"/>
<path fill-rule="evenodd" clip-rule="evenodd" d="M227.024 275.782C227.024 275.782 227.22 277.191 229.011 278.503C230.802 279.818 236.649 281.619 239.1 282.771C241.549 283.924 243.758 287.09 241.24 288.657C238.72 290.223 227.546 289.925 222.99 287.012C218.434 284.099 221.137 279.07 221.727 276.187C222.316 273.307 226.973 274.07 227.024 275.782Z" fill="#F2A383"/>
<path fill-rule="evenodd" clip-rule="evenodd" d="M237.539 282.113C238.136 282.349 238.671 282.57 239.099 282.771C241.548 283.924 243.758 287.09 241.239 288.657C238.719 290.223 227.546 289.925 222.989 287.012C219.904 285.04 220.148 282.095 220.811 279.504C221.037 282.1 228.833 285.39 234.365 284.944C239.886 284.502 237.548 282.121 237.539 282.113Z" fill="#D13831"/>
<path fill-rule="evenodd" clip-rule="evenodd" d="M208.748 280.009L210.812 275.653C210.812 275.653 210.472 267.665 210.887 262.496C211.305 257.33 212.835 200.198 212.747 196.811C212.661 193.423 198.433 192.368 198.433 192.368L200.14 195.254C200.14 195.254 206.061 270.667 205.689 275.783C205.315 280.899 208.748 280.009 208.748 280.009Z" fill="#F2A383"/>
<path fill-rule="evenodd" clip-rule="evenodd" d="M205.688 275.782C205.688 275.782 205.489 277.191 203.698 278.503C201.908 279.818 196.061 281.619 193.609 282.771C191.159 283.924 188.949 287.09 191.469 288.657C193.991 290.223 205.163 289.925 209.72 287.012C214.276 284.099 211.572 279.07 210.982 276.187C210.395 273.307 205.737 274.07 205.688 275.782Z" fill="#F2A383"/>
<path fill-rule="evenodd" clip-rule="evenodd" d="M195.171 282.113C194.574 282.349 194.039 282.57 193.61 282.771C191.16 283.924 188.95 287.09 191.47 288.657C193.992 290.223 205.164 289.925 209.72 287.012C212.807 285.04 212.563 282.095 211.898 279.504C211.673 282.1 203.877 285.39 198.346 284.944C192.822 284.502 195.162 282.121 195.171 282.113Z" fill="#D13831"/>
<path fill-rule="evenodd" clip-rule="evenodd" d="M229.618 99.7326L227.336 99.3762C227.127 99.7213 226.917 100.051 226.706 100.367C229.473 100.649 231.89 101.069 233.952 101.539C234.171 100.877 234.356 100.554 234.356 100.554L229.618 99.7326ZM220.531 106.17C218.202 107.479 216.537 107.144 216.537 107.144C216.537 107.144 214.875 107.479 212.544 106.168C211.675 105.755 210.711 105.149 209.702 104.263C206.121 104.449 202.974 104.866 200.272 105.384C200.46 106.405 200.599 107.578 200.643 108.889C204.751 108.076 210.06 107.502 216.537 107.731C223.536 107.483 229.168 108.174 233.4 109.088C233.257 107.711 233.236 106.51 233.283 105.477C230.476 104.916 227.169 104.46 223.375 104.263C222.364 105.149 221.399 105.755 220.531 106.17ZM203.457 99.7326L198.722 100.553C198.722 100.553 198.912 100.888 199.176 101.525C201.227 101.061 203.628 100.646 206.371 100.366C206.161 100.05 205.95 99.72 205.741 99.3749L203.457 99.7326ZM200.467 113.021C200.33 114.188 200.115 115.427 199.8 116.735C209.554 114.652 224.922 114.712 234.584 117.031C234.184 115.696 233.905 114.431 233.72 113.237C224.213 111.27 210.037 111.22 200.467 113.021ZM198.643 121.066C198.681 121.691 198.753 122.946 198.821 124.629C208.927 122.271 225.08 122.314 235.12 124.838C235.221 123.478 235.324 122.275 235.414 121.291C225.006 118.814 209.115 118.762 198.643 121.066ZM198.953 128.672C198.98 129.801 198.997 131.008 199.005 132.261C208.946 129.978 224.779 130.007 234.676 132.402C234.725 131.174 234.786 129.978 234.853 128.833C224.662 126.514 209.187 126.479 198.953 128.672ZM198.978 136.339C198.957 137.542 198.92 138.758 198.865 139.965C208.801 137.656 224.64 137.674 234.549 140.044C234.536 138.853 234.541 137.644 234.562 136.44C224.442 134.193 209.127 134.17 198.978 136.339ZM198.596 144.096C198.481 145.385 198.34 146.633 198.165 147.805C208.371 145.286 224.81 145.292 235.005 147.83C234.865 146.67 234.758 145.433 234.686 144.142C224.428 141.84 208.868 141.83 198.596 144.096Z" fill="#EEF3FE"/>
<path fill-rule="evenodd" clip-rule="evenodd" d="M210.113 92.9368L210.162 94.5073C210.162 94.5073 210.228 98.7818 209.377 101.811C208.527 104.84 212.946 106.064 216.287 106.064C219.63 106.064 223.595 104.84 223.821 104.149C224.048 103.458 224.785 100.536 224.785 100.536C224.785 100.536 223.085 94.6358 223.256 91.8739C223.426 89.1094 210.113 92.9368 210.113 92.9368Z" fill="#E37E55"/>
<path fill-rule="evenodd" clip-rule="evenodd" d="M216.537 35.1824H216.538C229.695 35.1824 240.457 45.2792 240.457 57.619V72.8277C240.457 85.1675 229.693 95.2642 216.538 95.2642H216.537C203.382 95.2642 192.618 85.1662 192.618 72.8277V57.619C192.618 45.2792 203.383 35.1824 216.537 35.1824Z" fill="#F2A383"/>
<path fill-rule="evenodd" clip-rule="evenodd" d="M214.804 75.8566C214.903 75.9888 215.139 75.9611 215.146 75.7797C215.154 75.6059 215.215 75.4108 215.229 75.2307C215.251 74.9989 215.258 74.7873 215.478 74.64C215.984 74.305 216.666 74.2647 217.141 73.902C217.603 73.5493 217.117 72.9713 216.635 73.0355C216.278 73.0846 215.895 73.3012 215.58 73.4599C215.232 73.6362 214.961 73.8743 214.738 74.179C214.55 74.4309 214.476 74.7395 214.471 75.0405C214.468 75.2155 214.504 75.3742 214.57 75.5354C214.627 75.6765 214.721 75.7432 214.804 75.8566Z" fill="#522313"/>
<path fill-rule="evenodd" clip-rule="evenodd" d="M202.946 78.888C205.604 78.888 207.771 78.1613 207.771 77.2722C207.771 76.383 205.606 75.6576 202.946 75.6576C200.288 75.6576 198.121 76.383 198.121 77.2722C198.122 78.1613 200.288 78.888 202.946 78.888Z" fill="#E66655"/>
<path fill-rule="evenodd" clip-rule="evenodd" d="M230.131 78.888C232.788 78.888 234.958 78.1613 234.958 77.2722C234.958 76.383 232.788 75.6576 230.131 75.6576C227.473 75.6576 225.305 76.383 225.305 77.2722C225.306 78.1613 227.473 78.888 230.131 78.888Z" fill="#E66655"/>
<path fill-rule="evenodd" clip-rule="evenodd" d="M201.886 59.4111L191.203 54.5044L189.552 68.1049H192.618C192.618 63.3229 196.787 59.4111 201.886 59.4111Z" fill="#682E1A"/>
<path fill-rule="evenodd" clip-rule="evenodd" d="M209.878 81.6058C209.878 81.6058 222.449 81.0517 224.73 81.8741C227.009 82.699 223.515 89.5402 215.843 89.0301C208.172 88.5213 205.755 81.7922 209.878 81.6058Z" fill="white"/>
<path fill-rule="evenodd" clip-rule="evenodd" d="M208.507 98.9883C208.507 98.9883 211.315 103.318 216.428 102.948C221.541 102.576 224.796 98.4946 225.55 97.5035C226.303 96.5148 228.309 97.38 228.431 98.7415C228.557 100.1 224.923 110.248 222.166 110.185C219.407 110.122 218.156 107.896 216.902 107.463C215.649 107.03 214.146 109.319 211.953 110.308C209.759 111.298 205.248 100.288 205.75 99.1747C206.251 98.0614 207.443 96.8246 208.507 98.9883Z" fill="white"/>
<path fill-rule="evenodd" clip-rule="evenodd" d="M191.081 58.0585L200.195 59.4099C200.195 59.4099 213.891 59.4099 217.229 59.4099C220.564 59.4099 233.203 59.3116 233.203 46.4076V37.5023L212.193 30.0994C212.193 30.0994 202.06 36.4016 201.633 37.2038C201.207 38.0035 190.54 45.6066 190.115 47.5084C189.689 49.4101 188.156 52.7173 188.835 53.6127C189.512 54.5044 191.081 58.0585 191.081 58.0585Z" fill="#682E1A"/>
<path fill-rule="evenodd" clip-rule="evenodd" d="M248.137 60.1202C242.513 59.76 232.245 57.6316 232.245 45.0966V34.7605L234.64 34.3903C237.035 36.559 241.656 40.836 241.656 41.6118C241.656 42.6571 247.618 55.2462 247.352 57.6404C247.271 58.3419 247.643 59.2109 248.137 60.1202Z" fill="#682E1A"/>
<path fill-rule="evenodd" clip-rule="evenodd" d="M229.133 102.637C229.133 102.637 238.638 124.641 241.547 134.518C244.458 144.397 242.574 143.754 238.979 143.354C235.382 142.952 227.593 106.491 226.649 104.564C225.707 102.636 228.278 101.673 229.133 102.637Z" fill="#F2A383"/>
<path fill-rule="evenodd" clip-rule="evenodd" d="M203.945 102.637C203.945 102.637 194.44 124.641 191.529 134.518C188.619 144.397 190.502 143.754 194.099 143.354C197.695 142.952 205.485 106.491 206.427 104.564C207.37 102.636 204.8 101.673 203.945 102.637Z" fill="#F2A383"/>
<path fill-rule="evenodd" clip-rule="evenodd" d="M220.993 88.5024H223.913C224.356 88.5024 224.721 88.8437 224.721 89.2618V90.763C224.721 91.1799 224.357 91.5237 223.913 91.5237H220.993C220.548 91.5237 220.185 91.1812 220.185 90.763V89.2618C220.185 88.8437 220.548 88.5024 220.993 88.5024Z" fill="#682E1A"/>
<path fill-rule="evenodd" clip-rule="evenodd" d="M208.566 90.1082H224.767C225.614 90.1082 226.308 90.7593 226.308 91.554V100.789C226.308 101.585 225.614 102.235 224.767 102.235H208.566C207.719 102.235 207.024 101.585 207.024 100.789V91.554C207.024 90.758 207.719 90.1082 208.566 90.1082Z" fill="#003C5C"/>
<path fill-rule="evenodd" clip-rule="evenodd" d="M201.68 63.1478C201.912 63.309 202.311 63.2914 202.608 63.2183C203.326 63.0407 203.811 62.8997 204.548 62.9564C204.865 62.9828 205.127 63.0408 205.445 63.1352C205.695 63.2095 206.14 63.3166 206.3 63.4677C206.539 63.6957 207.184 63.5357 207.106 63.2271C207.067 63.0748 207.1 62.9249 207.034 62.7725C206.957 62.5949 206.825 62.4438 206.655 62.304C206.25 61.9753 205.715 61.8002 205.109 61.6982C204.093 61.5244 202.619 61.5836 201.746 62.1189C201.41 62.3267 201.265 62.605 201.405 62.8922C201.461 63.0068 201.559 63.0659 201.68 63.1478Z" fill="#522313"/>
<path fill-rule="evenodd" clip-rule="evenodd" d="M225.099 63.5256C225.555 63.309 225.963 63.071 226.482 62.9249C226.935 62.8002 227.378 62.6856 227.83 62.639C228.256 62.5962 228.689 62.5735 229.11 62.6188C229.32 62.6415 229.509 62.6831 229.639 62.7234C229.917 62.809 229.833 62.8342 230.129 62.9904C230.852 63.3657 232.006 62.9501 231.542 62.2851C230.844 61.2889 228.924 61.1982 227.668 61.3619C227 61.4488 226.359 61.6302 225.834 61.9186C225.236 62.2498 224.58 62.6592 224.46 63.2309C224.41 63.479 224.833 63.6516 225.099 63.5256Z" fill="#522313"/>
<path fill-rule="evenodd" clip-rule="evenodd" d="M200.464 69.1426C200.57 69.1023 200.592 69.125 200.697 69.1225C200.748 69.1212 200.936 69.1351 201.068 69.1565C201.256 69.188 201.423 69.2106 201.613 69.222C201.671 69.0142 201.75 68.8127 201.857 68.6275C201.81 68.6137 201.762 68.5986 201.715 68.5797C201.488 68.494 201.291 68.3744 201.112 68.2182C200.975 68.0986 200.754 67.8505 200.822 67.6628C200.984 67.2132 201.434 67.6741 201.638 67.8391C201.846 68.0066 202.075 68.0822 202.314 68.1137C202.318 68.1112 202.32 68.1074 202.326 68.1049C203.535 67.2245 206.783 67.6326 208.585 69.1237C209.079 69.533 209.396 69.9096 209.348 70.2509C209.323 70.4146 208.863 70.4726 208.491 70.4046C207.24 70.1766 203.204 68.0494 202.28 70.4524C202.161 70.7559 201.496 70.2937 201.48 69.9272C201.284 69.9436 201.082 69.9323 200.893 69.9008C200.759 69.8794 200.626 69.8529 200.525 69.7635C200.528 69.7673 200.345 69.6111 200.345 69.6111C200.19 69.4361 200.235 69.227 200.464 69.1426Z" fill="#522313"/>
<path fill-rule="evenodd" clip-rule="evenodd" d="M232.187 69.1426C232.079 69.1023 232.057 69.125 231.953 69.1225C231.901 69.1212 231.714 69.1351 231.583 69.1565C231.395 69.188 231.224 69.2106 231.036 69.222C230.978 69.0142 230.901 68.8127 230.792 68.6275C230.84 68.6137 230.887 68.5986 230.935 68.5797C231.162 68.494 231.361 68.3744 231.54 68.2182C231.675 68.0986 231.897 67.8505 231.828 67.6628C231.666 67.2132 231.217 67.6741 231.012 67.8391C230.805 68.0066 230.577 68.0822 230.338 68.1137C230.333 68.1112 230.33 68.1074 230.326 68.1049C229.115 67.2245 225.867 67.6326 224.065 69.1237C223.573 69.533 223.254 69.9096 223.303 70.2509C223.327 70.4146 223.787 70.4726 224.158 70.4046C225.412 70.1766 229.447 68.0494 230.372 70.4524C230.491 70.7559 231.156 70.2937 231.172 69.9272C231.366 69.9436 231.569 69.9323 231.757 69.9008C231.891 69.8794 232.022 69.8529 232.124 69.7635C232.12 69.7673 232.302 69.6124 232.305 69.6111C232.461 69.4361 232.415 69.227 232.187 69.1426Z" fill="#522313"/>
<path fill-rule="evenodd" clip-rule="evenodd" d="M187.99 37.6383C187.99 37.6383 190.141 29.8249 191.504 23.0479C192.869 16.2723 198.363 14.9864 206.969 17.3314C215.577 19.6752 228.811 15.7799 232.113 14.4361C235.414 13.0935 243.035 19.8893 242.682 35.0842C242.682 35.0842 239.68 39.9922 238.4 39.7327C237.122 39.4758 187.99 37.6383 187.99 37.6383Z" fill="#F2971D"/>
<path fill-rule="evenodd" clip-rule="evenodd" d="M187.99 37.6383C187.99 37.6383 188.581 35.4872 189.342 32.4634C195.051 32.617 212.826 32.9885 223.088 32.0326C231.345 31.2631 237.937 30.2972 242.498 30.1158C242.654 31.6598 242.723 33.3147 242.683 35.0855C242.683 35.0855 239.681 39.9934 238.401 39.734C237.122 39.4758 187.99 37.6383 187.99 37.6383Z" fill="#D13831"/>
<path fill-rule="evenodd" clip-rule="evenodd" d="M195.171 36.2618C195.171 36.2618 189.38 36.1131 185.909 35.7945C182.436 35.4734 182.185 40.2755 184.933 41.8045C187.68 43.3334 198.377 42.0349 208.452 41.3057C218.528 40.5778 234.931 40.4833 240.983 41.7352C247.036 42.9858 249.234 39.768 248.23 36.1862C247.224 32.6044 235.092 34.6044 227.874 35.6484C220.655 36.6937 207.362 36.0716 195.171 36.2618Z" fill="#F2971D"/>
<path fill-rule="evenodd" clip-rule="evenodd" d="M203.261 106.691L203.025 104.787C203.025 104.787 203.346 102.034 203.432 99.7452C203.518 97.4556 203.903 96.9745 204.503 96.2503C204.503 96.2503 204.76 96.0891 205.209 96.0387C205.977 95.8498 206.536 95.4279 207.025 96.171C207.254 96.5161 206.619 97.0463 207.787 97.1533C208.452 97.2138 208.837 97.9568 209.094 98.5412C209.35 99.1218 210.294 99.283 210.527 99.7049C210.762 100.126 210.805 102.173 210.805 102.173C210.805 102.173 211.062 102.617 210.078 103.418C209.094 104.222 206.392 105.84 205.558 107.599L203.261 106.691Z" fill="#F2A383"/>
<path fill-rule="evenodd" clip-rule="evenodd" d="M212.849 100.566C215.339 100.566 217.371 98.6609 217.371 96.3246C217.371 93.9897 215.339 92.0842 212.849 92.0842C210.359 92.0842 208.327 93.9897 208.327 96.3246C208.327 98.6621 210.359 100.566 212.849 100.566Z" fill="white"/>
<path fill-rule="evenodd" clip-rule="evenodd" d="M212.849 99.3271C214.613 99.3271 216.05 97.9783 216.05 96.3246C216.05 94.671 214.613 93.3235 212.849 93.3235C211.086 93.3235 209.649 94.671 209.649 96.3246C209.649 97.9783 211.086 99.3271 212.849 99.3271Z" fill="#682E1A"/>
<path fill-rule="evenodd" clip-rule="evenodd" d="M211.804 96.2642C212.369 96.2642 212.829 95.8335 212.829 95.3045C212.829 94.7755 212.369 94.3423 211.804 94.3423C211.239 94.3423 210.778 94.7755 210.778 95.3045C210.778 95.8347 211.239 96.2642 211.804 96.2642Z" fill="white"/>
<path fill-rule="evenodd" clip-rule="evenodd" d="M213.421 96.4657C213.669 96.4657 213.873 96.2755 213.873 96.0413C213.873 95.8083 213.669 95.6168 213.421 95.6168C213.171 95.6168 212.967 95.8083 212.967 96.0413C212.967 96.2742 213.171 96.4657 213.421 96.4657Z" fill="white"/>
<path fill-rule="evenodd" clip-rule="evenodd" d="M220.694 91.054H224.21C224.656 91.054 225.021 91.3953 225.021 91.8134V93.3159C225.021 93.7328 224.657 94.0741 224.21 94.0741H220.694C220.249 94.0741 219.884 93.734 219.884 93.3159V91.8134C219.886 91.3953 220.249 91.054 220.694 91.054Z" fill="white"/>
<path fill-rule="evenodd" clip-rule="evenodd" d="M229.817 106.691L230.054 104.787C230.054 104.787 229.732 102.034 229.646 99.7452C229.56 97.4556 229.174 96.9745 228.575 96.2503C228.575 96.2503 228.318 96.0891 227.869 96.0388C227.869 96.0388 226.296 92.6988 225.954 92.1761C225.61 91.6547 224.628 91.2328 224.628 91.8751C224.628 92.5174 226.189 96.6143 226.189 96.6143C226.189 96.6143 225.954 97.0954 225.291 97.1559C224.628 97.2163 224.242 97.9594 223.984 98.5437C223.727 99.1243 222.784 99.2855 222.551 99.7074C222.316 100.128 222.271 102.176 222.271 102.176C222.271 102.176 222.015 102.619 223 103.42C223.984 104.225 226.687 105.842 227.52 107.601L229.817 106.691Z" fill="#F2A383"/>
<path fill-rule="evenodd" clip-rule="evenodd" d="M310.602 79.6046C310.581 79.6248 309.221 79.1323 309.193 79.1386C304.283 80.3426 298.585 97.4846 288.67 108.955C287.032 110.85 291.211 113.215 294.026 111.255C296.842 109.294 309.283 94.4733 310.555 92.1736C311.827 89.8727 316.143 76.9636 310.602 79.6046Z" fill="#F2A383"/>
<path fill-rule="evenodd" clip-rule="evenodd" d="M294.69 106.061C294.69 106.061 281.496 91.7996 278.389 85.0705C275.282 78.3414 274.592 85.4433 274.138 87.4886C274.083 87.7342 274.248 88.2543 274.584 88.9835C277.028 94.2655 287.63 109.931 288.946 111.072C290.443 112.367 296.325 108.191 294.69 106.061Z" fill="#F2A383"/>
<path fill-rule="evenodd" clip-rule="evenodd" d="M274.415 88.5943C274.415 88.5943 277.726 89.0188 278.226 86.0377C278.226 86.0377 277.045 83.9106 276.684 82.6751C276.32 81.4409 276.366 77.1815 274.277 75.7747C272.186 74.368 269.147 75.6034 268.329 79.7784C267.51 83.9521 272.097 87.0616 274.415 88.5943Z" fill="#F2A383"/>
<path fill-rule="evenodd" clip-rule="evenodd" d="M276.048 82.8464C276.048 82.5907 275.049 78.0744 277.001 76.4573C278.953 74.839 279.179 80.927 278.226 86.0377C278.226 86.0377 275.774 84.0806 276.048 82.8464Z" fill="#F2A383"/>
<path fill-rule="evenodd" clip-rule="evenodd" d="M353.681 83.1436C353.681 83.1436 357.271 90.2983 354.605 96.1634C351.941 102.027 340.536 97.1685 336.51 88.9948C332.485 80.8212 353.681 83.1436 353.681 83.1436Z" fill="#682E1A"/>
<path fill-rule="evenodd" clip-rule="evenodd" d="M354.318 61.8141C357.326 68.761 359.452 83.9395 349.462 87.2631C343.338 89.3021 334.226 88.8865 331.15 87.6334C325.408 85.2896 332.548 76.3377 329.464 69.0771C323.897 55.9628 354.318 61.8141 354.318 61.8141Z" fill="#682E1A"/>
<path fill-rule="evenodd" clip-rule="evenodd" d="M323.449 293.204C341.676 293.204 356.544 291.274 356.544 288.906C356.544 286.538 341.676 284.609 323.449 284.609C305.22 284.609 290.352 286.538 290.352 288.906C290.352 291.274 305.22 293.204 323.449 293.204Z" fill="#E5E1CF"/>
<path fill-rule="evenodd" clip-rule="evenodd" d="M360 37.8549C360 42.5601 360 40.2075 360 44.914C360 70.2774 336.835 81.3628 316.585 78.1739C276.551 71.8655 276.551 7.04579 316.585 0.738628C336.835 -2.45022 360 8.63519 360 33.9986V37.8549Z" fill="#682E1A"/>
<path fill-rule="evenodd" clip-rule="evenodd" d="M338.246 79.3061C346.323 81.1587 349.859 94.5438 355.073 108.469C357.926 116.095 358.972 115.459 357.166 121.657C354.174 131.907 348.014 146.321 346.508 147.423C345 148.525 343.319 148.47 343.754 146.272C344.189 144.073 350.297 129.039 352.046 118.437C351.799 117.822 350.599 114.562 349.524 112.255C348.448 109.95 337.574 90.1082 337.574 90.1082C337.574 90.1082 333.02 79.4207 338.246 79.3061Z" fill="#F2A383"/>
<path fill-rule="evenodd" clip-rule="evenodd" d="M331.651 279.002L329.373 274.188C329.373 274.188 329.747 265.357 329.288 259.648C328.829 253.937 327.137 184.998 327.235 181.253C327.332 177.511 343.052 182.145 343.052 182.145L341.167 185.334C341.167 185.334 334.625 268.675 335.037 274.329C335.445 279.984 331.651 279.002 331.651 279.002Z" fill="#F2A383"/>
<path fill-rule="evenodd" clip-rule="evenodd" d="M335.037 274.329C335.037 274.329 335.252 275.886 337.232 277.339C339.212 278.789 345.673 280.78 348.382 282.055C351.089 283.329 353.533 286.827 350.748 288.558C347.961 290.289 335.615 289.959 330.581 286.742C325.546 283.522 328.533 277.965 329.183 274.779C329.832 271.593 334.982 272.437 335.037 274.329Z" fill="#F2A383"/>
<path fill-rule="evenodd" clip-rule="evenodd" d="M346.658 281.325C347.316 281.585 347.907 281.831 348.381 282.055C351.088 283.329 353.531 286.827 350.747 288.558C347.959 290.289 335.614 289.959 330.579 286.742C327.168 284.562 327.437 281.308 328.169 278.445C328.422 281.314 337.036 284.948 343.147 284.456C349.252 283.965 346.666 281.336 346.658 281.325Z" fill="#D13831"/>
<path fill-rule="evenodd" clip-rule="evenodd" d="M314.84 279.002L317.119 274.188C317.119 274.188 316.744 265.357 317.203 259.648C317.662 253.937 319.353 185.397 319.259 181.653C319.162 177.91 303.436 182.145 303.436 182.145L305.322 185.334C305.322 185.334 311.869 268.675 311.455 274.329C311.046 279.984 314.84 279.002 314.84 279.002Z" fill="#F2A383"/>
<path fill-rule="evenodd" clip-rule="evenodd" d="M311.456 274.329C311.456 274.329 311.238 275.886 309.26 277.339C307.281 278.789 300.816 280.78 298.109 282.055C295.401 283.329 292.96 286.827 295.744 288.558C298.53 290.289 310.878 289.959 315.914 286.742C320.949 283.522 317.959 277.965 317.309 274.779C316.659 271.593 311.509 272.437 311.456 274.329Z" fill="#F2A383"/>
<path fill-rule="evenodd" clip-rule="evenodd" d="M299.833 281.325C299.173 281.585 298.583 281.831 298.109 282.055C295.401 283.329 292.96 286.827 295.744 288.558C298.53 290.289 310.878 289.959 315.914 286.742C319.323 284.562 319.053 281.308 318.321 278.445C318.069 281.314 309.456 284.948 303.34 284.456C297.239 283.965 299.825 281.336 299.833 281.325Z" fill="#D13831"/>
<path fill-rule="evenodd" clip-rule="evenodd" d="M314.747 78.8741C314.747 78.8741 312.183 78.8678 309.193 79.1386C310.808 85.1649 307.093 93.9078 307.093 93.9078C307.093 93.9078 306.642 100.122 307.88 101.945C304.499 121.592 294.562 148.443 296.083 165.532C297.501 181.464 296.359 180 297.258 182.717C298.143 185.386 331.186 187.276 344.169 184.271C347.859 183.416 347.735 181.348 348.719 173.386C348.887 172.022 349.082 170.441 349.302 168.616C351.838 147.704 342.825 124.086 339.018 101.945C340.253 100.122 339.804 93.9078 339.804 93.9078C339.804 93.9078 336.414 83.9055 338.247 79.3061C335.611 79.121 333.396 79.1877 333.396 79.1877L323.45 84.2783L314.747 78.8741Z" fill="#F2971D"/>
<path fill-rule="evenodd" clip-rule="evenodd" d="M307.094 93.9066C307.094 93.9066 306.643 96.9191 307.881 98.7427H339.018C340.253 96.9191 339.805 93.9066 339.805 93.9066H307.094Z" fill="#D13831"/>
<path fill-rule="evenodd" clip-rule="evenodd" d="M316.348 72.2622L316.4 73.999C316.4 73.999 316.474 78.7205 315.534 82.0693C314.593 85.4168 319.479 86.7669 323.171 86.7669C326.866 86.7669 331.248 85.4168 331.499 84.6536C331.749 83.8904 332.564 80.6575 332.564 80.6575C332.564 80.6575 330.684 74.14 330.872 71.0846C331.059 68.0331 316.348 72.2622 316.348 72.2622Z" fill="#E37E55"/>
<path fill-rule="evenodd" clip-rule="evenodd" d="M323.449 8.43619C337.987 8.43619 349.884 19.5946 349.884 33.2341V50.0423C349.884 63.6793 337.987 74.8377 323.449 74.8377C308.91 74.8377 297.014 63.6806 297.014 50.0423V33.2341C297.014 19.5946 308.91 8.43619 323.449 8.43619Z" fill="#F2A383"/>
<path fill-rule="evenodd" clip-rule="evenodd" d="M321.532 53.3873C321.642 53.5321 321.901 53.5019 321.912 53.3004C321.917 53.1102 321.985 52.8936 322 52.6934C322.022 52.4377 322.031 52.2022 322.273 52.041C322.834 51.6707 323.586 51.6279 324.111 51.2262C324.622 50.837 324.087 50.196 323.552 50.2703C323.159 50.3244 322.735 50.5612 322.388 50.7375C322.003 50.9315 321.704 51.1972 321.455 51.5322C321.251 51.813 321.166 52.1531 321.161 52.4881C321.156 52.6783 321.197 52.8533 321.271 53.0322C321.336 53.1858 321.438 53.2614 321.532 53.3873Z" fill="#522313"/>
<path fill-rule="evenodd" clip-rule="evenodd" d="M308.426 56.7374C311.364 56.7374 313.762 55.9351 313.762 54.9515C313.762 53.9704 311.362 53.1669 308.426 53.1669C305.49 53.1669 303.093 53.9704 303.093 54.9515C303.093 55.9351 305.488 56.7374 308.426 56.7374Z" fill="#E66655"/>
<path fill-rule="evenodd" clip-rule="evenodd" d="M338.468 56.7374C341.406 56.7374 343.802 55.9351 343.802 54.9515C343.802 53.9704 341.406 53.1669 338.468 53.1669C335.531 53.1669 333.137 53.9704 333.137 54.9515C333.138 55.9351 335.532 56.7374 338.468 56.7374Z" fill="#E66655"/>
<path fill-rule="evenodd" clip-rule="evenodd" d="M307.257 35.2127L295.45 29.7896L293.624 44.8208H297.013C297.013 39.5337 301.622 35.2127 307.257 35.2127Z" fill="#682E1A"/>
<path fill-rule="evenodd" clip-rule="evenodd" d="M316.085 59.7386C316.085 59.7386 329.981 59.1265 332.498 60.0358C335.018 60.9464 331.156 68.5066 322.677 67.9437C314.2 67.382 311.531 59.9464 316.085 59.7386Z" fill="white"/>
<path fill-rule="evenodd" clip-rule="evenodd" d="M316.626 78.956C316.626 78.956 317.977 84.3136 323.05 84.0277C328.119 83.7431 330.616 79.752 331.363 78.9951C332.108 78.2369 334.871 79.8426 334.994 80.8854C335.121 81.9282 331.371 88.7694 328.636 88.7228C325.903 88.6749 324.415 87.0994 323.171 86.7669C321.928 86.4345 320.682 88.0578 318.506 88.8173C316.329 89.5754 311.872 81.7104 312.367 80.8577C312.865 80.0051 315.569 77.2986 316.626 78.956Z" fill="#D13831"/>
<path fill-rule="evenodd" clip-rule="evenodd" d="M295.316 33.7165L305.387 35.2127C305.387 35.2127 320.525 35.2127 324.212 35.2127C327.896 35.2127 341.865 35.1056 341.865 20.8414V11.0004L318.644 2.81918C318.644 2.81918 307.447 9.78502 306.974 10.6679C306.503 11.552 294.716 19.9561 294.245 22.0568C293.773 24.1587 292.082 27.8136 292.831 28.801C293.581 29.7909 295.316 33.7165 295.316 33.7165Z" fill="#682E1A"/>
<path fill-rule="evenodd" clip-rule="evenodd" d="M358.368 35.9948C352.156 35.598 340.807 33.2467 340.807 19.3931V7.96895L343.453 7.56216C346.099 9.95632 351.204 14.6867 351.204 15.5418C351.204 16.698 357.793 30.6095 357.499 33.2543C357.411 34.0288 357.822 34.9923 358.368 35.9948Z" fill="#682E1A"/>
<path fill-rule="evenodd" clip-rule="evenodd" d="M349.176 135.456L347.419 135.54C347.419 135.54 347.38 134.344 346.144 133.925C346.144 133.925 347.308 138.306 343.577 139.208C339.843 140.108 341.283 141.309 342.402 141.909C343.522 142.51 343.019 143.714 343.522 144.51C344.028 145.307 345.069 145.059 345.337 146.261C345.605 147.461 345.817 147.912 346.565 148.262C347.31 148.612 349.549 146.813 349.816 144.661C350.084 142.51 351.693 136.974 349.176 135.456Z" fill="#F2A383"/>
<path fill-rule="evenodd" clip-rule="evenodd" d="M307.903 39.6811C308.152 39.8524 308.573 39.8309 308.889 39.7566C309.653 39.569 310.165 39.4179 310.948 39.4783C311.285 39.5048 311.563 39.5665 311.899 39.666C312.163 39.7441 312.639 39.8574 312.806 40.0186C313.06 40.2592 313.745 40.0891 313.664 39.7629C313.62 39.6005 313.656 39.4418 313.585 39.2793C313.503 39.0917 313.365 38.9305 313.184 38.7818C312.757 38.4342 312.185 38.2466 311.542 38.1383C310.464 37.9544 308.898 38.0161 307.973 38.5854C307.614 38.8045 307.461 39.1005 307.609 39.404C307.671 39.5312 307.777 39.5917 307.903 39.6811Z" fill="#522313"/>
<path fill-rule="evenodd" clip-rule="evenodd" d="M332.763 40.0816C333.245 39.8511 333.678 39.5967 334.229 39.4443C334.711 39.3121 335.183 39.1886 335.66 39.1421C336.114 39.0967 336.573 39.0715 337.019 39.1194C337.242 39.1446 337.443 39.1886 337.58 39.2302C337.877 39.3209 337.784 39.3498 338.102 39.5148C338.867 39.9115 340.092 39.472 339.599 38.7667C338.859 37.7088 336.823 37.6118 335.489 37.7856C334.782 37.8776 334.1 38.0728 333.541 38.3776C332.904 38.7289 332.209 39.1647 332.083 39.7692C332.028 40.0312 332.479 40.2138 332.763 40.0816Z" fill="#522313"/>
<path fill-rule="evenodd" clip-rule="evenodd" d="M306.611 46.0411C306.725 45.9983 306.748 46.0235 306.86 46.0222C306.915 46.021 307.113 46.0348 307.254 46.0575C307.453 46.0902 307.63 46.1142 307.832 46.1255C307.896 45.9064 307.977 45.6935 308.092 45.4958C308.041 45.4819 307.99 45.4656 307.941 45.4454C307.699 45.3547 307.489 45.2275 307.3 45.0613C307.158 44.9354 306.921 44.6721 306.993 44.4719C307.166 43.9933 307.642 44.4832 307.86 44.6583C308.082 44.8359 308.325 44.9165 308.577 44.9492C308.581 44.9442 308.585 44.9417 308.589 44.9391C309.874 44.0034 313.322 44.4392 315.234 46.0197C315.756 46.4542 316.097 46.8534 316.045 47.2149C316.018 47.3887 315.528 47.4504 315.137 47.3786C313.808 47.1356 309.525 44.88 308.541 47.429C308.416 47.7527 307.71 47.2602 307.692 46.8723C307.485 46.89 307.271 46.8774 307.069 46.8459C306.93 46.8207 306.789 46.793 306.68 46.6985C306.683 46.7023 306.491 46.5373 306.488 46.5348C306.321 46.3535 306.371 46.1318 306.611 46.0411Z" fill="#522313"/>
<path fill-rule="evenodd" clip-rule="evenodd" d="M340.284 46.0411C340.171 45.9983 340.146 46.0235 340.034 46.0222C339.979 46.021 339.782 46.0348 339.641 46.0575C339.442 46.0902 339.264 46.1142 339.061 46.1255C339.001 45.9064 338.917 45.6935 338.802 45.4958C338.854 45.4819 338.904 45.4656 338.954 45.4454C339.195 45.3547 339.405 45.2275 339.597 45.0613C339.738 44.9354 339.974 44.6721 339.902 44.4719C339.728 43.9933 339.254 44.4832 339.035 44.6583C338.813 44.8359 338.574 44.9165 338.32 44.9492C338.315 44.9442 338.312 44.9417 338.306 44.9391C337.022 44.0034 333.576 44.4392 331.665 46.0197C331.14 46.4542 330.801 46.8534 330.852 47.2149C330.879 47.3887 331.369 47.4504 331.763 47.3786C333.092 47.1356 337.375 44.88 338.355 47.429C338.481 47.7527 339.189 47.2602 339.205 46.8723C339.411 46.89 339.626 46.8774 339.826 46.8459C339.967 46.8207 340.11 46.793 340.217 46.6985C340.214 46.7023 340.406 46.5373 340.409 46.5348C340.573 46.3535 340.526 46.1318 340.284 46.0411Z" fill="#522313"/>
<path fill-rule="evenodd" clip-rule="evenodd" d="M309.392 33.2102C312.637 33.2102 315.578 34.4444 317.704 36.4393C319.831 38.4342 321.148 41.1911 321.148 44.2364C321.148 47.2804 319.831 50.0373 317.704 52.0322C315.578 54.0271 312.639 55.2613 309.392 55.2613C306.147 55.2613 303.208 54.0271 301.082 52.0322C298.955 50.0373 297.638 47.2804 297.638 44.2364C297.638 41.1911 298.955 38.4342 301.082 36.4393C303.207 34.4444 306.147 33.2102 309.392 33.2102ZM316.534 37.5363C314.706 35.8197 312.181 34.7593 309.391 34.7593C306.601 34.7593 304.076 35.8197 302.247 37.5363C300.42 39.2491 299.289 41.6193 299.289 44.2364C299.289 46.8509 300.42 49.2212 302.247 50.9352C304.076 52.6518 306.601 53.7123 309.391 53.7123C312.181 53.7123 314.705 52.6518 316.534 50.9352C318.361 49.2212 319.494 46.8509 319.494 44.2364C319.494 41.6206 318.362 39.2504 316.534 37.5363Z" fill="#522313"/>
<path fill-rule="evenodd" clip-rule="evenodd" d="M336.713 33.2102C339.956 33.2102 342.895 34.4444 345.022 36.4393C347.149 38.4342 348.465 41.1911 348.465 44.2364C348.465 47.2804 347.149 50.0373 345.022 52.0322C342.895 54.0271 339.956 55.2613 336.713 55.2613C333.466 55.2613 330.527 54.0271 328.4 52.0322C326.274 50.0373 324.958 47.2804 324.958 44.2364C324.958 41.1911 326.274 38.4342 328.4 36.4393C330.526 34.4444 333.466 33.2102 336.713 33.2102ZM343.855 37.5363C342.025 35.8197 339.5 34.7593 336.713 34.7593C333.923 34.7593 331.395 35.8197 329.57 37.5363C327.74 39.2491 326.609 41.6193 326.609 44.2364C326.609 46.8509 327.74 49.2212 329.57 50.9352C331.395 52.6518 333.923 53.7123 336.713 53.7123C339.5 53.7123 342.025 52.6518 343.855 50.9352C345.683 49.2212 346.813 46.8509 346.813 44.2364C346.813 41.6206 345.683 39.2504 343.855 37.5363Z" fill="#522313"/>
<path fill-rule="evenodd" clip-rule="evenodd" d="M298.727 43.5047C299.158 43.6407 299.389 44.0802 299.243 44.4845C299.098 44.8888 298.628 45.1066 298.197 44.9694C298.17 44.9593 297.144 41.0135 294.669 40.5073C294.223 40.4191 293.938 40.0073 294.035 39.5891C294.132 39.171 294.571 38.904 295.015 38.9934C297.567 39.5161 298.699 43.4946 298.727 43.5047Z" fill="#522313"/>
<path fill-rule="evenodd" clip-rule="evenodd" d="M347.907 44.9694C347.475 45.1067 347.005 44.8888 346.861 44.4845C346.715 44.0802 346.946 43.6407 347.376 43.5047C347.405 43.4946 349.332 39.472 351.88 38.9519C352.326 38.8625 352.766 39.1282 352.863 39.5463C352.957 39.9632 352.674 40.375 352.228 40.4657C349.751 40.9707 347.933 44.9593 347.907 44.9694Z" fill="#522313"/>
<path fill-rule="evenodd" clip-rule="evenodd" d="M325.783 43.4619C326.239 43.4619 326.608 43.8082 326.608 44.2377C326.608 44.6646 326.239 45.0109 325.783 45.0109H320.321C319.864 45.0109 319.495 44.6646 319.495 44.2377C319.495 43.8082 319.864 43.4619 320.321 43.4619H325.783Z" fill="#522313"/>
</svg>
