<svg width="529" height="319" viewBox="0 0 529 319" fill="none" xmlns="http://www.w3.org/2000/svg">
<path d="M434.416 254.394C430.27 254.888 408.825 263.224 405.348 264.439L405.351 264.432C405.3 264.451 405.25 264.467 405.2 264.487C405.063 264.535 404.928 264.585 404.791 264.634C384.07 272.349 374.554 270.901 366.407 268.291C344.406 261.241 318.437 204.708 282.805 210.583C267.69 213.075 268.453 242.643 258.976 249.537C258.979 249.53 258.989 249.506 258.989 249.506C258.923 249.565 258.857 249.613 258.791 249.671C257.431 250.666 256.106 251.678 254.854 252.721C236.32 265.343 217.858 248.889 212.557 245.162C212.168 244.867 211.762 242.527 211.367 242.235C211.154 242.07 211.036 241.974 211.036 241.974L211.035 241.994C187.813 224.916 134.578 206.967 98.9713 211.214C37.7906 218.511 29.4668 291.561 29.4668 291.561H228.849H245.121H371.876H399.844H486.648C479.507 274.441 468.593 250.318 434.416 254.394Z" fill="#F2C8AA"/>
<path d="M526.494 165.35L494.253 165.395C492.867 165.397 491.742 164.271 491.74 162.88C491.738 161.49 492.859 160.361 494.245 160.359L526.487 160.314C527.873 160.312 528.998 161.438 529 162.829C529.002 164.219 527.88 165.348 526.494 165.35Z" fill="#FFF8F3"/>
<path d="M144 26.4134L81.4643 26.459C80.0783 26.4606 78.9536 25.3351 78.9512 23.9443C78.9496 22.5535 80.0711 21.4248 81.4571 21.4224L143.993 21.3777C145.379 21.3761 146.503 22.5015 146.506 23.8924C146.507 25.2824 145.386 26.4118 144 26.4134Z" fill="#FFF8F3"/>
<path d="M484.452 70.4362L480.473 70.4418C479.427 70.4434 478.579 69.5937 478.578 68.545L478.572 64.797C478.57 63.7475 479.417 62.8962 480.462 62.8946L484.441 62.889C485.487 62.8874 486.335 63.7371 486.337 64.7858L486.342 68.5338C486.344 69.5833 485.497 70.4346 484.452 70.4362Z" fill="#FFF8F3"/>
<path d="M9.35418 199.143L5.37546 199.148C4.32961 199.15 3.48129 198.3 3.4797 197.251L3.47412 193.503C3.47253 192.454 4.31925 191.603 5.36431 191.601L9.34303 191.595C10.3889 191.594 11.2372 192.443 11.2388 193.492L11.2444 197.24C11.246 198.289 10.4 199.141 9.35418 199.143Z" fill="#FFF8F3"/>
<path d="M395.847 57.3305C411.567 57.3305 424.311 44.5424 424.311 28.7674C424.311 12.9925 411.567 0.204346 395.847 0.204346C380.127 0.204346 367.384 12.9925 367.384 28.7674C367.384 44.5424 380.127 57.3305 395.847 57.3305Z" fill="#F2C8AA"/>
<path d="M467.07 125.383H446.607C443.875 125.383 441.662 123.16 441.662 120.42C441.662 117.679 443.876 115.456 446.607 115.456H467.07C469.802 115.456 472.016 117.678 472.016 120.42C472.017 123.16 469.803 125.383 467.07 125.383Z" fill="#FF9C39"/>
<path d="M452.677 120.432C452.679 121.133 452.115 121.704 451.415 121.706C450.717 121.709 450.148 121.142 450.146 120.44C450.143 119.739 450.708 119.169 451.407 119.166C452.106 119.165 452.675 119.731 452.677 120.432Z" fill="white"/>
<path d="M458.104 120.416C458.107 121.117 457.542 121.687 456.843 121.69C456.144 121.692 455.575 121.125 455.573 120.424C455.571 119.722 456.135 119.152 456.835 119.15C457.534 119.148 458.103 119.715 458.104 120.416Z" fill="white"/>
<path d="M463.533 120.399C463.535 121.101 462.971 121.67 462.271 121.673C461.573 121.675 461.004 121.109 461.001 120.407C460.999 119.706 461.564 119.135 462.263 119.133C462.963 119.13 463.531 119.697 463.533 120.399Z" fill="white"/>
<path d="M84.1705 137.431H38.5216C35.9496 137.431 33.8643 135.338 33.8643 132.757V92.6262C33.8643 90.0452 35.9496 87.9526 38.5216 87.9526H84.1705C86.7426 87.9526 88.8279 90.0452 88.8279 92.6262V132.757C88.8279 135.338 86.7434 137.431 84.1705 137.431Z" fill="white"/>
<path d="M61.3467 131.5L75.4741 144.872C76.1783 145.539 77.3364 145.038 77.3364 144.067V127.464L61.3467 131.5Z" fill="white"/>
<path d="M43.4343 97.1034C48.4711 92.049 48.4711 83.8542 43.4343 78.7998C38.3976 73.7455 30.2313 73.7455 25.1946 78.7998C20.1578 83.8542 20.1578 92.049 25.1946 97.1034C30.2313 102.158 38.3976 102.158 43.4343 97.1034Z" fill="#FF9C39"/>
<path d="M28.5776 88.6008L33.4063 92.1402L39.1501 84.8192" stroke="white" stroke-width="2.7928" stroke-miterlimit="10" stroke-linecap="round" stroke-linejoin="round"/>
<path d="M72.8663 109.603L70.9562 109.267C70.7323 108.432 70.401 107.63 69.9709 106.881L71.0844 105.288C71.4938 104.702 71.4245 103.906 70.9203 103.401L69.7765 102.253C69.2651 101.757 68.4726 101.7 67.8967 102.119L66.3092 103.236C65.5628 102.804 64.7631 102.472 63.9299 102.248L63.6017 100.288C63.4822 99.5924 62.8872 99.08 62.1839 99.0672H60.535C59.8205 99.0656 59.2088 99.5812 59.0869 100.288L58.7524 102.199C57.92 102.424 57.1203 102.756 56.3739 103.188L54.792 102.119C54.2089 101.708 53.4156 101.778 52.9122 102.284L51.7683 103.432C51.2641 103.937 51.1948 104.733 51.6042 105.318L52.7178 106.911C52.2869 107.66 51.9555 108.462 51.7325 109.298L49.828 109.633C49.1238 109.756 48.61 110.37 48.6108 111.087V112.711C48.6093 113.428 49.123 114.042 49.828 114.164L51.7325 114.5C51.9555 115.335 52.2869 116.138 52.7178 116.887L51.6042 118.48C51.1948 119.065 51.2641 119.861 51.7683 120.366L52.9122 121.514C53.4156 122.02 54.2089 122.089 54.792 121.679L56.3795 120.561C57.1259 120.993 57.9256 121.326 58.758 121.55L59.0925 123.461C59.2144 124.168 59.8261 124.683 60.5406 124.682H62.1831C62.8976 124.684 63.5093 124.168 63.6312 123.461L63.9657 121.55C64.7981 121.326 65.5978 120.993 66.3442 120.561L67.8959 121.654C68.4789 122.065 69.2723 121.995 69.7757 121.489L70.9195 120.341C71.4237 119.836 71.493 119.04 71.0836 118.455L69.9701 116.849C70.401 116.1 70.7323 115.297 70.9554 114.462L72.8655 114.126C73.5696 114.004 74.0842 113.39 74.0826 112.673V111.049C74.0818 110.335 73.568 109.725 72.8663 109.603ZM61.3435 116.245C58.9308 116.245 56.9753 114.283 56.9753 111.862C56.9753 109.441 58.9308 107.479 61.3435 107.479C63.7563 107.479 65.7118 109.441 65.7118 111.862C65.7118 111.87 65.7118 111.878 65.7118 111.887C65.6982 114.298 63.7467 116.245 61.3435 116.245Z" fill="#100C25"/>
<path d="M156.507 282.579C156.507 287.539 160.514 291.56 165.456 291.56H342.845C347.787 291.56 351.794 287.539 351.794 282.579V121.915H156.506V282.579H156.507Z" fill="#100C25"/>
<path d="M342.869 71.0157H165.481C160.538 71.0157 156.532 75.0363 156.532 79.9962V121.965H351.819V79.9962C351.819 75.0363 347.812 71.0157 342.869 71.0157Z" fill="#100C25"/>
<path d="M142.461 282.579C142.461 287.539 146.467 291.56 151.41 291.56H328.799C333.741 291.56 337.748 287.539 337.748 282.579V121.915H142.46V282.579H142.461Z" fill="white"/>
<path d="M328.799 70.9662H151.41C146.468 70.9662 142.461 74.9868 142.461 79.9466V121.916H337.749V79.9466C337.749 74.9868 333.742 70.9662 328.799 70.9662Z" fill="#FF9C39"/>
<path d="M196.707 107.988C202.382 107.988 206.983 103.372 206.983 97.6772C206.983 91.9824 202.382 87.3659 196.707 87.3659C191.033 87.3659 186.432 91.9824 186.432 97.6772C186.432 103.372 191.033 107.988 196.707 107.988Z" fill="#100C25"/>
<path d="M194.537 92.1571C191.585 92.1571 189.193 89.7559 189.193 86.7944V64.3734C189.193 61.7795 190.935 59.3976 193.472 58.9028C196.883 58.2377 199.882 60.8555 199.882 64.1623V70.9662H208.928V64.6723C208.928 56.9876 203.162 50.2677 195.522 49.7537C187.143 49.191 180.146 55.8717 180.146 64.1623V86.326C180.146 93.8588 185.699 100.477 193.174 101.171C193.974 101.245 194.762 101.253 195.533 101.2C201.229 100.807 200.758 92.1563 195.048 92.1563H194.537V92.1571Z" fill="white"/>
<path d="M278.642 107.988C284.317 107.988 288.917 103.372 288.917 97.6772C288.917 91.9824 284.317 87.3659 278.642 87.3659C272.967 87.3659 268.366 91.9824 268.366 97.6772C268.366 103.372 272.967 107.988 278.642 107.988Z" fill="#100C25"/>
<path d="M276.47 92.1571C273.518 92.1571 271.126 89.7559 271.126 86.7944V64.3734C271.126 61.7795 272.868 59.3976 275.405 58.9028C278.817 58.2377 281.815 60.8555 281.815 64.1623V70.9662H290.861V64.6723C290.861 56.9876 285.096 50.2677 277.456 49.7537C269.077 49.191 262.08 55.8717 262.08 64.1623V86.326C262.08 93.8588 267.633 100.477 275.107 101.171C275.907 101.245 276.696 101.253 277.467 101.2C283.163 100.807 282.691 92.1563 276.982 92.1563H276.47V92.1571Z" fill="white"/>
<path d="M201.01 146.219H171.798V175.532H201.01V146.219Z" fill="#FFDEC2"/>
<path d="M201.01 189.372H171.798V218.686H201.01V189.372Z" fill="#FFDEC2"/>
<path d="M201.01 232.527H171.798V261.841H201.01V232.527Z" fill="#FFDEC2"/>
<path d="M250.571 146.219H221.36V175.532H250.571V146.219Z" fill="#FF9C39"/>
<path d="M250.571 189.372H221.36V218.686H250.571V189.372Z" fill="#FFDEC2"/>
<path d="M250.571 232.527H221.36V261.841H250.571V232.527Z" fill="#FFDEC2"/>
<path d="M300.132 146.219H270.921V175.532H300.132V146.219Z" fill="#FF9C39"/>
<path d="M300.132 189.372H270.921V218.686H300.132V189.372Z" fill="#FF9C39"/>
<path d="M300.132 232.527H270.921V261.841H300.132V232.527Z" fill="#FFDEC2"/>
<path d="M134.082 151.365H114.365V164.394H134.082V151.365Z" fill="#FF9C39"/>
<path d="M142.437 146.798H106.011V154.744H142.437V146.798Z" fill="#100C25"/>
<path d="M170.429 272.256C196.076 246.518 196.076 204.789 170.429 179.052C144.781 153.314 103.197 153.314 77.5491 179.052C51.9011 204.789 51.9011 246.518 77.5491 272.256C103.197 297.993 144.781 297.993 170.429 272.256Z" fill="#100C25"/>
<path d="M176.535 237.926C183.286 208.809 165.236 179.713 136.221 172.939C107.205 166.165 78.2106 184.278 71.4601 213.395C64.7096 242.512 82.7592 271.608 111.775 278.382C140.791 285.156 169.785 267.043 176.535 237.926Z" fill="white"/>
<path d="M93.5228 196.499C93.1755 196.499 92.8282 196.367 92.563 196.1L90.3104 193.84C89.7807 193.308 89.7807 192.445 90.3104 191.914C90.8409 191.382 91.6987 191.382 92.2292 191.914L94.4818 194.175C95.0115 194.706 95.0115 195.57 94.4818 196.1C94.2174 196.367 93.8701 196.499 93.5228 196.499Z" fill="#F2C8AA"/>
<path d="M157.25 260.449C156.903 260.449 156.555 260.316 156.29 260.05L154.037 257.79C153.508 257.258 153.508 256.396 154.037 255.864C154.568 255.332 155.426 255.332 155.956 255.864L158.209 258.125C158.739 258.656 158.739 259.519 158.209 260.05C157.944 260.316 157.597 260.449 157.25 260.449Z" fill="#F2C8AA"/>
<path d="M91.2702 260.449C90.9229 260.449 90.5756 260.316 90.3104 260.05C89.7807 259.519 89.7807 258.656 90.3104 258.125L92.563 255.864C93.0935 255.332 93.9513 255.332 94.4818 255.864C95.0115 256.396 95.0115 257.258 94.4818 257.79L92.2292 260.05C91.9648 260.316 91.6175 260.449 91.2702 260.449Z" fill="#F2C8AA"/>
<path d="M154.997 196.499C154.65 196.499 154.303 196.367 154.037 196.1C153.508 195.569 153.508 194.706 154.037 194.175L156.29 191.914C156.821 191.382 157.678 191.382 158.209 191.914C158.739 192.446 158.739 193.309 158.209 193.84L155.956 196.1C155.691 196.367 155.344 196.499 154.997 196.499Z" fill="#F2C8AA"/>
<path d="M124.215 183.453C125.93 183.453 127.32 182.058 127.32 180.337C127.32 178.616 125.93 177.221 124.215 177.221C122.5 177.221 121.11 178.616 121.11 180.337C121.11 182.058 122.5 183.453 124.215 183.453Z" fill="#100C25"/>
<path d="M124.215 274.117C125.93 274.117 127.32 272.722 127.32 271.001C127.32 269.28 125.93 267.885 124.215 267.885C122.5 267.885 121.11 269.28 121.11 271.001C121.11 272.722 122.5 274.117 124.215 274.117Z" fill="#100C25"/>
<path d="M79.0419 222.552C80.7569 222.552 82.1468 223.947 82.1468 225.668C82.1468 227.389 80.7569 228.784 79.0419 228.784C77.327 228.784 75.937 227.389 75.937 225.668C75.9362 223.948 77.327 222.552 79.0419 222.552Z" fill="#100C25"/>
<path d="M169.39 222.552C171.105 222.552 172.494 223.947 172.494 225.668C172.494 227.389 171.105 228.784 169.39 228.784C167.675 228.784 166.285 227.389 166.285 225.668C166.284 223.948 167.675 222.552 169.39 222.552Z" fill="#100C25"/>
<path d="M143.513 197.578L121.344 223.651C120.663 224.349 120.265 225.318 120.347 226.368C120.498 228.298 122.179 229.738 124.102 229.586C125.556 229.471 126.73 228.476 127.15 227.164L144.285 198.131C144.583 197.629 143.891 197.133 143.513 197.578Z" fill="#FF9C39"/>
<path d="M394.194 272.247L402.297 239.529L382.908 236.54L373.394 272.247H394.194Z" fill="#F8959D"/>
<path d="M394.194 272.247H373.394L370.328 277.157C370.328 277.157 359.32 277.807 359.752 291.019H393.316L394.194 272.247Z" fill="white"/>
<path d="M359.036 291.019H394.479V287.209H359.036V291.019Z" fill="#ACA9D6"/>
<path d="M370.328 277.157C370.328 277.157 376.757 276.179 378.887 279.467" stroke="#100C25" stroke-width="0.7747" stroke-miterlimit="10" stroke-linecap="round" stroke-linejoin="round"/>
<path d="M426.202 179.151L398.699 261.571L373.025 260.964L394.808 179.357L426.202 179.151Z" fill="#100C25"/>
<path d="M403.529 253.032L400.75 263.25L370.236 263.369L372.85 253.032H403.529Z" fill="#262B60"/>
<path d="M471.783 204.146L437.521 207.987L447.496 227.176L479.251 223.686L471.783 204.146Z" fill="#F8959D"/>
<path d="M471.783 204.146L479.251 223.686L484.9 224.883C484.9 224.883 489.302 235.028 501.512 230.066L489.942 198.45L471.783 204.146Z" fill="white"/>
<path d="M501.739 230.732L489.521 197.344L485.959 198.657L498.176 232.044L501.739 230.732Z" fill="#ACA9D6"/>
<path d="M484.9 224.882C484.9 224.882 481.998 220.361 484.9 215.661" stroke="#100C25" stroke-width="0.7747" stroke-miterlimit="10" stroke-linecap="round" stroke-linejoin="round"/>
<path d="M460.225 202.668L432.709 204.398L425.222 175.292L396.865 176.555L403.598 203.045L407.06 216.755C409.604 226.826 419.309 233.35 429.558 231.876L468.508 227.063L460.225 202.668Z" fill="#191B4B"/>
<path d="M450.778 201.836L461.295 200.932L471.72 228.86L461.148 229.961L450.778 201.836Z" fill="#262B60"/>
<path d="M389.979 110.821C389.979 110.821 385.912 115.249 392.022 119.608L389.979 110.821Z" fill="#100C25"/>
<path d="M395.697 119.398C396.17 121.582 394.845 123.731 392.74 124.2C390.635 124.668 388.544 123.278 388.072 121.094C387.6 118.911 388.924 116.761 391.03 116.293C393.136 115.824 395.226 117.214 395.697 119.398Z" fill="#E57885"/>
<path d="M399.159 128.524L400.572 138.085C401.062 141.443 403.32 142.937 406.505 142.43C409.223 141.997 412.019 140.226 411.462 137.285L408.539 122.346L399.159 128.524Z" fill="#F8959D"/>
<path d="M400.223 135.867C400.223 135.867 407.027 132.24 409.048 124.392C409.771 121.588 398.995 127.546 398.995 127.546L400.223 135.867Z" fill="#100C25"/>
<path d="M402.43 130.883C396.991 131.705 391.845 127.93 391.006 123.35L389.302 113.759C388.25 108.018 391.78 102.492 397.28 101.268C402.911 100.015 409.486 103.513 410.749 109.351L411.987 116.841C413.109 123.584 408.871 129.45 402.43 130.883Z" fill="#F8959D"/>
<path d="M400.685 111.847C400.685 111.847 397.662 111.848 397.716 112.72C397.716 112.72 397.769 113.309 399.58 113.268C401.391 113.227 402.792 113.054 402.908 112.485C403.024 111.919 401.653 111.768 400.685 111.847Z" fill="#100C25"/>
<path d="M392.204 113.148C392.204 113.148 389.65 113.74 389.897 114.577C389.897 114.577 389.686 115.226 391.442 114.781C393.199 114.337 394.039 113.987 394.026 113.407C394.015 112.827 393.13 112.854 392.204 113.148Z" fill="#100C25"/>
<path d="M400.26 122.393C400.296 122.547 399.52 123.905 397.631 123.823" stroke="#100C25" stroke-width="0.7747" stroke-miterlimit="10" stroke-linecap="round" stroke-linejoin="round"/>
<path d="M393.628 118.109C393.714 118.604 393.385 119.075 392.892 119.162C392.399 119.249 391.929 118.918 391.842 118.423C391.756 117.928 392.085 117.457 392.578 117.37C393.072 117.283 393.542 117.614 393.628 118.109Z" fill="#100C25"/>
<path d="M402.018 116.903C402.146 117.388 401.859 117.887 401.374 118.015C400.891 118.144 400.394 117.855 400.266 117.369C400.137 116.884 400.425 116.385 400.909 116.257C401.394 116.128 401.89 116.417 402.018 116.903Z" fill="#100C25"/>
<path d="M395.472 119.618L395.313 121.343C395.245 121.515 395.315 121.709 395.475 121.799L396.319 122.064" stroke="#100C25" stroke-width="0.7716" stroke-miterlimit="10" stroke-linecap="round" stroke-linejoin="round"/>
<path d="M410.142 115.913C410.142 115.913 404.94 112.549 406.11 107.767L390.334 110.645L391.03 100.809L407.046 99.1847C409.611 98.6236 413.39 99.8881 413.44 103.991L413.873 113.673L410.142 115.913Z" fill="#100C25"/>
<path d="M395.572 100.909C397.267 104.187 395.995 108.224 392.728 109.926C389.461 111.628 385.438 110.35 383.742 107.072C382.046 103.794 383.319 99.7571 386.586 98.0553C389.852 96.3535 393.876 97.6308 395.572 100.909Z" fill="#100C25"/>
<path d="M401.17 100.426C402.306 102.622 401.453 105.327 399.264 106.467C397.076 107.608 394.381 106.752 393.244 104.555C392.107 102.36 392.961 99.6548 395.149 98.5142C397.338 97.3735 400.033 98.2296 401.17 100.426Z" fill="#100C25"/>
<path d="M416.959 115.906C417.426 118.068 416.115 120.197 414.03 120.66C411.945 121.124 409.875 119.747 409.408 117.585C408.94 115.423 410.251 113.294 412.336 112.831C414.422 112.367 416.491 113.744 416.959 115.906Z" fill="#F8959D"/>
<path d="M412.098 117.973C412.098 117.973 411.484 115.134 414.199 114.999" stroke="#100C25" stroke-width="0.7716" stroke-miterlimit="10" stroke-linecap="round" stroke-linejoin="round"/>
<path d="M351.093 150.117C350.233 149.191 348.698 147.783 347.531 148.073C345.942 148.469 345.308 150.028 346.162 151.44L346.862 152.596C345.3 153.195 342.08 153.347 336.186 147.373C335.194 146.368 333.564 146.131 332.545 146.842C331.75 147.398 331.562 148.369 331.99 149.246C332.01 149.287 332.039 149.326 332.062 149.366C331.241 149.097 330.347 149.162 329.699 149.616C328.904 150.171 328.716 151.142 329.144 152.02C329.201 152.136 329.27 152.249 329.348 152.36C328.944 152.401 328.56 152.52 328.238 152.745C327.442 153.301 327.254 154.272 327.683 155.149C327.803 155.395 327.972 155.633 328.188 155.853C328.266 155.931 328.343 156.002 328.421 156.079C328.386 156.101 328.346 156.115 328.313 156.138C327.517 156.694 327.329 157.665 327.757 158.543C327.878 158.788 328.047 159.026 328.262 159.246C329.89 160.896 331.502 162.265 333.085 163.367L333.081 163.37C333.081 163.37 333.112 163.39 333.156 163.418C333.904 163.936 334.644 164.386 335.377 164.778C338.783 166.764 346.073 165.099 352.342 166.113L357.234 156.848L351.093 150.117Z" fill="#F8959D"/>
<path d="M337.703 169.987L349.535 142.861L322.504 130.988L310.671 158.113L337.703 169.987Z" fill="#FFDEC2"/>
<path d="M351.093 150.117L346.327 144.543C345.555 143.639 344.161 143.638 343.386 144.539C342.872 145.137 342.769 145.988 343.125 146.692L345.526 151.441C345.526 151.441 343.473 157.901 348.363 163.501L351.093 150.117Z" fill="#F8959D"/>
<path d="M388.052 162.041L355.16 151.622L349.435 168.583L380.921 179.44C386.392 182.005 392.82 178.791 394.073 172.862C395.048 168.251 392.475 163.628 388.052 162.041Z" fill="white"/>
<path d="M398.335 144.007L376.67 163.411C373.272 167.533 373.629 173.591 377.489 177.281C381.537 181.151 388.22 181.002 392.092 176.955L415.121 159.025C418.822 155.158 419.302 149.214 416.271 144.798C412.034 138.628 403.094 138.234 398.335 144.007Z" fill="white"/>
<path d="M416.259 134.177C416.259 134.177 429.921 149.477 430.32 187.464C430.32 187.464 410.566 192.985 390.668 186.841L396.928 141.467C396.928 141.467 405.367 133.149 416.259 134.177Z" fill="white"/>
<path d="M396.15 145.964L392.091 176.956" stroke="#100C25" stroke-width="0.7747" stroke-miterlimit="10" stroke-linecap="round" stroke-linejoin="round"/>
<path d="M408.32 195.42C408.32 195.42 403.877 194.574 405.95 189.783C408.025 184.993 413.342 179.956 422.503 183.933L408.32 195.42Z" fill="#F8959D"/>
<path d="M426.633 197.387C429.194 192.528 427.345 186.505 422.503 183.934C417.66 181.363 411.658 183.219 409.096 188.078C406.534 192.937 408.384 198.961 413.226 201.532C418.069 204.102 424.072 202.246 426.633 197.387Z" fill="#F8959D"/>
<path d="M434.26 153.637L414.625 182.095L429.083 192.592L448.719 165.613C452.777 161.124 451.615 154.014 446.341 151.061C442.239 148.764 437.078 149.865 434.26 153.637Z" fill="white"/>
<path d="M411.743 158.051L438.67 168.963C443.858 170.197 449.112 167.194 450.702 162.088C452.37 156.732 449.28 150.785 443.95 149.091L417.738 136.3C412.644 134.68 407.119 136.878 404.514 141.559C400.874 148.102 404.478 156.322 411.743 158.051Z" fill="white"/>
<path d="M414.625 182.095L427.117 164.281L408.781 156.885" stroke="#100C25" stroke-width="0.7747" stroke-miterlimit="10" stroke-linecap="round" stroke-linejoin="round"/>
<path d="M506.476 291.561H1" stroke="#100C25" stroke-width="1.5499" stroke-miterlimit="10" stroke-linecap="round" stroke-linejoin="round"/>
</svg>
