<svg width="343" height="340" viewBox="0 0 343 340" fill="none" xmlns="http://www.w3.org/2000/svg">
<path d="M150.596 1.33033C150.596 1.33033 196.873 -7.86867 212.139 28.6073C213.764 32.4893 214.482 36.6673 214.676 40.8713C214.8 43.5663 215.805 47.6853 219.596 52.8303C226.596 62.3303 234.53 65.4783 233.538 72.8273C232.546 80.1763 219.096 96.3303 221.596 106.33C223.177 112.655 217.096 125.83 202.096 123.33C187.096 120.83 159.557 136.758 146.205 122.494C132.853 108.23 121.538 119.827 118.538 101.494C116.364 88.2083 99.4871 73.9273 108.096 60.3303C116.705 46.7343 116.495 22.2273 125.596 15.3303" fill="#F4A62A"/>
<mask id="mask0_1_3918" style="mask-type:luminance" maskUnits="userSpaceOnUse" x="105" y="0" width="129" height="129">
<path d="M150.596 1.33033C150.596 1.33033 196.873 -7.86867 212.139 28.6073C213.764 32.4893 214.482 36.6673 214.676 40.8713C214.8 43.5663 215.805 47.6853 219.596 52.8303C226.596 62.3303 234.53 65.4783 233.538 72.8273C232.546 80.1763 219.096 96.3303 221.596 106.33C223.177 112.655 217.096 125.83 202.096 123.33C187.096 120.83 159.557 136.758 146.205 122.494C132.853 108.23 121.538 119.827 118.538 101.494C116.364 88.2083 99.4871 73.9273 108.096 60.3303C116.705 46.7343 116.495 22.2273 125.596 15.3303" fill="white"/>
</mask>
<g mask="url(#mask0_1_3918)">
<path opacity="0.04" d="M179.263 1.83032C179.263 1.83032 207.263 26.8303 206.263 53.8303C205.263 80.8303 236.596 76.4973 236.596 76.4973L202.596 6.16432L179.263 1.83032Z" fill="#070101"/>
</g>
<path d="M154.939 102.337L151.996 109.291C151.996 109.291 162.312 131.041 174.647 110.482L170.034 101.953" fill="#F7C0A4"/>
<mask id="mask1_1_3918" style="mask-type:luminance" maskUnits="userSpaceOnUse" x="151" y="101" width="24" height="19">
<path d="M154.939 102.337L151.996 109.291C151.996 109.291 162.312 131.041 174.647 110.482L170.034 101.953" fill="white"/>
</mask>
<g mask="url(#mask1_1_3918)">
<path opacity="0.32" d="M150.205 103.16C150.205 103.16 161.538 107.493 172.872 103.827" stroke="#F7A77F" stroke-width="3.9849" stroke-miterlimit="10" stroke-linecap="round" stroke-linejoin="round"/>
</g>
<path d="M142.86 79.5202C149.072 74.2046 149.8 64.8592 144.484 58.6467C139.168 52.4341 129.823 51.707 123.61 57.0226C117.398 62.3381 116.671 71.6835 121.986 77.8961C127.302 84.1087 136.647 84.8358 142.86 79.5202Z" fill="#F7C0A4"/>
<path d="M193.266 82.5303C201.442 82.3937 207.959 75.6553 207.822 67.4795C207.686 59.3038 200.947 52.7867 192.772 52.9233C184.596 53.0598 178.079 59.7983 178.215 67.974C178.352 76.1498 185.09 82.6668 193.266 82.5303Z" fill="#F7C0A4"/>
<path d="M207.334 51.8293C193.263 96.1633 183.097 103.742 162.205 104.16C145.538 104.493 125.538 91.9933 122.205 48.8273C120.2 22.8613 136.921 3.46033 162.961 3.87033C189.001 4.28033 215.213 27.0073 207.334 51.8293Z" fill="#F7C0A4"/>
<mask id="mask2_1_3918" style="mask-type:luminance" maskUnits="userSpaceOnUse" x="122" y="3" width="87" height="102">
<path d="M207.334 51.8293C193.263 96.1633 183.097 103.742 162.205 104.16C145.538 104.493 125.538 91.9933 122.205 48.8273C120.2 22.8613 136.921 3.46033 162.961 3.87033C189.001 4.28033 215.213 27.0073 207.334 51.8293Z" fill="white"/>
</mask>
<g mask="url(#mask2_1_3918)">
<path opacity="0.03" d="M195.91 16.9933C195.91 16.9933 204.814 106.539 152.457 105.449C152.457 105.449 189.176 112.524 197.678 93.3493C206.181 74.1733 226.069 16.6753 195.91 16.9933Z" fill="#99594B"/>
</g>
<mask id="mask3_1_3918" style="mask-type:luminance" maskUnits="userSpaceOnUse" x="122" y="3" width="87" height="102">
<path d="M207.334 51.8293C193.263 96.1633 183.097 103.742 162.205 104.16C145.538 104.493 125.538 91.9933 122.205 48.8273C120.2 22.8613 136.921 3.46033 162.961 3.87033C189.001 4.28033 215.213 27.0073 207.334 51.8293Z" fill="white"/>
</mask>
<g mask="url(#mask3_1_3918)">
<path opacity="0.1" d="M134.596 29.0803C134.596 29.0803 165.596 58.8303 200.097 50.8873L134.596 29.0803Z" fill="#99594B"/>
</g>
<path d="M145.132 70.8983C145.086 73.8323 143.041 76.1793 140.566 76.1403C138.09 76.1013 136.121 73.6913 136.167 70.7573C136.213 67.8233 138.258 65.4763 140.733 65.5153C143.209 65.5543 145.178 67.9643 145.132 70.8983Z" fill="#1D1D1B"/>
<path d="M186.951 72.6653C186.905 75.5993 184.86 77.9463 182.385 77.9073C179.909 77.8683 177.94 75.4583 177.986 72.5243C178.032 69.5903 180.077 67.2433 182.552 67.2823C185.028 67.3213 186.997 69.7313 186.951 72.6653Z" fill="#1D1D1B"/>
<path d="M130.911 62.0983C130.911 62.0983 135.794 54.9993 143.056 57.8893" stroke="#F4A62A" stroke-width="3" stroke-miterlimit="10" stroke-linecap="round" stroke-linejoin="round"/>
<path d="M192.327 62.8763C192.327 62.8763 187.011 56.0603 179.943 59.4173" stroke="#F4A62A" stroke-width="3" stroke-miterlimit="10" stroke-linecap="round" stroke-linejoin="round"/>
<g opacity="0.68">
<path d="M158.334 74.4923C158.334 74.4923 158.332 74.4483 158.327 74.3643C158.33 74.2703 158.301 74.1833 158.325 73.9793C158.35 73.5833 158.423 73.0883 158.691 72.5073C158.955 71.9393 159.406 71.3163 160.068 70.8463C160.401 70.6173 160.779 70.4213 161.189 70.2903C161.621 70.1673 161.995 70.1033 162.518 70.1033C162.809 70.1113 163.377 70.1943 163.755 70.3313C164.161 70.4753 164.532 70.6833 164.858 70.9223C165.505 71.4133 165.936 72.0503 166.182 72.6263C166.431 73.2073 166.491 73.7333 166.499 74.0893C166.516 74.2673 166.487 74.4083 166.487 74.5033C166.48 74.5983 166.476 74.6483 166.476 74.6483C166.454 74.9493 166.192 75.1763 165.89 75.1543C165.627 75.1353 165.422 74.9333 165.388 74.6823L165.381 74.6313C165.381 74.6313 165.36 74.4773 165.305 74.2223C165.263 73.9643 165.125 73.6153 164.92 73.2403C164.715 72.8613 164.364 72.4953 163.941 72.2063C163.726 72.0633 163.484 71.9603 163.236 71.8703C162.952 71.7913 162.819 71.7603 162.405 71.7423C162.222 71.7463 161.893 71.7743 161.657 71.8453C161.406 71.9273 161.161 72.0233 160.942 72.1583C160.511 72.4333 160.148 72.7883 159.931 73.1613C159.716 73.5213 159.563 73.8943 159.518 74.1103C159.48 74.2093 159.466 74.3683 159.448 74.4383C159.433 74.5203 159.425 74.5643 159.425 74.5643C159.37 74.8633 159.083 75.0623 158.784 75.0073C158.529 74.9593 158.347 74.7423 158.334 74.4923Z" fill="#DD725E"/>
</g>
<path d="M146.243 82.5111C146.286 79.7605 142.754 77.4742 138.352 77.4047C133.951 77.3351 130.348 79.5086 130.305 82.2593C130.261 85.0099 133.794 87.2961 138.195 87.3657C142.596 87.4352 146.199 85.2618 146.243 82.5111Z" fill="#FFA394"/>
<path d="M193.435 84.9573C193.392 87.7083 189.789 89.8813 185.388 89.8123C180.987 89.7433 177.454 87.4573 177.498 84.7063C177.541 81.9553 181.144 79.7823 185.545 79.8513C189.946 79.9203 193.479 82.2063 193.435 84.9573Z" fill="#FFA394"/>
<path d="M185.956 71.0053C185.956 71.0053 188.856 70.6783 188.998 68.3073" stroke="#1D1D1B" stroke-width="2" stroke-miterlimit="10" stroke-linecap="round" stroke-linejoin="round"/>
<path d="M138.282 68.9073C138.282 68.9073 135.364 68.8933 134.968 66.5513" stroke="#1D1D1B" stroke-width="2" stroke-miterlimit="10" stroke-linecap="round" stroke-linejoin="round"/>
<path d="M188.108 50.5533C192.111 50.9303 196.107 51.3683 200.098 50.8873L205.384 50.2493C207.611 50.2573 209.495 48.5963 209.74 46.3833C211.024 34.8043 210.307 1.26633 159.027 0.733327C159.027 0.733327 113.951 -2.50167 114.406 47.4153C114.427 49.7433 116.378 51.5913 118.701 51.4453C120.854 51.3103 123.952 51.1713 127.792 47.5243C130.133 45.3013 131.889 42.5333 133.066 39.5273L136.197 31.5263C136.309 30.7093 137.196 30.2533 137.923 30.6433C144.208 34.0213 166.263 48.4963 188.108 50.5533Z" fill="#F4A62A"/>
<mask id="mask4_1_3918" style="mask-type:luminance" maskUnits="userSpaceOnUse" x="114" y="0" width="97" height="52">
<path d="M188.108 50.5533C192.111 50.9303 196.107 51.3683 200.098 50.8873L205.384 50.2493C207.611 50.2573 209.495 48.5963 209.74 46.3833C211.024 34.8043 210.307 1.26633 159.027 0.733327C159.027 0.733327 113.951 -2.50167 114.406 47.4153C114.427 49.7433 116.378 51.5913 118.701 51.4453C120.854 51.3103 123.952 51.1713 127.792 47.5243C130.133 45.3013 131.889 42.5333 133.066 39.5273L136.197 31.5263C136.309 30.7093 137.196 30.2533 137.923 30.6433C144.208 34.0213 166.263 48.4963 188.108 50.5533Z" fill="white"/>
</mask>
<g mask="url(#mask4_1_3918)">
<path opacity="0.07" d="M159.027 0.732334C159.027 0.732334 204.59 15.2353 203.494 56.6703L212.333 54.7573C212.333 54.7573 230.422 -7.89267 159.027 0.732334Z" fill="#72421E"/>
</g>
<mask id="mask5_1_3918" style="mask-type:luminance" maskUnits="userSpaceOnUse" x="114" y="0" width="97" height="52">
<path d="M188.108 50.5533C192.111 50.9303 196.107 51.3683 200.098 50.8873L205.384 50.2493C207.611 50.2573 209.495 48.5963 209.74 46.3833C211.024 34.8043 210.307 1.26633 159.027 0.733327C159.027 0.733327 113.951 -2.50167 114.406 47.4153C114.427 49.7433 116.378 51.5913 118.701 51.4453C120.854 51.3103 123.952 51.1713 127.792 47.5243C130.133 45.3013 131.889 42.5333 133.066 39.5273L136.197 31.5263C136.309 30.7093 137.196 30.2533 137.923 30.6433C144.208 34.0213 166.263 48.4963 188.108 50.5533Z" fill="white"/>
</mask>
<g mask="url(#mask5_1_3918)">
<path opacity="0.09" d="M159.027 0.732322C159.027 0.732322 118.415 11.8383 122.53 53.0843L112.332 56.5723C112.332 56.5723 87.1931 -2.66268 159.027 0.732322Z" fill="white"/>
</g>
<path d="M130.377 173.214C130.377 173.214 142.601 180.241 152.113 179.557L152.015 185.778C151.992 187.263 150.659 188.387 149.192 188.151C144.704 187.43 135.877 185.72 131.028 182.821C129.913 182.154 129.338 180.855 129.513 179.567L130.377 173.214Z" fill="#97C3C9"/>
<path d="M192.675 175.197C192.675 175.197 181.96 181.94 173.805 180.968L173.706 187.26C173.682 188.762 174.795 189.937 176.063 189.742C179.942 189.146 187.58 187.678 191.833 184.889C192.811 184.248 193.344 182.951 193.231 181.644L192.675 175.197Z" fill="#97C3C9"/>
<path d="M170.921 77.9784C172.383 77.9004 173.488 79.2354 173.199 80.6704C172.245 85.4074 168.292 89.0714 163.374 89.3334C158.456 89.5954 154.137 86.3714 152.685 81.7624C152.245 80.3664 153.203 78.9214 154.665 78.8444L170.921 77.9784Z" fill="#49352C"/>
<mask id="mask6_1_3918" style="mask-type:luminance" maskUnits="userSpaceOnUse" x="152" y="77" width="22" height="13">
<path d="M170.921 77.9784C172.383 77.9004 173.488 79.2354 173.199 80.6704C172.245 85.4074 168.292 89.0714 163.374 89.3334C158.456 89.5954 154.137 86.3714 152.685 81.7624C152.245 80.3664 153.203 78.9214 154.665 78.8444L170.921 77.9784Z" fill="white"/>
</mask>
<g mask="url(#mask6_1_3918)">
<path d="M175.9 87.8793C176.071 91.1003 172.456 93.9103 167.826 94.1573C163.195 94.4043 159.302 91.9923 159.131 88.7723C158.96 85.5513 162.575 82.7413 167.205 82.4943C171.836 82.2473 175.729 84.6583 175.9 87.8793Z" fill="#FFA394"/>
</g>
<path d="M183.584 162.697L172.57 163.202C164.3 164.242 156.522 162.178 148.376 160.412L140.467 156.235C133.59 166.711 136.538 238.161 136.538 238.161L153.871 240.828L160.801 170.109L162.803 169.711C162.803 169.711 164.679 233.475 166.538 239.495L168.871 241.162L182.538 241.829C193.521 203.624 183.584 162.697 183.584 162.697Z" fill="#353535"/>
<mask id="mask7_1_3918" style="mask-type:luminance" maskUnits="userSpaceOnUse" x="135" y="156" width="53" height="86">
<path d="M183.584 162.697L172.57 163.202C164.3 164.242 156.522 162.178 148.376 160.412L140.467 156.235C133.59 166.711 136.538 238.161 136.538 238.161L153.871 240.828L160.801 170.109L162.803 169.711C162.803 169.711 164.679 233.475 166.538 239.495L168.871 241.162L182.538 241.829C193.521 203.624 183.584 162.697 183.584 162.697Z" fill="white"/>
</mask>
<g mask="url(#mask7_1_3918)">
<path d="M136.589 163.589C136.589 163.589 155.628 163.792 154.951 144.512L136.589 163.589Z" fill="#353535"/>
</g>
<mask id="mask8_1_3918" style="mask-type:luminance" maskUnits="userSpaceOnUse" x="135" y="156" width="53" height="86">
<path d="M183.584 162.697L172.57 163.202C164.3 164.242 156.522 162.178 148.376 160.412L140.467 156.235C133.59 166.711 136.538 238.161 136.538 238.161L153.871 240.828L160.801 170.109L162.803 169.711C162.803 169.711 164.679 233.475 166.538 239.495L168.871 241.162L182.538 241.829C193.521 203.624 183.584 162.697 183.584 162.697Z" fill="white"/>
</mask>
<g mask="url(#mask8_1_3918)">
<path d="M187.57 163.397C187.57 163.397 168.541 162.751 170.076 143.52L187.57 163.397Z" fill="#353535"/>
</g>
<mask id="mask9_1_3918" style="mask-type:luminance" maskUnits="userSpaceOnUse" x="135" y="156" width="53" height="86">
<path d="M183.584 162.697L172.57 163.202C164.3 164.242 156.522 162.178 148.376 160.412L140.467 156.235C133.59 166.711 136.538 238.161 136.538 238.161L153.871 240.828L160.801 170.109L162.803 169.711C162.803 169.711 164.679 233.475 166.538 239.495L168.871 241.162L182.538 241.829C193.521 203.624 183.584 162.697 183.584 162.697Z" fill="white"/>
</mask>
<g mask="url(#mask9_1_3918)">
<path opacity="0.17" d="M163.902 175.048C163.902 175.048 166.981 205.786 172.701 212.446L164.622 212.266L161.012 175.537L163.902 175.048Z" fill="#353535"/>
</g>
<mask id="mask10_1_3918" style="mask-type:luminance" maskUnits="userSpaceOnUse" x="135" y="156" width="53" height="86">
<path d="M183.584 162.697L172.57 163.202C164.3 164.242 156.522 162.178 148.376 160.412L140.467 156.235C133.59 166.711 136.538 238.161 136.538 238.161L153.871 240.828L160.801 170.109L162.803 169.711C162.803 169.711 164.679 233.475 166.538 239.495L168.871 241.162L182.538 241.829C193.521 203.624 183.584 162.697 183.584 162.697Z" fill="white"/>
</mask>
<g mask="url(#mask10_1_3918)">
<path opacity="0.03" d="M143.791 143.487C143.791 143.487 139.988 194.887 147.866 213.996L137.537 215.426C137.537 215.426 131.266 145.419 141.118 139.883L143.791 143.487Z" fill="#353535"/>
</g>
<mask id="mask11_1_3918" style="mask-type:luminance" maskUnits="userSpaceOnUse" x="135" y="156" width="53" height="86">
<path d="M183.584 162.697L172.57 163.202C164.3 164.242 156.522 162.178 148.376 160.412L140.467 156.235C133.59 166.711 136.538 238.161 136.538 238.161L153.871 240.828L160.801 170.109L162.803 169.711C162.803 169.711 164.679 233.475 166.538 239.495L168.871 241.162L182.538 241.829C193.521 203.624 183.584 162.697 183.584 162.697Z" fill="white"/>
</mask>
<g mask="url(#mask11_1_3918)">
<path opacity="0.22" d="M145.931 157.061C145.931 157.061 138.979 187.236 146.616 221.391L131.633 217.618L133.883 153.843L145.931 157.061Z" fill="#5B5B5B"/>
</g>
<path d="M210.248 109.779C210.693 110.076 211.774 97.4353 195.193 97.1073L210.248 109.779Z" fill="#E07F00"/>
<path d="M195.321 96.9853L194.982 106.585L210.376 109.657" fill="#E07F00"/>
<path d="M151.996 109.291C151.996 109.291 142.07 106.083 136.079 110.925C135.538 111.362 135.071 111.881 134.632 112.422C132.769 114.716 128.16 121.205 126.429 131.063C126.062 133.153 127.258 136.135 129.372 136.328L138.894 136.071" fill="#F19101"/>
<mask id="mask12_1_3918" style="mask-type:luminance" maskUnits="userSpaceOnUse" x="126" y="108" width="26" height="29">
<path d="M151.996 109.291C151.996 109.291 142.07 106.083 136.079 110.925C135.538 111.362 135.071 111.881 134.632 112.422C132.769 114.716 128.16 121.205 126.429 131.063C126.062 133.153 127.258 136.135 129.372 136.328L138.894 136.071" fill="white"/>
</mask>
<g mask="url(#mask12_1_3918)">
<path opacity="0.03" d="M153.93 109.83C153.93 109.83 133.385 110.233 130.555 132.508L121.231 131.967C121.231 131.967 131.849 92.1403 153.93 109.83Z" fill="black"/>
</g>
<path d="M191.301 121.856C192.939 120.314 203.08 113.835 203.871 112.283L210.326 99.6213C212.752 95.5213 215.266 92.8113 216.377 92.1323C217.488 91.4533 223.645 87.7243 223.599 85.7473C223.553 83.7693 218.705 87.2663 218.705 87.2663C218.705 87.2663 224.126 81.2613 222.778 79.9433C221.43 78.6253 215.018 85.7823 215.018 85.7823C215.018 85.7823 222.909 78.1803 221.296 76.5403C219.683 74.9003 212.647 83.9683 212.647 83.9683C212.647 83.9683 219.507 75.3503 216.246 75.1243C212.986 74.8993 210.163 82.5483 210.163 82.5483C210.163 82.5483 207.97 75.2693 206.426 77.8783C205.295 79.7893 206.136 83.0083 206.666 84.5933C206.869 85.1993 206.781 85.8623 206.422 86.3733L194.411 101.508C192.778 103.823 185.852 115.131 183.084 115.234" fill="#F7C0A4"/>
<path d="M145.302 117.833C145.302 117.833 122.923 164.269 141.794 168.642C160.664 173.016 187.293 179.33 189.996 165.716C191.861 156.324 191.1 141.771 189.812 134.704C189.174 131.203 189.902 127.724 193.185 125.137L210.375 109.656L204.971 106.579C202.772 105.183 200.785 103.139 199.056 101.191L195.321 96.9843C190.572 100.034 187.759 101.952 184.843 104.115C180.846 107.079 177.228 107.63 173.89 108.593C173.89 108.593 169.596 114.249 162.598 114.093C155.6 113.937 151.996 109.291 151.996 109.291" fill="#F19101"/>
<mask id="mask13_1_3918" style="mask-type:luminance" maskUnits="userSpaceOnUse" x="134" y="96" width="77" height="78">
<path d="M145.302 117.833C145.302 117.833 122.923 164.269 141.794 168.642C160.664 173.016 187.293 179.33 189.996 165.716C191.861 156.324 191.1 141.771 189.812 134.704C189.174 131.203 189.902 127.724 193.185 125.137L210.375 109.656L204.971 106.579C202.772 105.183 200.785 103.139 199.056 101.191L195.321 96.9843C190.572 100.034 187.759 101.952 184.843 104.115C180.846 107.079 177.228 107.63 173.89 108.593C173.89 108.593 169.596 114.249 162.598 114.093C155.6 113.937 151.996 109.291 151.996 109.291" fill="white"/>
</mask>
<g mask="url(#mask13_1_3918)">
<path opacity="0.11" d="M137.493 135C137.493 135 139.996 165.434 153.358 171.164C153.358 171.164 129.715 172.276 128.897 162.631C128.897 162.631 130.874 136.552 137.493 135Z" fill="#8E7796"/>
</g>
<mask id="mask14_1_3918" style="mask-type:luminance" maskUnits="userSpaceOnUse" x="134" y="96" width="77" height="78">
<path d="M145.302 117.833C145.302 117.833 122.923 164.269 141.794 168.642C160.664 173.016 187.293 179.33 189.996 165.716C191.861 156.324 191.1 141.771 189.812 134.704C189.174 131.203 189.902 127.724 193.185 125.137L210.375 109.656L204.971 106.579C202.772 105.183 200.785 103.139 199.056 101.191L195.321 96.9843C190.572 100.034 187.759 101.952 184.843 104.115C180.846 107.079 177.228 107.63 173.89 108.593C173.89 108.593 169.596 114.249 162.598 114.093C155.6 113.937 151.996 109.291 151.996 109.291" fill="white"/>
</mask>
<g mask="url(#mask14_1_3918)">
<path opacity="0.05" d="M209.055 110.919C209.055 110.919 186.497 120.752 186.304 129.416C186.111 138.08 191.714 170.88 191.714 170.88L194.212 133.593L214.564 118.043L216.66 113.755L209.055 110.919Z" fill="black"/>
</g>
<path d="M150.93 108.663C150.93 108.663 160.43 122.33 175.597 109.163" stroke="#EF9F35" stroke-width="4" stroke-miterlimit="10" stroke-linecap="round" stroke-linejoin="round"/>
<path d="M78.6352 297.851C78.6352 297.851 75.9783 311.701 79.2143 334.222C79.4733 336.027 81.1152 337.311 82.9302 337.13L91.5613 336.269C93.3433 336.091 94.6792 334.565 94.6292 332.775C94.4572 326.661 94.4403 312.434 97.0583 296.438L78.6352 297.851Z" fill="#B56D58"/>
<path d="M62.1833 302.268C61.2383 307.516 59.7673 318.871 60.8723 334.736C61.0223 336.883 62.8503 338.532 65.0023 338.467L72.5233 338.243C74.6263 338.18 76.3213 336.511 76.4163 334.41C76.6733 328.711 75.6493 318.673 78.4043 305.331C78.9203 302.834 78.8593 298.892 76.3093 298.909L66.1073 298.979C64.1783 298.992 62.5253 300.37 62.1833 302.268Z" fill="#B56D58"/>
<path d="M95.1221 265.577H55.6221V285.827H95.1221V265.577Z" fill="#B56D58"/>
<path d="M28.8721 225.327C39.3655 225.327 47.8721 216.821 47.8721 206.327C47.8721 195.834 39.3655 187.327 28.8721 187.327C18.3787 187.327 9.87207 195.834 9.87207 206.327C9.87207 216.821 18.3787 225.327 28.8721 225.327Z" fill="#381B12"/>
<path d="M108.405 215.505C118.899 215.505 127.405 206.999 127.405 196.505C127.405 186.012 118.899 177.505 108.405 177.505C97.9119 177.505 89.4053 186.012 89.4053 196.505C89.4053 206.999 97.9119 215.505 108.405 215.505Z" fill="#381B12"/>
<path d="M99.9932 241.661C110.487 241.661 118.993 233.155 118.993 222.661C118.993 212.168 110.487 203.661 99.9932 203.661C89.4998 203.661 80.9932 212.168 80.9932 222.661C80.9932 233.155 89.4998 241.661 99.9932 241.661Z" fill="#381B12"/>
<path d="M98.8721 266.827C109.365 266.827 117.872 258.321 117.872 247.827C117.872 237.334 109.365 228.827 98.8721 228.827C88.3787 228.827 79.8721 237.334 79.8721 247.827C79.8721 258.321 88.3787 266.827 98.8721 266.827Z" fill="#381B12"/>
<path d="M47.814 247.65C58.3074 247.65 66.814 239.144 66.814 228.65C66.814 218.157 58.3074 209.65 47.814 209.65C37.3206 209.65 28.814 218.157 28.814 228.65C28.814 239.144 37.3206 247.65 47.814 247.65Z" fill="#381B12"/>
<path d="M19.3721 198.327C29.5893 198.327 37.8721 190.828 37.8721 181.577C37.8721 172.327 29.5893 164.827 19.3721 164.827C9.1548 164.827 0.87207 172.327 0.87207 181.577C0.87207 190.828 9.1548 198.327 19.3721 198.327Z" fill="#381B12"/>
<path d="M31.9639 174.518C42.1811 174.518 50.4639 167.019 50.4639 157.768C50.4639 148.518 42.1811 141.018 31.9639 141.018C21.7466 141.018 13.4639 148.518 13.4639 157.768C13.4639 167.019 21.7466 174.518 31.9639 174.518Z" fill="#381B12"/>
<path d="M45.7061 153.098C55.9233 153.098 64.206 145.599 64.206 136.348C64.206 127.098 55.9233 119.598 45.7061 119.598C35.4888 119.598 27.2061 127.098 27.2061 136.348C27.2061 145.599 35.4888 153.098 45.7061 153.098Z" fill="#381B12"/>
<path d="M70.4951 149.782C80.7124 149.782 88.9951 142.283 88.9951 133.032C88.9951 123.782 80.7124 116.282 70.4951 116.282C60.2778 116.282 51.9951 123.782 51.9951 133.032C51.9951 142.283 60.2778 149.782 70.4951 149.782Z" fill="#381B12"/>
<path d="M95.4951 155.782C105.712 155.782 113.995 148.283 113.995 139.032C113.995 129.782 105.712 122.282 95.4951 122.282C85.2778 122.282 76.9951 129.782 76.9951 139.032C76.9951 148.283 85.2778 155.782 95.4951 155.782Z" fill="#381B12"/>
<path d="M109.852 176.33C120.069 176.33 128.352 168.831 128.352 159.58C128.352 150.33 120.069 142.83 109.852 142.83C99.6348 142.83 91.3521 150.33 91.3521 159.58C91.3521 168.831 99.6348 176.33 109.852 176.33Z" fill="#381B12"/>
<path d="M107.352 192.83C117.569 192.83 125.852 185.331 125.852 176.08C125.852 166.83 117.569 159.33 107.352 159.33C97.1348 159.33 88.8521 166.83 88.8521 176.08C88.8521 185.331 97.1348 192.83 107.352 192.83Z" fill="#381B12"/>
<path d="M94.0898 253.67C94.7818 252.921 96.5119 252.162 98.7009 251.47C106.758 248.921 115.415 248.971 123.528 251.337L138.5 255.704C139.265 255.77 139.946 256.216 140.337 256.895C141.357 258.672 143.624 262.053 146.312 262.502C149.981 263.114 145.096 255.186 145.096 255.186C145.096 255.186 154.452 258.609 156.93 255.308C159.408 252.007 145.836 251.672 145.836 251.672C145.836 251.672 159.966 252.198 159.787 249.341C159.607 246.484 146.121 247.949 146.121 247.949C146.121 247.949 157.98 247.543 157.879 245.197C157.777 242.852 147 244.215 147 244.215C147 244.215 155 241.391 153.22 239.764C151.439 238.137 142.941 241.044 141.402 241.563C139.863 242.083 135.301 242.32 129.535 241.358L121.147 238.526C117.052 237.143 112.763 236.408 108.44 236.379C103.643 236.347 98.0438 236.465 96.4308 236.659" fill="#B56D58"/>
<path d="M20.1048 196.695C21.3318 188.369 29.0758 182.614 37.4018 183.841C45.7278 185.068 51.4828 192.812 50.2558 201.138C49.0288 209.464 41.2848 215.219 32.9588 213.992C24.6328 212.764 18.8778 205.021 20.1048 196.695Z" fill="#B56D58"/>
<path d="M19.3729 240.582C16.9789 236.709 14.5019 234.137 13.4099 233.486C12.3179 232.835 6.26493 229.261 6.30193 227.409C6.33893 225.556 12.0879 228.878 12.0879 228.878C12.0879 228.878 5.76792 223.198 7.08492 221.981C8.40192 220.763 14.7179 227.553 14.7179 227.553C14.7179 227.553 6.94993 220.327 8.52593 218.811C10.1019 217.295 17.0369 225.883 17.0369 225.883C17.0369 225.883 10.2759 217.718 13.4729 217.549C16.6699 217.38 19.4669 224.585 19.4669 224.585C19.4669 224.585 21.5909 217.792 23.1149 220.257C24.2309 222.063 23.4189 225.068 22.9049 226.546C22.7079 227.112 22.7969 227.733 23.1509 228.217L34.2539 243.395C35.8639 245.585 38.3749 246.934 41.0899 247.066L55.0259 242.057L56.6839 256.454L43.0099 259.888C36.6659 261.481 29.8089 259.066 26.3279 253.528C26.1239 253.204 25.9319 252.872 25.7499 252.532L19.3729 240.582Z" fill="#B56D58"/>
<path d="M63.8689 228.98L60.9019 235.033C60.9019 235.033 72.7999 277.014 89.2279 234.629L80.8849 227.342" fill="#B56D58"/>
<mask id="mask15_1_3918" style="mask-type:luminance" maskUnits="userSpaceOnUse" x="60" y="227" width="30" height="27">
<path d="M63.8689 228.98L60.9019 235.033C60.9019 235.033 72.7999 277.014 89.2279 234.629L80.8849 227.342" fill="white"/>
</mask>
<g mask="url(#mask15_1_3918)">
<path opacity="0.24" d="M61.0449 230.909C61.0449 230.909 77.8669 233.555 88.9199 228.468" stroke="#99594B" stroke-width="6" stroke-miterlimit="10"/>
</g>
<path d="M120.046 197.23C122.663 189.232 118.301 180.626 110.303 178.009C102.304 175.392 93.6987 179.754 91.0813 187.752C88.464 195.751 92.8263 204.356 100.825 206.974C108.823 209.591 117.429 205.229 120.046 197.23Z" fill="#B56D58"/>
<mask id="mask16_1_3918" style="mask-type:luminance" maskUnits="userSpaceOnUse" x="90" y="177" width="31" height="31">
<path d="M120.046 197.23C122.663 189.232 118.301 180.626 110.303 178.009C102.304 175.392 93.6987 179.754 91.0813 187.752C88.464 195.751 92.8263 204.356 100.825 206.974C108.823 209.591 117.429 205.229 120.046 197.23Z" fill="white"/>
</mask>
<g mask="url(#mask16_1_3918)">
<path opacity="0.2" d="M106.898 207.718C115.314 207.718 122.136 200.896 122.136 192.48C122.136 184.065 115.314 177.242 106.898 177.242C98.4824 177.242 91.6602 184.065 91.6602 192.48C91.6602 200.896 98.4824 207.718 106.898 207.718Z" fill="#99594B"/>
</g>
<path d="M111.661 170.809C107.963 214.465 97.8339 229.366 73.1909 231.356C55.1249 232.815 25.991 217.946 23.148 177.295C21.278 150.555 37.565 128.488 64.293 126.454C91.021 124.42 113.924 144.099 111.661 170.809Z" fill="#B56D58"/>
<mask id="mask17_1_3918" style="mask-type:luminance" maskUnits="userSpaceOnUse" x="23" y="126" width="89" height="106">
<path d="M111.661 170.809C107.963 214.465 97.8339 229.366 73.1909 231.356C55.1249 232.815 25.991 217.946 23.148 177.295C21.278 150.555 37.565 128.488 64.293 126.454C91.021 124.42 113.924 144.099 111.661 170.809Z" fill="white"/>
</mask>
<g mask="url(#mask17_1_3918)">
<path opacity="0.05" d="M98.1289 140.671C98.1289 140.671 115.198 229.025 62.9619 232.735C62.9619 232.735 100.809 238.608 107.519 218.734C114.229 198.861 128.133 137.592 98.1289 140.671Z" fill="#99594B"/>
</g>
<mask id="mask18_1_3918" style="mask-type:luminance" maskUnits="userSpaceOnUse" x="23" y="126" width="89" height="106">
<path d="M111.661 170.809C107.963 214.465 97.8339 229.366 73.1909 231.356C55.1249 232.815 25.991 217.946 23.148 177.295C21.278 150.555 37.565 128.488 64.293 126.454C91.021 124.42 113.924 144.099 111.661 170.809Z" fill="white"/>
</mask>
<g mask="url(#mask18_1_3918)">
<path opacity="0.2" d="M104.547 144.129C104.547 144.129 112.93 233.726 60.5811 232.331C60.5811 232.331 97.2581 239.619 105.872 220.494C114.486 201.369 134.708 143.986 104.547 144.129Z" fill="#99594B"/>
</g>
<path d="M53.6389 200.748C53.8679 203.76 51.9939 206.358 49.4529 206.551C46.9119 206.744 44.6659 204.46 44.4369 201.448C44.2079 198.436 46.0819 195.838 48.6229 195.645C51.1649 195.452 53.4099 197.737 53.6389 200.748Z" fill="#1D1D1B"/>
<path d="M96.6687 198.616C96.8977 201.628 95.0237 204.226 92.4827 204.419C89.9417 204.612 87.6957 202.328 87.4667 199.316C87.2377 196.304 89.1117 193.706 91.6527 193.513C94.1937 193.32 96.4387 195.605 96.6687 198.616Z" fill="#1D1D1B"/>
<path d="M38.2021 192.643C38.2021 192.643 42.5372 184.906 50.2532 187.184" stroke="#2D150F" stroke-width="2.7344" stroke-miterlimit="10" stroke-linecap="round" stroke-linejoin="round"/>
<path d="M99.706 188.05C99.706 188.05 93.617 181.602 86.688 185.689" stroke="#2D150F" stroke-width="2.7344" stroke-miterlimit="10" stroke-linecap="round" stroke-linejoin="round"/>
<g opacity="0.68">
<path d="M66.1009 202.964C66.1009 202.964 66.0939 202.919 66.0819 202.834C66.0759 202.737 66.0379 202.651 66.0429 202.44C66.0309 202.032 66.0589 201.518 66.2789 200.896C66.4959 200.289 66.8989 199.608 67.5339 199.063C67.8539 198.797 68.2229 198.56 68.6309 198.387C69.0619 198.22 69.4399 198.119 69.9759 198.07C70.2749 198.05 70.8649 198.083 71.2649 198.187C71.6949 198.296 72.0949 198.474 72.4509 198.689C73.1599 199.131 73.6619 199.743 73.9689 200.311C74.2789 200.883 74.3899 201.416 74.4319 201.78C74.4669 201.961 74.4499 202.108 74.4579 202.205C74.4599 202.303 74.4609 202.355 74.4609 202.355C74.4669 202.666 74.2189 202.923 73.9079 202.929C73.6369 202.934 73.4069 202.747 73.3489 202.493L73.3369 202.441C73.3369 202.441 73.3009 202.285 73.2199 202.029C73.1529 201.769 72.9779 201.424 72.7329 201.059C72.4879 200.689 72.0929 200.348 71.6319 200.091C71.3989 199.965 71.1399 199.882 70.8779 199.813C70.5799 199.759 70.4409 199.74 70.0139 199.761C69.8269 199.782 69.4919 199.842 69.2569 199.937C69.0079 200.045 68.7649 200.166 68.5529 200.326C68.1369 200.649 67.7979 201.047 67.6119 201.449C67.4249 201.838 67.3039 202.235 67.2779 202.461C67.2479 202.566 67.2489 202.73 67.2379 202.803C67.2299 202.888 67.2259 202.934 67.2259 202.934C67.1979 203.246 66.9229 203.476 66.6109 203.449C66.3449 203.424 66.1379 203.218 66.1009 202.964Z" fill="#5E372E"/>
</g>
<path d="M53.8089 212.733C54.0239 215.556 50.5359 218.124 46.0179 218.468C41.5009 218.812 37.6639 216.802 37.4489 213.978C37.2339 211.155 40.7219 208.587 45.2389 208.243C49.7579 207.899 53.5939 209.91 53.8089 212.733Z" fill="#FFA394"/>
<path d="M103.85 210.037C104.065 212.86 100.577 215.428 96.0599 215.772C91.5419 216.116 87.7059 214.106 87.4909 211.282C87.2759 208.459 90.7639 205.891 95.2809 205.547C99.7979 205.204 103.635 207.214 103.85 210.037Z" fill="#FFA394"/>
<path d="M94.9971 196.172C94.9971 196.172 97.0151 196.418 97.3971 194.675" stroke="#1D1D1B" stroke-width="1.3672" stroke-miterlimit="10" stroke-linecap="round" stroke-linejoin="round"/>
<path d="M45.58 199.191C45.58 199.191 43.622 199.74 42.981 198.075" stroke="#1D1D1B" stroke-width="1.3672" stroke-miterlimit="10" stroke-linecap="round" stroke-linejoin="round"/>
<path d="M109.75 238.454L108.179 248.995C107.848 251.413 105.864 253.259 103.429 253.429C99.65 253.693 94.652 253.859 94.324 253.749L94.089 253.67C93.703 253.541 93.337 253.892 93.447 254.284C97.706 269.318 95.371 268.161 95.371 268.161L74.371 268.328L54.635 267.354C54.369 264.497 55.15 260.193 55.751 257.023C55.839 256.56 55.327 256.223 54.934 256.485L54.059 257.067C53.362 257.531 52.415 257.27 52.054 256.515L46.099 244.075C45.052 242.644 45.882 240.632 47.445 239.794C49.968 238.44 54.123 236.606 62.091 232.166C62.091 232.166 67.477 240.677 75.372 240.495C83.246 239.527 86.372 232.328 86.372 232.328L105.75 234.455C108.126 234.84 110.076 236.069 109.75 238.454Z" fill="#9BDDC8"/>
<mask id="mask19_1_3918" style="mask-type:luminance" maskUnits="userSpaceOnUse" x="45" y="232" width="65" height="37">
<path d="M109.75 238.454L108.179 248.995C107.848 251.413 105.864 253.259 103.429 253.429C99.65 253.693 94.652 253.859 94.324 253.749L94.089 253.67C93.703 253.541 93.337 253.892 93.447 254.284C97.706 269.318 95.371 268.161 95.371 268.161L74.371 268.328L54.635 267.354C54.369 264.497 55.15 260.193 55.751 257.023C55.839 256.56 55.327 256.223 54.934 256.485L54.059 257.067C53.362 257.531 52.415 257.27 52.054 256.515L46.099 244.075C45.052 242.644 45.882 240.632 47.445 239.794C49.968 238.44 54.123 236.606 62.091 232.166C62.091 232.166 67.477 240.677 75.372 240.495C83.246 239.527 86.372 232.328 86.372 232.328L105.75 234.455C108.126 234.84 110.076 236.069 109.75 238.454Z" fill="white"/>
</mask>
<g mask="url(#mask19_1_3918)">
<path opacity="0.06" d="M93.3181 253.92C93.3181 253.92 94.5581 266.893 92.3721 273.493L98.3721 270.993L97.7051 267.16L93.3181 253.92Z" fill="#0C0604"/>
</g>
<mask id="mask20_1_3918" style="mask-type:luminance" maskUnits="userSpaceOnUse" x="45" y="232" width="65" height="37">
<path d="M109.75 238.454L108.179 248.995C107.848 251.413 105.864 253.259 103.429 253.429C99.65 253.693 94.652 253.859 94.324 253.749L94.089 253.67C93.703 253.541 93.337 253.892 93.447 254.284C97.706 269.318 95.371 268.161 95.371 268.161L74.371 268.328L54.635 267.354C54.369 264.497 55.15 260.193 55.751 257.023C55.839 256.56 55.327 256.223 54.934 256.485L54.059 257.067C53.362 257.531 52.415 257.27 52.054 256.515L46.099 244.075C45.052 242.644 45.882 240.632 47.445 239.794C49.968 238.44 54.123 236.606 62.091 232.166C62.091 232.166 67.477 240.677 75.372 240.495C83.246 239.527 86.372 232.328 86.372 232.328L105.75 234.455C108.126 234.84 110.076 236.069 109.75 238.454Z" fill="white"/>
</mask>
<g mask="url(#mask20_1_3918)">
<path opacity="0.43" d="M93.23 253.657C93.23 253.657 106.168 252.727 109.122 246.077L108.609 256.772L93.23 253.657Z" fill="#8AC1AD"/>
</g>
<path opacity="0.16" d="M38.8721 179.327C38.8721 179.327 46.8721 185.327 56.1221 181.077C65.3721 176.827 66.3721 172.827 66.3721 172.827C66.3721 172.827 70.3721 180.327 78.6221 181.077C86.8721 181.827 91.6221 179.077 91.6221 179.077" stroke="#23110C" stroke-width="3" stroke-miterlimit="10" stroke-linecap="round" stroke-linejoin="round"/>
<path d="M78.8361 205.463C80.2951 205.352 81.4312 206.661 81.1752 208.102C80.3292 212.859 76.4612 216.613 71.5502 216.986C66.6402 217.36 62.2481 214.235 60.6911 209.66C60.2201 208.274 61.1442 206.808 62.6042 206.697L78.8361 205.463Z" fill="#49352C"/>
<mask id="mask21_1_3918" style="mask-type:luminance" maskUnits="userSpaceOnUse" x="60" y="205" width="22" height="13">
<path d="M78.8361 205.463C80.2951 205.352 81.4312 206.661 81.1752 208.102C80.3292 212.859 76.4612 216.613 71.5502 216.986C66.6402 217.36 62.2481 214.235 60.6911 209.66C60.2201 208.274 61.1442 206.808 62.6042 206.697L78.8361 205.463Z" fill="white"/>
</mask>
<g mask="url(#mask21_1_3918)">
<path d="M84.0392 215.247C84.2842 218.463 80.7342 221.355 76.1102 221.707C71.4862 222.059 67.5392 219.737 67.2942 216.521C67.0492 213.305 70.5992 210.413 75.2232 210.061C79.8482 209.709 83.7952 212.031 84.0392 215.247Z" fill="#FFA394"/>
</g>
<path d="M63.3717 146.327C63.3717 146.327 88.3617 181.624 121.205 191.494C121.205 191.494 133.858 116.552 61.1437 123.089C61.1437 123.089 1.07774 126.795 16.5377 198.161C16.5377 198.16 45.3617 176.531 63.3717 146.327Z" fill="#381B12"/>
<mask id="mask22_1_3918" style="mask-type:luminance" maskUnits="userSpaceOnUse" x="13" y="122" width="110" height="77">
<path d="M63.3717 146.327C63.3717 146.327 88.3617 181.624 121.205 191.494C121.205 191.494 133.858 116.552 61.1437 123.089C61.1437 123.089 1.07774 126.795 16.5377 198.161C16.5377 198.16 45.3617 176.531 63.3717 146.327Z" fill="white"/>
</mask>
<g mask="url(#mask22_1_3918)">
<path opacity="0.2" d="M50.3076 125.684C50.3076 125.684 107.59 131.589 120.051 187.074C120.051 187.074 123.733 139.518 101.109 127.614C101.109 127.614 64.1186 107.924 50.3076 125.684Z" fill="#070707"/>
</g>
<mask id="mask23_1_3918" style="mask-type:luminance" maskUnits="userSpaceOnUse" x="13" y="122" width="110" height="77">
<path d="M63.3717 146.327C63.3717 146.327 88.3617 181.624 121.205 191.494C121.205 191.494 133.858 116.552 61.1437 123.089C61.1437 123.089 1.07774 126.795 16.5377 198.161C16.5377 198.16 45.3617 176.531 63.3717 146.327Z" fill="white"/>
</mask>
<g mask="url(#mask23_1_3918)">
<path d="M102.88 186.103C102.88 186.103 109.037 191.234 117.691 191.829" stroke="#28130D" stroke-width="1.4733" stroke-miterlimit="10" stroke-linecap="round" stroke-linejoin="round"/>
</g>
<mask id="mask24_1_3918" style="mask-type:luminance" maskUnits="userSpaceOnUse" x="13" y="122" width="110" height="77">
<path d="M63.3717 146.327C63.3717 146.327 88.3617 181.624 121.205 191.494C121.205 191.494 133.858 116.552 61.1437 123.089C61.1437 123.089 1.07774 126.795 16.5377 198.161C16.5377 198.16 45.3617 176.531 63.3717 146.327Z" fill="white"/>
</mask>
<g mask="url(#mask24_1_3918)">
<path opacity="0.03" d="M52.6615 125.215C52.6615 125.215 9.26649 163.07 31.0805 215.587C31.0805 215.587 0.64949 178.856 12.2695 156.085C12.2695 156.085 31.1375 118.669 52.6615 125.215Z" fill="white"/>
</g>
<path d="M48.8721 182.327C58.8132 182.327 66.8721 175.724 66.8721 167.577C66.8721 159.431 58.8132 152.827 48.8721 152.827C38.9309 152.827 30.8721 159.431 30.8721 167.577C30.8721 175.724 38.9309 182.327 48.8721 182.327Z" fill="#381B12"/>
<path d="M63.8721 168.327C73.8132 168.327 81.8721 161.724 81.8721 153.577C81.8721 145.431 73.8132 138.827 63.8721 138.827C53.9309 138.827 45.8721 145.431 45.8721 153.577C45.8721 161.724 53.9309 168.327 63.8721 168.327Z" fill="#381B12"/>
<path d="M82.3721 181.327C92.3132 181.327 100.372 174.724 100.372 166.577C100.372 158.431 92.3132 151.827 82.3721 151.827C72.4309 151.827 64.3721 158.431 64.3721 166.577C64.3721 174.724 72.4309 181.327 82.3721 181.327Z" fill="#381B12"/>
<path d="M55.6221 235.077L61.6221 256.827L66.1221 254.827L60.1221 232.827L55.6221 235.077Z" fill="#467565"/>
<mask id="mask25_1_3918" style="mask-type:luminance" maskUnits="userSpaceOnUse" x="55" y="232" width="12" height="25">
<path d="M55.6221 235.077L61.6221 256.827L66.1221 254.827L60.1221 232.827L55.6221 235.077Z" fill="white"/>
</mask>
<g mask="url(#mask25_1_3918)">
<path opacity="0.38" d="M54.9272 233.825L61.0983 256.008L62.4412 255.328L56.2702 233.145" fill="#3D6657"/>
</g>
<path d="M88.3721 232.327L82.5381 256.16L87.2471 255.702L93.6221 233.077L88.3721 232.327Z" fill="#467565"/>
<mask id="mask26_1_3918" style="mask-type:luminance" maskUnits="userSpaceOnUse" x="82" y="232" width="12" height="25">
<path d="M88.3721 232.327L82.5381 256.16L87.2471 255.702L93.6221 233.077L88.3721 232.327Z" fill="white"/>
</mask>
<g mask="url(#mask26_1_3918)">
<path opacity="0.38" d="M92.1221 232.452L85.7471 254.577L87.2471 254.702L93.6221 232.577" fill="#3D6657"/>
</g>
<path d="M55.122 272.827L59.622 272.577L60.372 254.327L87.997 254.702L91.122 271.577H96.122L101.955 311.731C102.434 314.918 99.93 317.769 96.708 317.706L57.715 316.941C54.539 316.879 52.063 314.166 52.292 310.997L55.122 272.827Z" fill="#467565"/>
<mask id="mask27_1_3918" style="mask-type:luminance" maskUnits="userSpaceOnUse" x="52" y="254" width="51" height="64">
<path d="M55.122 272.827L59.622 272.577L60.372 254.327L87.997 254.702L91.122 271.577H96.122L101.955 311.731C102.434 314.918 99.93 317.769 96.708 317.706L57.715 316.941C54.539 316.879 52.063 314.166 52.292 310.997L55.122 272.827Z" fill="white"/>
</mask>
<g mask="url(#mask27_1_3918)">
<path opacity="0.06" d="M92.3721 267.327C92.3721 267.327 103.372 318.077 85.6221 318.827L103.372 318.077L98.1221 268.327L92.3721 267.327Z" fill="black"/>
</g>
<path d="M64.6222 258.577L84.8722 258.827C84.8722 258.827 86.3722 276.077 75.1222 275.327C63.8722 274.577 64.6222 258.577 64.6222 258.577Z" fill="#9BDDC8"/>
<mask id="mask28_1_3918" style="mask-type:luminance" maskUnits="userSpaceOnUse" x="64" y="258" width="21" height="18">
<path d="M64.6222 258.577L84.8722 258.827C84.8722 258.827 86.3722 276.077 75.1222 275.327C63.8722 274.577 64.6222 258.577 64.6222 258.577Z" fill="white"/>
</mask>
<g mask="url(#mask28_1_3918)">
<path opacity="0.62" d="M82.3721 253.827C82.3721 253.827 85.6221 275.327 68.6221 274.077C68.6221 274.077 81.1221 282.827 87.1221 269.327C93.1221 255.827 82.3721 253.827 82.3721 253.827Z" fill="#8AC1AD"/>
</g>
<path d="M255.546 130.143C255.546 130.143 268.15 102.723 288.471 114.04C307.076 124.401 311.015 153.987 327.666 153.399C329.976 153.317 331.64 155.614 330.838 157.781C329.157 162.319 326.54 168.073 324.114 167.918C324.114 167.918 331.972 170.802 339.035 168.21C341.023 167.481 342.4 169.381 342.018 171.463C332.885 221.224 305.466 241.412 242.472 183.251L255.546 130.143Z" fill="#683B1C"/>
<mask id="mask29_1_3918" style="mask-type:luminance" maskUnits="userSpaceOnUse" x="242" y="111" width="101" height="108">
<path d="M255.546 130.143C255.546 130.143 268.15 102.723 288.471 114.04C307.076 124.401 311.015 153.987 327.666 153.399C329.976 153.317 331.64 155.614 330.838 157.781C329.157 162.319 326.54 168.073 324.114 167.918C324.114 167.918 331.972 170.802 339.035 168.21C341.023 167.481 342.4 169.381 342.018 171.463C332.885 221.224 305.466 241.412 242.472 183.251L255.546 130.143Z" fill="white"/>
</mask>
<g mask="url(#mask29_1_3918)">
<path opacity="0.09" d="M336.212 153.66C336.212 153.66 332.201 170.798 293.907 130.921C286.39 123.093 277.89 120.213 260.379 122.436C260.379 122.436 277.725 70.4343 336.212 153.66Z" fill="#231409"/>
</g>
<path d="M275.401 272.398L265.409 273.02C257.09 273.538 248.743 272.64 240.724 270.365L232.665 268.078C225.142 278.1 226.837 334.293 226.837 334.293L244.859 336.252L250.896 296.522L252.919 296.251C252.919 296.251 251.953 330.941 253.429 337.067L269.93 338.978C283.297 301.542 275.401 272.398 275.401 272.398Z" fill="#353535"/>
<mask id="mask30_1_3918" style="mask-type:luminance" maskUnits="userSpaceOnUse" x="226" y="268" width="52" height="71">
<path d="M275.401 272.398L265.409 273.02C257.09 273.538 248.743 272.64 240.724 270.365L232.665 268.078C225.142 278.1 226.837 334.293 226.837 334.293L244.859 336.252L250.896 296.522L252.919 296.251C252.919 296.251 251.953 330.941 253.429 337.067L269.93 338.978C283.297 301.542 275.401 272.398 275.401 272.398Z" fill="white"/>
</mask>
<g mask="url(#mask30_1_3918)">
<path d="M227.143 288.492C227.143 288.492 246.132 289.893 246.669 270.608L227.143 288.492Z" fill="#353535"/>
</g>
<mask id="mask31_1_3918" style="mask-type:luminance" maskUnits="userSpaceOnUse" x="226" y="268" width="52" height="71">
<path d="M275.401 272.398L265.409 273.02C257.09 273.538 248.743 272.64 240.724 270.365L232.665 268.078C225.142 278.1 226.837 334.293 226.837 334.293L244.859 336.252L250.896 296.522L252.919 296.251C252.919 296.251 251.953 330.941 253.429 337.067L269.93 338.978C283.297 301.542 275.401 272.398 275.401 272.398Z" fill="white"/>
</mask>
<g mask="url(#mask31_1_3918)">
<path d="M278.036 291.51C278.036 291.51 259.085 289.668 261.828 270.571L278.036 291.51Z" fill="#353535"/>
</g>
<mask id="mask32_1_3918" style="mask-type:luminance" maskUnits="userSpaceOnUse" x="226" y="268" width="52" height="71">
<path d="M275.401 272.398L265.409 273.02C257.09 273.538 248.743 272.64 240.724 270.365L232.665 268.078C225.142 278.1 226.837 334.293 226.837 334.293L244.859 336.252L250.896 296.522L252.919 296.251C252.919 296.251 251.953 330.941 253.429 337.067L269.93 338.978C283.297 301.542 275.401 272.398 275.401 272.398Z" fill="white"/>
</mask>
<g mask="url(#mask32_1_3918)">
<path opacity="0.17" d="M253.681 301.648C253.681 301.648 254.819 332.519 260.108 339.526L252.057 338.838L250.766 301.955L253.681 301.648Z" fill="#353535"/>
</g>
<mask id="mask33_1_3918" style="mask-type:luminance" maskUnits="userSpaceOnUse" x="226" y="268" width="52" height="71">
<path d="M275.401 272.398L265.409 273.02C257.09 273.538 248.743 272.64 240.724 270.365L232.665 268.078C225.142 278.1 226.837 334.293 226.837 334.293L244.859 336.252L250.896 296.522L252.919 296.251C252.919 296.251 251.953 330.941 253.429 337.067L269.93 338.978C283.297 301.542 275.401 272.398 275.401 272.398Z" fill="white"/>
</mask>
<g mask="url(#mask33_1_3918)">
<path opacity="0.03" d="M235.596 268.884C235.596 268.884 228.565 319.943 235.224 339.509L224.826 340.286C224.826 340.286 222.975 270.023 233.156 265.118L235.596 268.884Z" fill="#353535"/>
</g>
<mask id="mask34_1_3918" style="mask-type:luminance" maskUnits="userSpaceOnUse" x="226" y="268" width="52" height="71">
<path d="M275.401 272.398L265.409 273.02C257.09 273.538 248.743 272.64 240.724 270.365L232.665 268.078C225.142 278.1 226.837 334.293 226.837 334.293L244.859 336.252L250.896 296.522L252.919 296.251C252.919 296.251 251.953 330.941 253.429 337.067L269.93 338.978C283.297 301.542 275.401 272.398 275.401 272.398Z" fill="white"/>
</mask>
<g mask="url(#mask34_1_3918)">
<path opacity="0.22" d="M269.046 277.648C269.046 277.648 274.063 308.204 264.267 341.804L279.46 338.992L281.275 275.203L269.046 277.648Z" fill="#5B5B5B"/>
</g>
<path d="M224.254 246.917C223.365 248.984 217.925 263.292 217.817 265.031L214.854 273.344C214.26 278.07 213.031 281.557 212.282 282.622C211.533 283.687 207.368 289.558 208.197 291.354C209.026 293.15 213.013 287.646 213.013 287.646C213.013 287.646 209.499 295.679 211.26 296.352C213.021 297.025 216.056 287.908 216.056 287.908C216.056 287.908 211.841 298.022 213.974 298.885C216.106 299.748 218.953 288.629 218.953 288.629C218.953 288.629 216.089 299.265 219.169 298.175C222.25 297.085 221.796 288.944 221.796 288.944C221.796 288.944 226.705 294.75 227.082 291.742C227.359 289.539 225.307 286.92 224.19 285.677C223.763 285.201 223.58 284.559 223.706 283.947L227.653 264.751C228.23 261.978 231.136 249.379 233.634 248.184" fill="#F9B691"/>
<path d="M292.686 251.372C294.39 249.903 300.235 242.809 301.093 241.293L308.094 228.925C310.696 224.935 313.327 222.338 314.466 221.708C315.605 221.078 321.919 217.621 321.96 215.644C322.001 213.666 317.004 216.948 317.004 216.948C317.004 216.948 322.682 211.185 321.393 209.81C320.104 208.435 313.386 215.305 313.386 215.305C313.386 215.305 321.601 208.055 320.061 206.346C318.521 204.637 311.096 213.389 311.096 213.389C311.096 213.389 318.325 205.078 315.078 204.711C311.831 204.343 308.677 211.862 308.677 211.862C308.677 211.862 306.804 204.494 305.148 207.033C303.935 208.893 304.634 212.145 305.095 213.752C305.271 214.367 305.154 215.024 304.774 215.519L292.826 231.053C291.094 233.294 282.968 243.351 280.199 243.333" fill="#F9B691"/>
<path d="M239.628 235.678C239.628 235.678 205.912 302.807 224.47 308.36C243.028 313.913 278.038 321.663 281.593 308.246C284.046 298.991 286.785 271.785 285.945 264.65C285.581 261.558 286.259 258.548 288.739 256.252C289.78 255.288 290.85 254.356 291.841 253.341L313.339 231.329C315.5 229.116 314.873 225.438 312.101 224.066L303.834 219.974C302.433 219.281 300.783 219.312 299.417 220.072C293.083 223.596 276.828 233.788 270.115 236.869" fill="#FDCB6C"/>
<mask id="mask35_1_3918" style="mask-type:luminance" maskUnits="userSpaceOnUse" x="218" y="219" width="97" height="97">
<path d="M239.628 235.678C239.628 235.678 205.912 302.807 224.47 308.36C243.028 313.913 278.038 321.663 281.593 308.246C284.046 298.991 286.785 271.785 285.945 264.65C285.581 261.558 286.259 258.548 288.739 256.252C289.78 255.288 290.85 254.356 291.841 253.341L313.339 231.329C315.5 229.116 314.873 225.438 312.101 224.066L303.834 219.974C302.433 219.281 300.783 219.312 299.417 220.072C293.083 223.596 276.828 233.788 270.115 236.869" fill="white"/>
</mask>
<g mask="url(#mask35_1_3918)">
<path opacity="0.03" d="M285.514 259.094C281.715 279.242 282.445 271.504 280.374 290.574C279.312 300.359 275.076 308.809 269.631 311.548C266.208 313.269 258.915 314.381 252.984 313.261C252.984 313.261 268.652 325.087 279.399 314.669C290.145 304.25 285.514 259.094 285.514 259.094Z" fill="black"/>
</g>
<mask id="mask36_1_3918" style="mask-type:luminance" maskUnits="userSpaceOnUse" x="218" y="219" width="97" height="97">
<path d="M239.628 235.678C239.628 235.678 205.912 302.807 224.47 308.36C243.028 313.913 278.038 321.663 281.593 308.246C284.046 298.991 286.785 271.785 285.945 264.65C285.581 261.558 286.259 258.548 288.739 256.252C289.78 255.288 290.85 254.356 291.841 253.341L313.339 231.329C315.5 229.116 314.873 225.438 312.101 224.066L303.834 219.974C302.433 219.281 300.783 219.312 299.417 220.072C293.083 223.596 276.828 233.788 270.115 236.869" fill="white"/>
</mask>
<g mask="url(#mask36_1_3918)">
<path d="M249.385 236.688C249.385 236.688 244.494 303.507 238.931 317.298C238.931 317.298 251.987 323.972 263.737 321.135C263.737 321.135 264.65 270.412 266.512 239.019L249.385 236.688Z" fill="#FCBC54"/>
</g>
<path d="M249.937 229.406L246.518 236.139C246.518 236.139 256.381 256.523 270.114 236.87L265.022 230.071" fill="#F9B691"/>
<mask id="mask37_1_3918" style="mask-type:luminance" maskUnits="userSpaceOnUse" x="246" y="229" width="25" height="17">
<path d="M249.937 229.406L246.518 236.139C246.518 236.139 256.381 256.523 270.114 236.87L265.022 230.071" fill="white"/>
</mask>
<g mask="url(#mask37_1_3918)">
<path d="M245.441 230.398C245.441 230.398 256.004 234.19 267.203 233.147" stroke="#F7A77F" stroke-width="3.9849" stroke-miterlimit="10" stroke-linecap="round" stroke-linejoin="round"/>
</g>
<path d="M211.633 188.093C214.108 180.3 222.432 175.989 230.225 178.464C238.018 180.939 242.329 189.263 239.854 197.056C237.379 204.849 229.055 209.16 221.262 206.685C213.469 204.21 209.158 195.886 211.633 188.093Z" fill="#F9B691"/>
<path d="M278.278 192.171C280.753 184.378 289.077 180.067 296.87 182.542C304.663 185.017 308.974 193.341 306.499 201.134C304.024 208.927 295.7 213.238 287.907 210.763C280.114 208.287 275.803 199.963 278.278 192.171Z" fill="#F9B691"/>
<path d="M305.784 181.663C290.025 223.194 280.961 234.657 257.019 232.721C239.468 231.302 216.361 215.975 220.208 170.977C222.426 145.029 238.901 128.519 264.849 130.738C290.797 132.957 315.023 157.314 305.784 181.663Z" fill="#F9B691"/>
<mask id="mask38_1_3918" style="mask-type:luminance" maskUnits="userSpaceOnUse" x="219" y="130" width="89" height="103">
<path d="M305.784 181.663C290.025 223.194 280.961 234.657 257.019 232.721C239.468 231.302 216.361 215.975 220.208 170.977C222.426 145.029 238.901 128.519 264.849 130.738C290.797 132.957 315.023 157.314 305.784 181.663Z" fill="white"/>
</mask>
<g mask="url(#mask38_1_3918)">
<path opacity="0.05" d="M296.807 146.117C296.807 146.117 299.469 236.065 247.315 231.341C247.315 231.341 283.454 240.95 293.268 222.411C303.081 203.873 326.916 147.895 296.807 146.117Z" fill="#99594B"/>
</g>
<path d="M242.407 196.365C242.157 199.289 239.955 201.488 237.488 201.277C235.021 201.066 233.224 198.525 233.474 195.601C233.724 192.677 235.926 190.478 238.393 190.689C240.86 190.9 242.657 193.441 242.407 196.365Z" fill="#1D1D1B"/>
<path d="M284.002 201.032C283.752 203.956 281.55 206.155 279.083 205.944C276.616 205.733 274.819 203.192 275.069 200.268C275.319 197.344 277.521 195.145 279.988 195.356C282.455 195.567 284.252 198.108 284.002 201.032Z" fill="#1D1D1B"/>
<path d="M228.832 186.598C228.832 186.598 234.196 179.855 241.24 183.243" stroke="#8E5424" stroke-width="2.6566" stroke-miterlimit="10" stroke-linecap="round" stroke-linejoin="round"/>
<path d="M290.046 191.641C290.046 191.641 285.216 184.472 277.932 187.33" stroke="#8E5424" stroke-width="2.6636" stroke-miterlimit="10" stroke-linecap="round" stroke-linejoin="round"/>
<g opacity="0.68">
<path d="M254.26 201.796C254.26 201.796 254.261 201.751 254.262 201.668C254.271 201.574 254.248 201.486 254.286 201.284C254.338 200.891 254.445 200.402 254.753 199.841C255.056 199.293 255.549 198.703 256.242 198.279C256.591 198.073 256.981 197.904 257.399 197.802C257.838 197.709 258.216 197.671 258.738 197.707C259.028 197.735 259.588 197.858 259.956 198.02C260.351 198.192 260.707 198.425 261.015 198.687C261.626 199.222 262.012 199.887 262.218 200.479C262.426 201.076 262.449 201.605 262.433 201.96C262.438 202.139 262.399 202.278 262.392 202.372C262.379 202.466 262.371 202.516 262.371 202.516C262.328 202.815 262.051 203.023 261.751 202.98C261.49 202.942 261.299 202.727 261.283 202.474L261.28 202.423C261.28 202.423 261.27 202.268 261.232 202.01C261.208 201.75 261.094 201.392 260.916 201.003C260.738 200.61 260.413 200.221 260.012 199.903C259.808 199.746 259.573 199.626 259.332 199.519C259.054 199.421 258.924 199.381 258.512 199.334C258.329 199.325 257.999 199.33 257.758 199.385C257.502 199.449 257.251 199.528 257.023 199.648C256.574 199.893 256.187 200.221 255.945 200.578C255.705 200.922 255.527 201.284 255.467 201.496C255.422 201.592 255.397 201.749 255.375 201.818C255.354 201.899 255.343 201.942 255.343 201.942C255.268 202.237 254.967 202.415 254.672 202.34C254.423 202.275 254.256 202.045 254.26 201.796Z" fill="#DD725E"/>
</g>
<path d="M240.7 207.884C240.466 210.625 236.72 212.543 232.335 212.168C227.949 211.793 224.584 209.267 224.818 206.526C225.052 203.785 228.798 201.867 233.183 202.242C237.569 202.617 240.934 205.143 240.7 207.884Z" fill="#FFA394"/>
<path d="M290.545 214.812C290.311 217.553 286.565 219.471 282.18 219.096C277.794 218.721 274.429 216.195 274.663 213.454C274.897 210.713 278.642 208.795 283.028 209.17C287.414 209.545 290.78 212.071 290.545 214.812Z" fill="#FFA394"/>
<path d="M246.518 236.139C246.518 236.139 231.804 232.673 228.242 237.456C228.242 237.456 212.77 257.995 211.293 275.776C211.117 277.891 212.588 279.787 214.685 280.113L223.958 281.554" fill="#FDCB6C"/>
<path d="M251.465 210.474C251.465 210.474 258.374 215.748 266.828 210.784" stroke="#49352C" stroke-width="2" stroke-miterlimit="10" stroke-linecap="round" stroke-linejoin="round"/>
<path d="M282.63 200.091C282.63 200.091 285.537 199.838 285.739 197.471" stroke="#1D1D1B" stroke-width="2" stroke-miterlimit="10" stroke-linecap="round" stroke-linejoin="round"/>
<path d="M234.9 194.881C234.9 194.881 232.078 194.138 232.28 191.772" stroke="#1D1D1B" stroke-width="2" stroke-miterlimit="10" stroke-linecap="round" stroke-linejoin="round"/>
<path d="M219.075 302.577C219.075 302.577 230.781 310.436 240.318 310.415L239.788 316.614C239.661 318.094 238.254 319.122 236.807 318.785C232.38 317.754 223.693 315.435 219.057 312.206C217.991 311.463 217.507 310.127 217.772 308.854L219.075 302.577Z" fill="#FCB43F"/>
<path d="M282.078 308.327C282.078 308.327 271.53 314.482 263.864 313.066L263.396 319.35C263.284 320.85 264.268 322.086 265.48 321.96C269.189 321.576 276.51 320.525 280.703 317.97C281.668 317.382 282.249 316.115 282.22 314.802L282.078 308.327Z" fill="#FCB43F"/>
<path d="M214.9 183.497L230.225 178.464L234.37 153.174L236.367 176.849L242.067 158.174L245.348 177.422C245.348 177.422 274.607 174.278 291.69 181.38L298.42 162.27L296.869 182.541L305.312 187.761C305.312 187.761 324.377 132.362 268.491 128.797C199.125 124.373 214.9 183.497 214.9 183.497Z" fill="#72421E"/>
<mask id="mask39_1_3918" style="mask-type:luminance" maskUnits="userSpaceOnUse" x="213" y="128" width="96" height="60">
<path d="M214.9 183.497L230.225 178.464L234.37 153.174L236.367 176.849L242.067 158.174L245.348 177.422C245.348 177.422 274.607 174.278 291.69 181.38L298.42 162.27L296.869 182.541L305.312 187.761C305.312 187.761 324.377 132.362 268.491 128.797C199.125 124.373 214.9 183.497 214.9 183.497Z" fill="white"/>
</mask>
<g mask="url(#mask39_1_3918)">
<path opacity="0.09" d="M250.3 126.856C250.3 126.856 306.287 132.779 303.648 185.921C303.648 185.921 336.441 123.466 250.3 126.856Z" fill="#231409"/>
</g>
<mask id="mask40_1_3918" style="mask-type:luminance" maskUnits="userSpaceOnUse" x="213" y="128" width="96" height="60">
<path d="M214.9 183.497L230.225 178.464L234.37 153.174L236.367 176.849L242.067 158.174L245.348 177.422C245.348 177.422 274.607 174.278 291.69 181.38L298.42 162.27L296.869 182.541L305.312 187.761C305.312 187.761 324.377 132.362 268.491 128.797C199.125 124.373 214.9 183.497 214.9 183.497Z" fill="white"/>
</mask>
<g mask="url(#mask40_1_3918)">
<path opacity="0.04" d="M261.837 123.603C261.837 123.603 207.556 138.526 218.368 188.372C218.368 188.372 176.388 134.731 261.837 123.603Z" fill="white"/>
</g>
<path d="M243.392 259.323C244.448 259.406 245.239 260.315 245.157 261.352C245.075 262.389 244.153 263.163 243.096 263.08C242.039 262.997 241.249 262.089 241.331 261.051C241.413 260.013 242.335 259.24 243.392 259.323Z" fill="#FCBC56" stroke="#FDCB6C" stroke-miterlimit="10"/>
<path d="M242.461 268.905C243.518 268.988 244.308 269.897 244.226 270.934C244.144 271.972 243.222 272.745 242.165 272.662C241.109 272.579 240.318 271.67 240.4 270.633C240.482 269.596 241.405 268.822 242.461 268.905Z" fill="#FCBC56" stroke="#FDCB6C" stroke-miterlimit="10"/>
<path d="M239.593 280.359C239.606 279.299 240.461 278.451 241.501 278.464C242.542 278.477 243.375 279.347 243.361 280.406C243.348 281.466 242.493 282.314 241.453 282.301C240.412 282.288 239.579 281.419 239.593 280.359Z" fill="#FCBC56" stroke="#FDCB6C" stroke-miterlimit="10"/>
<path d="M141.322 291.079L152.319 291.864C160.56 293.114 168.387 291.248 176.576 289.69L184.589 285.715C191.197 296.362 184.243 338.87 184.243 338.87L166.414 339.173L163.909 299.065L161.918 298.616C161.918 298.616 159.816 333.256 157.805 339.227L141.2 339.674C131.192 301.205 141.322 291.079 141.322 291.079Z" fill="#353535"/>
<mask id="mask41_1_3918" style="mask-type:luminance" maskUnits="userSpaceOnUse" x="136" y="285" width="52" height="55">
<path d="M141.322 291.079L152.319 291.864C160.56 293.114 168.387 291.248 176.576 289.69L184.589 285.715C191.197 296.362 184.243 338.87 184.243 338.87L166.414 339.173L163.909 299.065L161.918 298.616C161.918 298.616 159.816 333.256 157.805 339.227L141.2 339.674C131.192 301.205 141.322 291.079 141.322 291.079Z" fill="white"/>
</mask>
<g mask="url(#mask41_1_3918)">
<path d="M188.28 293.165C188.28 293.165 169.242 292.884 170.409 273.627L188.28 293.165Z" fill="#353535"/>
</g>
<mask id="mask42_1_3918" style="mask-type:luminance" maskUnits="userSpaceOnUse" x="136" y="285" width="52" height="55">
<path d="M141.322 291.079L152.319 291.864C160.56 293.114 168.387 291.248 176.576 289.69L184.589 285.715C191.197 296.362 184.243 338.87 184.243 338.87L166.414 339.173L163.909 299.065L161.918 298.616C161.918 298.616 159.816 333.256 157.805 339.227L141.2 339.674C131.192 301.205 141.322 291.079 141.322 291.079Z" fill="white"/>
</mask>
<g mask="url(#mask42_1_3918)">
<path d="M137.319 291.677C137.319 291.677 156.359 291.516 155.312 272.252L137.319 291.677Z" fill="#353535"/>
</g>
<mask id="mask43_1_3918" style="mask-type:luminance" maskUnits="userSpaceOnUse" x="136" y="285" width="52" height="55">
<path d="M141.322 291.079L152.319 291.864C160.56 293.114 168.387 291.248 176.576 289.69L184.589 285.715C191.197 296.362 184.243 338.87 184.243 338.87L166.414 339.173L163.909 299.065L161.918 298.616C161.918 298.616 159.816 333.256 157.805 339.227L141.2 339.674C131.192 301.205 141.322 291.079 141.322 291.079Z" fill="white"/>
</mask>
<g mask="url(#mask43_1_3918)">
<path opacity="0.17" d="M160.683 303.927C160.683 303.927 156.823 334.577 150.936 341.089L159.017 341.114L163.56 304.489L160.683 303.927Z" fill="#353535"/>
</g>
<mask id="mask44_1_3918" style="mask-type:luminance" maskUnits="userSpaceOnUse" x="136" y="285" width="52" height="55">
<path d="M141.322 291.079L152.319 291.864C160.56 293.114 168.387 291.248 176.576 289.69L184.589 285.715C191.197 296.362 184.243 338.87 184.243 338.87L166.414 339.173L163.909 299.065L161.918 298.616C161.918 298.616 159.816 333.256 157.805 339.227L141.2 339.674C131.192 301.205 141.322 291.079 141.322 291.079Z" fill="white"/>
</mask>
<g mask="url(#mask44_1_3918)">
<path opacity="0.03" d="M181.591 272.888C181.591 272.888 184.086 324.368 175.724 343.27L186.013 344.963C186.013 344.963 194.063 275.138 184.355 269.353L181.591 272.888Z" fill="#353535"/>
</g>
<mask id="mask45_1_3918" style="mask-type:luminance" maskUnits="userSpaceOnUse" x="136" y="285" width="52" height="55">
<path d="M141.322 291.079L152.319 291.864C160.56 293.114 168.387 291.248 176.576 289.69L184.589 285.715C191.197 296.362 184.243 338.87 184.243 338.87L166.414 339.173L163.909 299.065L161.918 298.616C161.918 298.616 159.816 333.256 157.805 339.227L141.2 339.674C131.192 301.205 141.322 291.079 141.322 291.079Z" fill="white"/>
</mask>
<g mask="url(#mask45_1_3918)">
<path opacity="0.22" d="M179.107 286.402C179.107 286.402 185.289 316.744 176.786 350.694L191.86 347.303L191.233 283.491L179.107 286.402Z" fill="#5B5B5B"/>
</g>
<path d="M115.988 238.499C115.536 238.785 114.777 226.12 131.36 226.214L131.637 234.29L115.988 238.499Z" fill="#859CA0"/>
<path d="M170.793 232.297L173.604 239.306C173.604 239.306 162.878 260.857 150.935 240.068L155.709 231.628" fill="#F7A981"/>
<mask id="mask46_1_3918" style="mask-type:luminance" maskUnits="userSpaceOnUse" x="150" y="231" width="24" height="19">
<path d="M170.793 232.297L173.604 239.306C173.604 239.306 162.878 260.857 150.935 240.068L155.709 231.628" fill="white"/>
</mask>
<g mask="url(#mask46_1_3918)">
<path opacity="0.33" d="M175.184 233.682C175.184 233.682 164.327 236.526 153.264 234.498" stroke="#DB9272" stroke-width="3.9849" stroke-miterlimit="10" stroke-linecap="round" stroke-linejoin="round"/>
</g>
<path d="M182.678 254.715C185.069 256.112 186.929 268.907 187.276 271.718L189.63 291.174C189.705 291.794 189.47 292.419 189.005 292.858C187.789 294.005 185.529 296.446 185.624 298.664C185.753 301.693 191.123 296.311 191.123 296.311C191.123 296.311 190.001 304.387 192.982 305.727C195.963 307.067 193.983 296.231 193.983 296.231C193.983 296.231 195.906 307.546 198.102 306.862C200.298 306.177 196.93 295.751 196.93 295.751C196.93 295.751 199.205 305.087 201.015 304.561C202.825 304.035 199.984 295.74 199.984 295.74C199.984 295.74 203.505 301.554 204.478 299.832C205.452 298.11 201.784 291.917 201.125 290.794C200.502 289.733 199.63 286.479 199.365 282.105C199.334 281.595 199.286 281.084 199.207 280.58L197.851 271.942C197.738 271.224 197.596 270.511 197.423 269.805L193.191 252.481L182.678 254.715Z" fill="#F7A981"/>
<path d="M173.604 239.306C173.604 239.306 182.737 234.424 188.483 240.227C188.483 240.227 195.135 244.915 199.262 257.428C199.927 259.444 200.035 261.118 197.917 261.257L185.568 267.173" fill="#B6D6DD"/>
<mask id="mask47_1_3918" style="mask-type:luminance" maskUnits="userSpaceOnUse" x="173" y="237" width="27" height="31">
<path d="M173.604 239.306C173.604 239.306 182.737 234.424 188.483 240.227C188.483 240.227 195.135 244.915 199.262 257.428C199.927 259.444 200.035 261.118 197.917 261.257L185.568 267.173" fill="white"/>
</mask>
<g mask="url(#mask47_1_3918)">
<path opacity="0.04" d="M172.286 239.983C172.286 239.983 192.814 240.908 195.077 263.249L204.411 262.945C204.411 262.945 194.81 222.86 172.286 239.983Z" fill="black"/>
</g>
<path d="M134.621 251.054C133.023 249.471 123.05 242.736 122.299 241.164L116.168 228.342C113.848 224.182 111.402 221.409 110.309 220.702C109.216 219.995 103.156 216.111 103.252 214.135C103.348 212.159 108.106 215.778 108.106 215.778C108.106 215.778 102.84 209.637 104.221 208.354C105.602 207.071 111.83 214.388 111.83 214.388C111.83 214.388 104.135 206.588 105.789 204.99C107.443 203.391 114.246 212.635 114.246 212.635C114.246 212.635 107.608 203.845 110.873 203.703C114.138 203.561 116.765 211.279 116.765 211.279C116.765 211.279 119.143 204.058 120.619 206.705C121.701 208.644 120.779 211.841 120.208 213.411C119.99 214.012 120.061 214.676 120.407 215.196L132.03 230.631C133.603 232.986 140.24 244.467 143.004 244.641" fill="#F7A981"/>
<path d="M173.23 239.175C173.23 239.175 170.263 244.04 163.263 244.018C156.263 243.996 152.115 238.233 152.115 238.233C148.803 237.185 143.557 236.101 141.28 233.478C138.9 230.737 135.657 229.253 130.987 226.083L127.146 230.194C125.367 232.097 123.332 233.742 121.098 235.082L115.616 238.369L132.407 254.282C135.624 256.952 136.262 260.448 135.536 263.932C134.069 270.964 133.044 292.497 134.67 301.933C137.026 315.612 164.385 312.066 183.36 308.174C202.336 304.282 180.46 248.199 180.46 248.199" fill="#B6D6DD"/>
<mask id="mask48_1_3918" style="mask-type:luminance" maskUnits="userSpaceOnUse" x="115" y="226" width="77" height="86">
<path d="M173.23 239.175C173.23 239.175 170.263 244.04 163.263 244.018C156.263 243.996 152.115 238.233 152.115 238.233C148.803 237.185 143.557 236.101 141.28 233.478C138.9 230.737 135.657 229.253 130.987 226.083L127.146 230.194C125.367 232.097 123.332 233.742 121.098 235.082L115.616 238.369L132.407 254.282C135.624 256.952 136.262 260.448 135.536 263.932C134.069 270.964 133.044 292.497 134.67 301.933C137.026 315.612 164.385 312.066 183.36 308.174C202.336 304.282 180.46 248.199 180.46 248.199" fill="white"/>
</mask>
<g mask="url(#mask48_1_3918)">
<path d="M131.91 272.685C131.91 272.685 163.946 281.503 199.598 266.155" stroke="#7DCEDB" stroke-width="9" stroke-miterlimit="10" stroke-linecap="round" stroke-linejoin="round"/>
</g>
<mask id="mask49_1_3918" style="mask-type:luminance" maskUnits="userSpaceOnUse" x="115" y="226" width="77" height="86">
<path d="M173.23 239.175C173.23 239.175 170.263 244.04 163.263 244.018C156.263 243.996 152.115 238.233 152.115 238.233C148.803 237.185 143.557 236.101 141.28 233.478C138.9 230.737 135.657 229.253 130.987 226.083L127.146 230.194C125.367 232.097 123.332 233.742 121.098 235.082L115.616 238.369L132.407 254.282C135.624 256.952 136.262 260.448 135.536 263.932C134.069 270.964 133.044 292.497 134.67 301.933C137.026 315.612 164.385 312.066 183.36 308.174C202.336 304.282 180.46 248.199 180.46 248.199" fill="white"/>
</mask>
<g mask="url(#mask49_1_3918)">
<path d="M131.797 286.936C131.797 286.936 163.833 295.754 199.485 280.406" stroke="#7DCEDB" stroke-width="9" stroke-miterlimit="10" stroke-linecap="round" stroke-linejoin="round"/>
</g>
<mask id="mask50_1_3918" style="mask-type:luminance" maskUnits="userSpaceOnUse" x="115" y="226" width="77" height="86">
<path d="M173.23 239.175C173.23 239.175 170.263 244.04 163.263 244.018C156.263 243.996 152.115 238.233 152.115 238.233C148.803 237.185 143.557 236.101 141.28 233.478C138.9 230.737 135.657 229.253 130.987 226.083L127.146 230.194C125.367 232.097 123.332 233.742 121.098 235.082L115.616 238.369L132.407 254.282C135.624 256.952 136.262 260.448 135.536 263.932C134.069 270.964 133.044 292.497 134.67 301.933C137.026 315.612 164.385 312.066 183.36 308.174C202.336 304.282 180.46 248.199 180.46 248.199" fill="white"/>
</mask>
<g mask="url(#mask50_1_3918)">
<path opacity="0.11" d="M185.925 266.223C185.925 266.223 194.601 305.29 171.268 311.531C171.268 311.531 193.965 311.253 195.027 301.632C195.027 301.632 192.503 267.943 185.925 266.223Z" fill="#8E7796"/>
</g>
<mask id="mask51_1_3918" style="mask-type:luminance" maskUnits="userSpaceOnUse" x="115" y="226" width="77" height="86">
<path d="M173.23 239.175C173.23 239.175 170.263 244.04 163.263 244.018C156.263 243.996 152.115 238.233 152.115 238.233C148.803 237.185 143.557 236.101 141.28 233.478C138.9 230.737 135.657 229.253 130.987 226.083L127.146 230.194C125.367 232.097 123.332 233.742 121.098 235.082L115.616 238.369L132.407 254.282C135.624 256.952 136.262 260.448 135.536 263.932C134.069 270.964 133.044 292.497 134.67 301.933C137.026 315.612 164.385 312.066 183.36 308.174C202.336 304.282 180.46 248.199 180.46 248.199" fill="white"/>
</mask>
<g mask="url(#mask51_1_3918)">
<path opacity="0.05" d="M116.901 239.663C116.901 239.663 139.202 250.067 139.174 258.733C139.147 267.4 132.711 300.046 132.711 300.046L131.162 262.708L111.213 246.645L109.227 242.305L116.901 239.663Z" fill="black"/>
</g>
<path d="M211.549 204.026C215.023 196.623 211.838 187.807 204.436 184.333C197.033 180.86 188.217 184.045 184.744 191.447C181.27 198.85 184.455 207.666 191.857 211.139C199.26 214.613 208.076 211.428 211.549 204.026Z" fill="#F4A07A"/>
<path d="M145.11 201.479C148.184 193.902 144.535 185.268 136.958 182.194C129.382 179.119 120.748 182.769 117.673 190.345C114.599 197.922 118.248 206.556 125.825 209.63C133.401 212.705 142.035 209.055 145.11 201.479Z" fill="#F4A07A"/>
<path d="M209.686 175.544C202.149 217.222 189.186 234.944 165.165 234.979C147.556 235.005 119.3 218.422 119.442 173.26C119.524 147.217 138.558 132.615 164.601 132.697C190.644 132.779 214.321 149.916 209.686 175.544Z" fill="#F7A981"/>
<mask id="mask52_1_3918" style="mask-type:luminance" maskUnits="userSpaceOnUse" x="152" y="155" width="30" height="24">
<mask id="mask53_1_3918" style="mask-type:luminance" maskUnits="userSpaceOnUse" x="119" y="132" width="92" height="103">
<path d="M209.686 175.544C202.149 217.222 189.186 234.944 165.165 234.979C147.556 235.005 119.3 218.422 119.442 173.26C119.524 147.217 138.558 132.615 164.601 132.697C190.644 132.779 214.321 149.916 209.686 175.544Z" fill="white"/>
</mask>
<g mask="url(#mask53_1_3918)">
<path d="M152.893 155.681C152.893 155.681 154.447 173.226 181.815 178.758L152.893 155.681Z" fill="white"/>
</g>
</mask>
<g mask="url(#mask52_1_3918)">
<path opacity="0.05" d="M197.714 145.403C197.714 145.403 207.747 234.83 155.381 234.4C155.381 234.4 192.186 241.011 200.446 221.73C208.706 202.449 227.868 144.705 197.714 145.403Z" fill="#99594B"/>
</g>
<mask id="mask54_1_3918" style="mask-type:luminance" maskUnits="userSpaceOnUse" x="152" y="155" width="30" height="24">
<mask id="mask55_1_3918" style="mask-type:luminance" maskUnits="userSpaceOnUse" x="119" y="132" width="92" height="103">
<path d="M209.686 175.544C202.149 217.222 189.186 234.944 165.165 234.979C147.556 235.005 119.3 218.422 119.442 173.26C119.524 147.217 138.558 132.615 164.601 132.697C190.644 132.779 214.321 149.916 209.686 175.544Z" fill="white"/>
</mask>
<g mask="url(#mask55_1_3918)">
<path d="M152.893 155.681C152.893 155.681 154.447 173.226 181.815 178.758L152.893 155.681Z" fill="white"/>
</g>
</mask>
<g mask="url(#mask54_1_3918)">
<path opacity="0.15" d="M199.983 147.558C199.983 147.558 208.366 237.154 156.017 235.76C156.017 235.76 192.694 243.048 201.308 223.923C209.921 204.797 230.144 147.415 199.983 147.558Z" fill="#0A0508"/>
</g>
<path opacity="0.06" d="M152.893 155.681C152.893 155.681 154.447 173.226 181.815 178.758" stroke="#2D150F" stroke-width="4" stroke-miterlimit="10"/>
<path d="M181.212 200.05C181.203 202.984 183.202 205.369 185.678 205.377C188.154 205.385 190.169 203.012 190.178 200.078C190.187 197.144 188.188 194.759 185.712 194.751C183.236 194.744 181.221 197.116 181.212 200.05Z" fill="#1D1D1B"/>
<path d="M139.367 201.026C139.358 203.96 141.357 206.346 143.833 206.353C146.309 206.361 148.323 203.988 148.333 201.054C148.342 198.12 146.343 195.734 143.867 195.727C141.391 195.719 139.376 198.091 139.367 201.026Z" fill="#1D1D1B"/>
<path d="M195.597 191.52C195.597 191.52 190.849 184.33 183.534 187.082" stroke="#371B12" stroke-width="2.6566" stroke-miterlimit="10" stroke-linecap="round" stroke-linejoin="round"/>
<path d="M134.177 191.137C134.177 191.137 139.621 184.423 146.624 187.912" stroke="#371B12" stroke-width="2.6636" stroke-miterlimit="10" stroke-linecap="round" stroke-linejoin="round"/>
<g opacity="0.68">
<path d="M167.831 204.463C167.831 204.463 167.824 204.419 167.811 204.337C167.795 204.267 167.784 204.108 167.747 204.008C167.706 203.791 167.561 203.415 167.352 203.051C167.143 202.674 166.787 202.313 166.36 202.029C166.143 201.889 165.9 201.789 165.651 201.702C165.416 201.627 165.088 201.592 164.905 201.585C164.49 201.595 164.357 201.624 164.072 201.697C163.822 201.782 163.578 201.881 163.361 202.02C162.933 202.301 162.575 202.66 162.363 203.036C162.151 203.408 162.007 203.754 161.96 204.011C161.9 204.265 161.876 204.418 161.876 204.418L161.868 204.469C161.822 204.768 161.542 204.972 161.244 204.926C160.984 204.886 160.795 204.668 160.781 204.415C160.781 204.415 160.778 204.364 160.773 204.27C160.774 204.176 160.748 204.034 160.768 203.856C160.783 203.5 160.853 202.976 161.113 202.4C161.37 201.828 161.813 201.2 162.469 200.721C162.799 200.488 163.175 200.287 163.583 200.151C163.963 200.021 164.532 199.949 164.823 199.947C165.346 199.957 165.719 200.028 166.149 200.159C166.557 200.298 166.93 200.501 167.259 200.736C167.912 201.219 168.351 201.85 168.604 202.423C168.861 203.01 168.925 203.506 168.942 203.902C168.962 204.107 168.932 204.193 168.932 204.287C168.926 204.37 168.923 204.414 168.923 204.414C168.902 204.718 168.638 204.946 168.334 204.925C168.077 204.905 167.872 204.709 167.831 204.463Z" fill="#DD725E"/>
</g>
<path opacity="0.5" d="M181.895 211.675C181.886 214.426 185.447 216.667 189.849 216.681C194.251 216.695 197.826 214.476 197.835 211.725C197.844 208.974 194.283 206.733 189.881 206.719C185.479 206.705 181.904 208.924 181.895 211.675Z" fill="#FF6666"/>
<path opacity="0.5" d="M134.6 212.307C134.591 215.058 138.153 217.299 142.554 217.313C146.956 217.327 150.531 215.108 150.54 212.357C150.549 209.606 146.987 207.365 142.586 207.351C138.184 207.338 134.609 209.556 134.6 212.307Z" fill="#FF6666"/>
<path d="M130.291 142.043C130.291 142.043 109.761 151.478 120.653 186.013C120.653 186.013 121.746 155.432 164.755 153.652L130.291 142.043Z" fill="#75431F"/>
<path d="M159.027 130.829C159.027 130.829 120.971 132.528 121.846 150.556C122.396 161.896 129.233 174.752 159.189 176.848C159.189 176.848 144.291 167.129 154.248 161.384C154.248 161.384 162.175 175.592 181.815 178.758C181.815 178.758 177.771 167.852 183.764 165.843C185.018 165.423 186.394 165.618 187.572 166.222C192.031 168.509 205.55 176.356 206.92 188.066C208.563 202.112 239.854 125.55 159.027 130.829Z" fill="#8E5424"/>
<mask id="mask56_1_3918" style="mask-type:luminance" maskUnits="userSpaceOnUse" x="121" y="130" width="94" height="60">
<path d="M159.027 130.829C159.027 130.829 120.971 132.528 121.846 150.556C122.396 161.896 129.233 174.752 159.189 176.848C159.189 176.848 144.291 167.129 154.248 161.384C154.248 161.384 162.175 175.592 181.815 178.758C181.815 178.758 177.771 167.852 183.764 165.843C185.018 165.423 186.394 165.618 187.572 166.222C192.031 168.509 205.55 176.356 206.92 188.066C208.563 202.112 239.854 125.55 159.027 130.829Z" fill="white"/>
</mask>
<g mask="url(#mask56_1_3918)">
<path opacity="0.27" d="M155.266 131.233C155.266 131.233 211.44 134.913 210.893 185.916C210.893 185.916 241.204 124.917 155.266 131.233Z" fill="#72421E"/>
</g>
<path d="M156.685 213.046C156.685 213.046 164.562 217.998 173.442 212.972" stroke="#75431F" stroke-width="2" stroke-miterlimit="10" stroke-linecap="round" stroke-linejoin="round"/>
<path d="M152.114 238.232C152.114 238.232 155.736 244.495 163.262 244.017C170.789 243.539 174.68 238.011 174.68 238.011" stroke="#7DCEDB" stroke-width="3" stroke-miterlimit="10" stroke-linecap="round" stroke-linejoin="round"/>
<path d="M137.603 130.797C138.163 130.943 138.061 131.856 138.594 132.11C139.985 132.775 142.65 134.284 143.123 136.281C143.768 139.006 137.543 135.789 137.543 135.789C137.543 135.789 140.594 142.63 138.229 144.685C135.863 146.74 134.93 136.549 134.93 136.549C134.93 136.549 136.036 147.149 133.872 147.179C131.708 147.209 132.137 136.978 132.137 136.978C132.137 136.978 132.425 145.924 130.651 145.983C128.877 146.042 128.663 138.509 128.663 138.509C128.663 138.509 127.636 144.038 126.319 142.793C125.002 141.548 126.769 134.986 127.084 133.798C127.084 133.798 129.461 128.672 137.603 130.797Z" fill="#F7C0A4"/>
</svg>
