<svg width="350" height="519" viewBox="0 0 350 519" fill="none" xmlns="http://www.w3.org/2000/svg">
<g opacity="0.7" filter="url(#filter0_f_8_101)">
<path fill-rule="evenodd" clip-rule="evenodd" d="M74.9661 -54.2692C106.976 -41.1421 100.387 8.22494 115.294 39.4462C121.183 51.7802 124.615 66.6253 136.172 73.9218C163.788 91.3569 210.468 80.359 225.785 109.204C237.779 131.793 204.328 154.379 190.224 175.716C176.917 195.848 165.789 218.138 145.324 230.928C124.554 243.91 99.523 249.058 75.0677 247.691C51.294 246.361 31.3806 232.023 9.21769 223.318C-17.0066 213.019 -50.9738 214.407 -67.5971 191.659C-84.126 169.041 -79.0972 136.87 -74.0999 109.305C-69.582 84.3847 -55.6337 62.9291 -40.5684 42.5708C-26.7692 23.9236 -8.12377 11.0264 9.65471 -3.87538C31.0939 -21.8455 49.0836 -64.8834 74.9661 -54.2692Z" fill="#C5D690"/>
</g>
<g opacity="0.7" filter="url(#filter1_f_8_101)">
<path fill-rule="evenodd" clip-rule="evenodd" d="M66.2627 221.066C88.2709 230.882 94.2811 259.82 113.932 273.768C130.916 285.824 157.744 279.849 171.324 295.641C185.064 311.617 189.807 335.789 184.891 356.279C180.12 376.162 149.563 382.068 145.768 402.16C138.892 438.574 180.846 483.79 155.676 510.988C134.43 533.945 95.6939 498.812 66.3525 487.972C45.406 480.233 20.2851 475.538 8.45738 456.598C-3.29659 437.775 9.80223 413.058 5.92695 391.207C3.67351 378.502 -4.06102 368.127 -9.32322 356.345C-18.2861 336.276 -35.21 319.249 -36.0205 297.286C-37.0661 268.95 -37.2201 233.435 -14.4839 216.492C7.50755 200.104 41.2152 209.894 66.2627 221.066Z" fill="#B9DCE0"/>
</g>
<g opacity="0.7" filter="url(#filter2_f_8_101)">
<path fill-rule="evenodd" clip-rule="evenodd" d="M84.2417 -45.6658C111.541 -48.256 129.984 -16.3196 147.331 4.9179C160.94 21.5799 157.506 47.9863 172.961 62.9517C197.583 86.7922 248.22 81.9816 260.114 114.124C270.482 142.141 239.406 169.491 221.131 193.124C204.511 214.617 183.05 230.789 159.466 244.28C135.961 257.725 109.919 280.275 84.3485 271.365C56.6338 261.707 57.1803 219.183 34.3871 200.694C16.8298 186.452 -24.0081 201.637 -28.8381 179.551C-34.5582 153.396 12.5025 140.814 15.4725 114.206C17.9192 92.286 -17.8756 78.7046 -15.1388 56.819C-12.6561 36.9651 13.7907 30.6307 27.7197 16.2667C47.5137 -4.14563 55.9353 -42.9801 84.2417 -45.6658Z" fill="#A2543E"/>
</g>
<g opacity="0.7" filter="url(#filter3_f_8_101)">
<path fill-rule="evenodd" clip-rule="evenodd" d="M145.966 152.44C173.559 141.176 201.696 172.209 225.119 190.638C246.422 207.4 270.864 226.667 274.45 253.535C278.057 280.561 244.195 300.452 243.415 327.706C242.672 353.664 285.345 378.27 270.275 399.419C254.387 421.717 216.162 396.46 189.624 403.196C172.647 407.505 163.297 434.061 146.06 430.947C127.741 427.638 128.684 393.813 110.717 388.942C82.3305 381.246 50.155 412.288 24.4589 397.98C2.52144 385.765 4.2032 352.677 0.88896 327.788C-2.77822 300.248 -16.618 264.312 4.21156 245.927C27.8206 225.088 70.7363 260.27 97.0245 242.933C126.149 223.726 113.666 165.627 145.966 152.44Z" fill="#DCA141"/>
</g>
<defs>
<filter id="filter0_f_8_101" x="-153.233" y="-130.232" width="455.869" height="452.439" filterUnits="userSpaceOnUse" color-interpolation-filters="sRGB">
<feFlood flood-opacity="0" result="BackgroundImageFix"/>
<feBlend mode="normal" in="SourceGraphic" in2="BackgroundImageFix" result="shape"/>
<feGaussianBlur stdDeviation="37.1511" result="effect1_foregroundBlur_8_101"/>
</filter>
<filter id="filter1_f_8_101" x="-110.672" y="133.487" width="371.753" height="459.434" filterUnits="userSpaceOnUse" color-interpolation-filters="sRGB">
<feFlood flood-opacity="0" result="BackgroundImageFix"/>
<feBlend mode="normal" in="SourceGraphic" in2="BackgroundImageFix" result="shape"/>
<feGaussianBlur stdDeviation="37.1511" result="effect1_foregroundBlur_8_101"/>
</filter>
<filter id="filter2_f_8_101" x="-103.622" y="-120.116" width="440.105" height="467.81" filterUnits="userSpaceOnUse" color-interpolation-filters="sRGB">
<feFlood flood-opacity="0" result="BackgroundImageFix"/>
<feBlend mode="normal" in="SourceGraphic" in2="BackgroundImageFix" result="shape"/>
<feGaussianBlur stdDeviation="37.1511" result="effect1_foregroundBlur_8_101"/>
</filter>
<filter id="filter3_f_8_101" x="-81.3179" y="75.7382" width="430.339" height="429.765" filterUnits="userSpaceOnUse" color-interpolation-filters="sRGB">
<feFlood flood-opacity="0" result="BackgroundImageFix"/>
<feBlend mode="normal" in="SourceGraphic" in2="BackgroundImageFix" result="shape"/>
<feGaussianBlur stdDeviation="37.1511" result="effect1_foregroundBlur_8_101"/>
</filter>
</defs>
</svg>
