<svg width="765" height="735" viewBox="0 0 765 735" fill="none" xmlns="http://www.w3.org/2000/svg">
<path d="M607.51 734.93H74.6398C33.5198 734.93 0.0698242 701.48 0.0698242 660.36V157.49C0.0698242 116.37 33.5198 82.9202 74.6398 82.9202H445.51V152.92H74.6398C72.1198 152.92 70.0698 154.97 70.0698 157.49V660.36C70.0698 662.88 72.1198 664.93 74.6398 664.93H607.51C610.03 664.93 612.08 662.88 612.08 660.36V319.49H682.08V660.36C682.07 701.48 648.62 734.93 607.51 734.93Z" fill="black"/>
<path d="M190.66 336.12C224.565 336.12 252.05 308.635 252.05 274.73C252.05 240.825 224.565 213.34 190.66 213.34C156.755 213.34 129.27 240.825 129.27 274.73C129.27 308.635 156.755 336.12 190.66 336.12Z" fill="black"/>
<path d="M764.93 82.9301V152.93H682.07V235.78H612.07V152.93H529.22V82.9301H612.07V0.0700684H682.07V82.9301H764.93Z" fill="black"/>
<path d="M575.72 603.56C578.86 608.15 579.2 614.11 576.61 619.03C574.01 623.95 568.9 627.03 563.34 627.03H118.8C113.24 627.03 108.13 623.95 105.54 619.03C102.94 614.11 103.28 608.15 106.42 603.56L189.02 482.72C191.81 478.63 196.45 476.19 201.4 476.19C206.36 476.19 210.99 478.63 213.79 482.72L250.14 535.9L377.42 349.69C380.22 345.6 384.85 343.16 389.81 343.16C394.76 343.16 399.39 345.6 402.19 349.69L575.72 603.56Z" fill="black"/>
</svg>
