<svg xmlns="http://www.w3.org/2000/svg" xmlns:xlink="http://www.w3.org/1999/xlink" version="1.1" width="256" height="256" viewBox="0 0 256 256" xml:space="preserve">

<defs>
</defs>
<g style="stroke: none; stroke-width: 0; stroke-dasharray: none; stroke-linecap: butt; stroke-linejoin: miter; stroke-miterlimit: 10; fill: none; fill-rule: nonzero; opacity: 1;" transform="translate(1.4065934065934016 1.4065934065934016) scale(2.81 2.81)" >
	<path d="M 65.237 81.121 H 6.485 C 2.909 81.121 0 78.212 0 74.636 V 33.642 c 0 -3.576 2.909 -6.485 6.485 -6.485 h 58.752 c 3.575 0 6.484 2.909 6.484 6.485 v 40.994 C 71.722 78.212 68.813 81.121 65.237 81.121 z M 6.485 31.157 C 5.115 31.157 4 32.272 4 33.642 v 40.994 c 0 1.37 1.115 2.485 2.485 2.485 h 58.752 c 1.37 0 2.484 -1.115 2.484 -2.485 V 33.642 c 0 -1.37 -1.114 -2.485 -2.484 -2.485 H 6.485 z" style="stroke: none; stroke-width: 1; stroke-dasharray: none; stroke-linecap: butt; stroke-linejoin: miter; stroke-miterlimit: 10; fill: rgb(0,0,0); fill-rule: nonzero; opacity: 1;" transform=" matrix(1 0 0 1 0 0) " stroke-linecap="round" />
	<path d="M 45.238 60.853 H 26.484 c -1.104 0 -2 -0.896 -2 -2 c 0 -6.273 5.104 -11.377 11.377 -11.377 s 11.377 5.104 11.377 11.377 C 47.238 59.957 46.343 60.853 45.238 60.853 z M 28.759 56.853 h 14.204 c -0.874 -3.099 -3.727 -5.377 -7.102 -5.377 C 32.486 51.476 29.633 53.754 28.759 56.853 z" style="stroke: none; stroke-width: 1; stroke-dasharray: none; stroke-linecap: butt; stroke-linejoin: miter; stroke-miterlimit: 10; fill: rgb(0,0,0); fill-rule: nonzero; opacity: 1;" transform=" matrix(1 0 0 1 0 0) " stroke-linecap="round" />
	<path d="M 65.237 81.121 H 6.485 C 2.909 81.121 0 78.212 0 74.636 V 58.853 c 0 -1.104 0.896 -2 2 -2 h 67.722 c 1.104 0 2 0.896 2 2 v 15.783 C 71.722 78.212 68.813 81.121 65.237 81.121 z M 4 60.853 v 13.783 c 0 1.37 1.115 2.485 2.485 2.485 h 58.752 c 1.37 0 2.484 -1.115 2.484 -2.485 V 60.853 H 4 z" style="stroke: none; stroke-width: 1; stroke-dasharray: none; stroke-linecap: butt; stroke-linejoin: miter; stroke-miterlimit: 10; fill: rgb(0,0,0); fill-rule: nonzero; opacity: 1;" transform=" matrix(1 0 0 1 0 0) " stroke-linecap="round" />
	<path d="M 35.861 44.171 c -1.104 0 -2 -0.896 -2 -2 v -3.937 c 0 -1.104 0.896 -2 2 -2 s 2 0.896 2 2 v 3.937 C 37.861 43.275 36.965 44.171 35.861 44.171 z" style="stroke: none; stroke-width: 1; stroke-dasharray: none; stroke-linecap: butt; stroke-linejoin: miter; stroke-miterlimit: 10; fill: rgb(0,0,0); fill-rule: nonzero; opacity: 1;" transform=" matrix(1 0 0 1 0 0) " stroke-linecap="round" />
	<path d="M 24.329 48.947 c -0.512 0 -1.024 -0.195 -1.414 -0.586 l -2.784 -2.784 c -0.781 -0.781 -0.781 -2.047 0 -2.828 c 0.78 -0.781 2.048 -0.781 2.828 0 l 2.784 2.784 c 0.781 0.781 0.781 2.047 0 2.828 C 25.353 48.752 24.84 48.947 24.329 48.947 z" style="stroke: none; stroke-width: 1; stroke-dasharray: none; stroke-linecap: butt; stroke-linejoin: miter; stroke-miterlimit: 10; fill: rgb(0,0,0); fill-rule: nonzero; opacity: 1;" transform=" matrix(1 0 0 1 0 0) " stroke-linecap="round" />
	<path d="M 47.394 48.947 c -0.512 0 -1.023 -0.195 -1.415 -0.586 c -0.781 -0.781 -0.781 -2.048 0 -2.829 l 2.784 -2.784 c 0.781 -0.78 2.047 -0.781 2.828 0 s 0.781 2.047 0 2.829 l -2.784 2.783 C 48.417 48.752 47.905 48.947 47.394 48.947 z" style="stroke: none; stroke-width: 1; stroke-dasharray: none; stroke-linecap: butt; stroke-linejoin: miter; stroke-miterlimit: 10; fill: rgb(0,0,0); fill-rule: nonzero; opacity: 1;" transform=" matrix(1 0 0 1 0 0) " stroke-linecap="round" />
	<path d="M 48.785 67.49 H 22.937 c -1.104 0 -2 -0.896 -2 -2 s 0.896 -2 2 -2 h 25.849 c 1.104 0 2 0.896 2 2 S 49.89 67.49 48.785 67.49 z" style="stroke: none; stroke-width: 1; stroke-dasharray: none; stroke-linecap: butt; stroke-linejoin: miter; stroke-miterlimit: 10; fill: rgb(0,0,0); fill-rule: nonzero; opacity: 1;" transform=" matrix(1 0 0 1 0 0) " stroke-linecap="round" />
	<path d="M 43.302 73.888 H 28.42 c -1.104 0 -2 -0.896 -2 -2 s 0.896 -2 2 -2 h 14.882 c 1.104 0 2 0.896 2 2 S 44.407 73.888 43.302 73.888 z" style="stroke: none; stroke-width: 1; stroke-dasharray: none; stroke-linecap: butt; stroke-linejoin: miter; stroke-miterlimit: 10; fill: rgb(0,0,0); fill-rule: nonzero; opacity: 1;" transform=" matrix(1 0 0 1 0 0) " stroke-linecap="round" />
	<path d="M 74.376 71.982 h -4.654 c -1.104 0 -2 -0.896 -2 -2 v -36.34 c 0 -1.37 -1.114 -2.485 -2.484 -2.485 H 11.139 c -1.104 0 -2 -0.896 -2 -2 v -4.654 c 0 -3.576 2.909 -6.485 6.485 -6.485 h 58.752 c 3.576 0 6.485 2.909 6.485 6.485 v 40.994 C 80.861 69.073 77.952 71.982 74.376 71.982 z M 71.722 67.982 h 2.654 c 1.37 0 2.485 -1.115 2.485 -2.485 V 24.503 c 0 -1.371 -1.115 -2.485 -2.485 -2.485 H 15.624 c -1.37 0 -2.485 1.115 -2.485 2.485 v 2.654 h 52.098 c 3.575 0 6.484 2.909 6.484 6.485 V 67.982 z" style="stroke: none; stroke-width: 1; stroke-dasharray: none; stroke-linecap: butt; stroke-linejoin: miter; stroke-miterlimit: 10; fill: rgb(0,0,0); fill-rule: nonzero; opacity: 1;" transform=" matrix(1 0 0 1 0 0) " stroke-linecap="round" />
	<path d="M 83.515 62.843 h -4.653 c -1.104 0 -2 -0.896 -2 -2 V 24.503 c 0 -1.371 -1.115 -2.485 -2.485 -2.485 H 20.278 c -1.104 0 -2 -0.896 -2 -2 v -4.654 c 0 -3.576 2.909 -6.485 6.485 -6.485 h 58.751 c 3.576 0 6.485 2.909 6.485 6.485 v 40.993 C 90 59.934 87.091 62.843 83.515 62.843 z M 80.861 58.843 h 2.653 c 1.37 0 2.485 -1.115 2.485 -2.485 V 15.364 c 0 -1.371 -1.115 -2.485 -2.485 -2.485 H 24.763 c -1.371 0 -2.485 1.115 -2.485 2.485 v 2.654 h 52.098 c 3.576 0 6.485 2.909 6.485 6.485 V 58.843 z" style="stroke: none; stroke-width: 1; stroke-dasharray: none; stroke-linecap: butt; stroke-linejoin: miter; stroke-miterlimit: 10; fill: rgb(0,0,0); fill-rule: nonzero; opacity: 1;" transform=" matrix(1 0 0 1 0 0) " stroke-linecap="round" />
</g>
</svg>