<svg width="800" height="600" viewBox="0 0 800 600" fill="none" xmlns="http://www.w3.org/2000/svg">
<g clip-path="url(#clip0_2_39)">
<rect width="800" height="600" fill="#A2543E"/>
<rect width="800" height="600" fill="black" fill-opacity="0.32"/>
<g opacity="0.6">
<g opacity="0.7">
<g opacity="0.7" filter="url(#filter0_f_2_39)">
<path fill-rule="evenodd" clip-rule="evenodd" d="M447.611 519.767C410.188 538.768 372.601 488.07 333.335 474.358C317.822 468.941 302.122 458.904 286.387 463.466C248.787 474.369 220.431 529.16 182.899 517.978C153.506 509.22 161.035 456.743 153.934 424.003C147.233 393.111 136.886 362.376 142.385 331.195C147.967 299.548 163.823 270.841 184.88 248.542C205.349 226.864 233.998 220.59 259.574 207.089C289.837 191.114 316.223 157.188 349.514 161.635C382.615 166.057 406.513 199.802 426.429 229.378C444.435 256.116 451.766 288.814 457.235 321.6C462.245 351.631 458.316 381.158 456.835 411.652C455.049 448.425 477.869 504.403 447.611 519.767Z" fill="#C5D690"/>
</g>
<g opacity="0.7" filter="url(#filter1_f_2_39)">
<path fill-rule="evenodd" clip-rule="evenodd" d="M215.191 263.995C188.774 276.348 158.721 256.128 130.625 262.5C106.341 268.008 89.7435 299.186 64.9754 298.062C39.9177 296.925 15.0394 279.769 1.21055 256.628C-12.2085 234.173 7.47874 199.468 -6.91515 177.764C-33.0021 138.43 -106.414 138.163 -109.623 89.5097C-112.332 48.4417 -50.3053 42.7434 -17.0402 24.2554C6.70753 11.0569 31.1988 -8.89254 57.2822 -3.25264C83.203 2.3521 94.0614 37.1637 116.215 53.0686C129.097 62.3172 144.405 64.1982 158.928 69.7224C183.665 79.1316 212.224 78.1491 231.987 97.1047C257.483 121.559 288.5 153.323 284.766 190.421C281.155 226.303 245.257 249.935 215.191 263.995Z" fill="#B9DCE0"/>
</g>
<g opacity="0.7" filter="url(#filter2_f_2_39)">
<path fill-rule="evenodd" clip-rule="evenodd" d="M432.592 520.96C412.668 549.551 369.907 538.598 337.342 536.204C311.793 534.326 291.615 507.295 266.042 508.717C225.303 510.983 188.351 564.022 150.731 546.584C117.939 531.384 119.394 476.911 113.684 438.096C108.491 402.792 111.859 367.615 119.284 332.803C126.684 298.109 128.225 252.792 156.748 236.198C187.664 218.213 224.207 256.948 258.806 251.633C285.457 247.538 305.425 194.605 328.559 209.803C355.956 227.802 328.669 284.382 349.4 311.148C366.479 333.198 407.371 310.964 424.184 333.262C439.436 353.49 423.461 384.626 424.64 410.933C426.314 448.318 453.252 491.314 432.592 520.96Z" fill="#A2543E"/>
</g>
<g opacity="0.7" filter="url(#filter3_f_2_39)">
<path fill-rule="evenodd" clip-rule="evenodd" d="M210.134 402.337C197.516 439.005 147.665 438.19 112.607 444.165C80.7212 449.599 44.107 455.802 17.8229 435.11C-8.61486 414.297 1.59258 363.846 -21.4798 338.606C-43.4547 314.568 -99.5238 333.512 -105.677 300.011C-112.165 264.69 -59.1433 250.61 -43.4434 219.026C-33.3995 198.82 -48.9027 165.964 -32.1916 152.178C-14.431 137.527 14.2238 168.828 33.0569 155.919C62.8113 135.524 61.9494 76.6774 95.2697 64.8123C123.716 54.6829 151.13 86.0312 175.471 105.207C202.405 126.424 244.906 145.399 243.976 181.959C242.922 223.397 177.457 233.072 171.181 273.941C164.227 319.219 224.903 359.414 210.134 402.337Z" fill="#DCA141"/>
</g>
</g>
<g opacity="0.7">
<g opacity="0.7" filter="url(#filter4_f_2_39)">
<path fill-rule="evenodd" clip-rule="evenodd" d="M781.045 9.24108C800.576 49.3364 757.231 94.0592 747.364 138.277C743.466 155.745 735.411 173.716 740.531 190.793C752.767 231.601 804.012 259.405 796.317 301.547C790.29 334.55 742.461 329.586 713.374 339.513C685.929 348.88 658.858 362.263 630.374 358.182C601.464 354.039 574.551 338.368 553.088 316.548C532.223 295.337 524.735 264.114 510.922 236.744C494.578 204.359 462.284 177.397 464.173 140.367C466.05 103.547 494.973 75.0163 520.388 51.1455C543.364 29.565 572.399 19.387 601.632 11.2586C628.408 3.81332 655.3 6.26663 682.908 5.95617C716.201 5.5818 765.253 -23.1786 781.045 9.24108Z" fill="#C5D690"/>
</g>
<g opacity="0.7" filter="url(#filter5_f_2_39)">
<path fill-rule="evenodd" clip-rule="evenodd" d="M565.096 282.104C577.928 310.476 561.601 344.938 569.143 375.545C575.661 401.998 604.851 418.33 605.417 445.741C605.99 473.472 592.097 502.028 572.1 518.768C552.696 535.013 520.126 515.496 501.462 532.768C467.636 564.073 472.079 645.123 428.385 651.768C391.504 657.378 382.405 589.276 363.602 553.737C350.179 528.366 330.617 502.605 334.042 473.454C337.445 444.485 368.162 430.278 381.099 404.81C388.622 390.001 389.343 372.984 393.4 356.601C400.312 328.696 397.604 297.235 413.446 274.211C433.884 244.509 460.565 208.246 494.275 210C526.881 211.697 550.493 249.815 565.096 282.104Z" fill="#B9DCE0"/>
</g>
<g opacity="0.7" filter="url(#filter6_f_2_39)">
<path fill-rule="evenodd" clip-rule="evenodd" d="M783.079 25.7425C810.147 45.9112 802.992 93.81 802.91 129.908C802.845 158.229 779.743 182.227 782.658 210.364C787.301 255.187 837.513 292.591 824.179 335.229C812.557 372.395 763.315 374.264 728.657 383.042C697.136 391.027 665.181 389.554 633.298 383.578C601.523 377.623 560.537 378.813 543.745 348.387C525.545 315.41 558.164 272.602 551.161 234.75C545.766 205.594 496.733 186.93 508.97 160.425C523.461 129.035 576.253 155.546 599.08 130.955C617.886 110.697 595.217 66.978 614.263 46.9971C631.541 28.8711 660.652 44.5184 684.313 41.5394C717.937 37.306 755.013 4.82968 783.079 25.7425Z" fill="#A2543E"/>
</g>
<g opacity="0.7" filter="url(#filter7_f_2_39)">
<path fill-rule="evenodd" clip-rule="evenodd" d="M690.241 278.862C724.13 290.45 726.575 345.529 734.202 383.845C741.139 418.694 749.071 458.713 732.078 489.046C714.986 519.556 668.814 511.507 647.514 538.585C627.226 564.374 647.896 625.055 618.061 633.984C586.606 643.399 570.52 585.771 541.021 570.456C522.149 560.659 493.493 579.867 479.989 562.301C465.637 543.631 492.051 510.005 479.202 490.04C458.903 458.498 405.862 463.203 393.031 427.181C382.077 396.428 408.613 364.168 424.361 336.077C441.787 304.994 456.196 256.871 489.242 255.564C526.697 254.084 539.603 325.729 576.878 330.049C618.174 334.836 650.571 265.297 690.241 278.862Z" fill="#DCA141"/>
</g>
</g>
</g>
</g>
<defs>
<filter id="filter0_f_2_39" x="-5.96907" y="14.4369" width="616.186" height="656.339" filterUnits="userSpaceOnUse" color-interpolation-filters="sRGB">
<feFlood flood-opacity="0" result="BackgroundImageFix"/>
<feBlend mode="normal" in="SourceGraphic" in2="BackgroundImageFix" result="shape"/>
<feGaussianBlur stdDeviation="73.4" result="effect1_foregroundBlur_2_39"/>
</filter>
<filter id="filter1_f_2_39" x="-256.509" y="-151.033" width="688.383" height="595.925" filterUnits="userSpaceOnUse" color-interpolation-filters="sRGB">
<feFlood flood-opacity="0" result="BackgroundImageFix"/>
<feBlend mode="normal" in="SourceGraphic" in2="BackgroundImageFix" result="shape"/>
<feGaussianBlur stdDeviation="73.4" result="effect1_foregroundBlur_2_39"/>
</filter>
<filter id="filter2_f_2_39" x="-35.622" y="60.2691" width="622.775" height="636.627" filterUnits="userSpaceOnUse" color-interpolation-filters="sRGB">
<feFlood flood-opacity="0" result="BackgroundImageFix"/>
<feBlend mode="normal" in="SourceGraphic" in2="BackgroundImageFix" result="shape"/>
<feGaussianBlur stdDeviation="73.4" result="effect1_foregroundBlur_2_39"/>
</filter>
<filter id="filter3_f_2_39" x="-253.024" y="-83.9545" width="643.815" height="680.219" filterUnits="userSpaceOnUse" color-interpolation-filters="sRGB">
<feFlood flood-opacity="0" result="BackgroundImageFix"/>
<feBlend mode="normal" in="SourceGraphic" in2="BackgroundImageFix" result="shape"/>
<feGaussianBlur stdDeviation="73.4" result="effect1_foregroundBlur_2_39"/>
</filter>
<filter id="filter4_f_2_39" x="317.293" y="-152.964" width="626.607" height="658.7" filterUnits="userSpaceOnUse" color-interpolation-filters="sRGB">
<feFlood flood-opacity="0" result="BackgroundImageFix"/>
<feBlend mode="normal" in="SourceGraphic" in2="BackgroundImageFix" result="shape"/>
<feGaussianBlur stdDeviation="73.4" result="effect1_foregroundBlur_2_39"/>
</filter>
<filter id="filter5_f_2_39" x="186.846" y="63.1387" width="565.388" height="735.756" filterUnits="userSpaceOnUse" color-interpolation-filters="sRGB">
<feFlood flood-opacity="0" result="BackgroundImageFix"/>
<feBlend mode="normal" in="SourceGraphic" in2="BackgroundImageFix" result="shape"/>
<feGaussianBlur stdDeviation="73.4" result="effect1_foregroundBlur_2_39"/>
</filter>
<filter id="filter6_f_2_39" x="360.216" y="-128.018" width="613.008" height="663.369" filterUnits="userSpaceOnUse" color-interpolation-filters="sRGB">
<feFlood flood-opacity="0" result="BackgroundImageFix"/>
<feBlend mode="normal" in="SourceGraphic" in2="BackgroundImageFix" result="shape"/>
<feGaussianBlur stdDeviation="73.4" result="effect1_foregroundBlur_2_39"/>
</filter>
<filter id="filter7_f_2_39" x="243.653" y="108.742" width="645.387" height="673.076" filterUnits="userSpaceOnUse" color-interpolation-filters="sRGB">
<feFlood flood-opacity="0" result="BackgroundImageFix"/>
<feBlend mode="normal" in="SourceGraphic" in2="BackgroundImageFix" result="shape"/>
<feGaussianBlur stdDeviation="73.4" result="effect1_foregroundBlur_2_39"/>
</filter>
<clipPath id="clip0_2_39">
<rect width="800" height="600" fill="white"/>
</clipPath>
</defs>
</svg>
