<svg width="19" height="17" viewBox="0 0 19 17" fill="none" xmlns="http://www.w3.org/2000/svg">
<path d="M14.6041 8.04797C15.2131 7.01005 15.4761 5.80528 15.3551 4.60797C15.1761 2.82397 14.1801 1.24697 12.5521 0.167969L11.4471 1.83397C12.5661 2.57597 13.2471 3.63297 13.3651 4.80797C13.4195 5.35407 13.3515 5.90543 13.1661 6.42195C12.9806 6.93847 12.6824 7.40718 12.2931 7.79397L11.1011 8.98597L12.7191 9.46097C16.9511 10.701 17.0001 14.957 17.0001 15H19.0001C19.0001 13.211 18.0441 9.71497 14.6041 8.04797Z" fill="black"/>
<path d="M7.5 9C9.706 9 11.5 7.206 11.5 5C11.5 2.794 9.706 1 7.5 1C5.294 1 3.5 2.794 3.5 5C3.5 7.206 5.294 9 7.5 9ZM7.5 3C8.603 3 9.5 3.897 9.5 5C9.5 6.103 8.603 7 7.5 7C6.397 7 5.5 6.103 5.5 5C5.5 3.897 6.397 3 7.5 3ZM9 10H6C2.691 10 0 12.691 0 16V17H2V16C2 13.794 3.794 12 6 12H9C11.206 12 13 13.794 13 16V17H15V16C15 12.691 12.309 10 9 10Z" fill="black"/>
</svg>
