<svg width="30" height="30" viewBox="0 0 30 30" fill="none" xmlns="http://www.w3.org/2000/svg">
<path d="M19 18C18.7348 18 18.4804 18.1054 18.2929 18.2929C18.1054 18.4804 18 18.7348 18 19V24H12V5C12.0002 4.79972 11.9402 4.604 11.8279 4.43818C11.7156 4.27237 11.5561 4.1441 11.37 4.07L6.19 2H18V11C18 11.2652 18.1054 11.5196 18.2929 11.7071C18.4804 11.8946 18.7348 12 19 12C19.2652 12 19.5196 11.8946 19.7071 11.7071C19.8946 11.5196 20 11.2652 20 11V1C20 0.734784 19.8946 0.48043 19.7071 0.292893C19.5196 0.105357 19.2652 0 19 0H1C0.887407 0.00127823 0.775838 0.0215635 0.67 0.0599999H0.61L0.48 0.13L0.37 0.23H0.320001C0.239785 0.308672 0.17827 0.404362 0.14 0.51V0.57C0.061112 0.700763 0.0132209 0.847857 4.68795e-07 1V25C-0.000193413 25.2003 0.0597553 25.396 0.172081 25.5618C0.284407 25.7276 0.443935 25.8559 0.63 25.93L10.63 29.93C10.7473 29.9781 10.8732 30.0019 11 30C11.1994 30.0004 11.3945 29.9412 11.56 29.83C11.6957 29.7383 11.8068 29.6146 11.8835 29.4699C11.9603 29.3252 12.0002 29.1638 12 29V26H19C19.2652 26 19.5196 25.8946 19.7071 25.7071C19.8946 25.5196 20 25.2652 20 25V19C20 18.7348 19.8946 18.4804 19.7071 18.2929C19.5196 18.1054 19.2652 18 19 18Z" fill="black"/>
<path d="M29.92 15.3799C30.02 15.1365 30.02 14.8634 29.92 14.6199C29.8724 14.4972 29.801 14.385 29.71 14.2899L25.71 10.2899C25.5217 10.1016 25.2663 9.99585 25 9.99585C24.7337 9.99585 24.4783 10.1016 24.29 10.2899C24.1017 10.4782 23.9959 10.7336 23.9959 10.9999C23.9959 11.2662 24.1017 11.5216 24.29 11.7099L25 12.4099V13.9999H15C14.7348 13.9999 14.4804 14.1053 14.2929 14.2928C14.1054 14.4804 14 14.7347 14 14.9999C14 15.2652 14.1054 15.5195 14.2929 15.707C14.4804 15.8946 14.7348 15.9999 15 15.9999H25V17.5899L24.29 18.2899C24.1963 18.3829 24.1219 18.4935 24.0711 18.6154C24.0203 18.7372 23.9942 18.8679 23.9942 18.9999C23.9942 19.132 24.0203 19.2627 24.0711 19.3845C24.1219 19.5064 24.1963 19.617 24.29 19.7099C24.383 19.8037 24.4936 19.8781 24.6154 19.9288C24.7373 19.9796 24.868 20.0057 25 20.0057C25.132 20.0057 25.2627 19.9796 25.3846 19.9288C25.5064 19.8781 25.617 19.8037 25.71 19.7099L29.71 15.7099C29.801 15.6148 29.8724 15.5027 29.92 15.3799Z" fill="black"/>
</svg>
